<svg id="logo-sistec-ts" xmlns="http://www.w3.org/2000/svg" xmlns:xlink="http://www.w3.org/1999/xlink" width="260" height="86.651" viewBox="0 0 260 86.651">
  <defs>
    <clipPath id="clip-path">
      <rect id="Rectángulo_1" data-name="Rectángulo 1" width="260" height="86.651" fill="none"/>
    </clipPath>
  </defs>
  <g id="Grupo_1" data-name="Grupo 1" transform="translate(0 0)" clip-path="url(#clip-path)">
    <path id="Trazado_1" data-name="Trazado 1" d="M187.169,78.964H125.753a8.773,8.773,0,0,1-8.773-8.773V8.775A8.774,8.774,0,0,1,125.753,0h61.416a8.774,8.774,0,0,1,8.773,8.775V70.191a8.773,8.773,0,0,1-8.773,8.773" transform="translate(64.057 0)" fill="#ffb600"/>
    <path id="Trazado_2" data-name="Trazado 2" d="M16.6,51.919a29.213,29.213,0,0,1-6.351-.669,16.4,16.4,0,0,1-5.321-2.145A10.225,10.225,0,0,1,0,39.885V39.3a1.567,1.567,0,0,1,.056-.474H8.3a1.4,1.4,0,0,0-.056.446v.5a4.681,4.681,0,0,0,.975,3.009,5.834,5.834,0,0,0,2.869,1.839,14.292,14.292,0,0,0,4.4.613,18.812,18.812,0,0,0,2.868-.195,11.446,11.446,0,0,0,2.23-.557,6.007,6.007,0,0,0,1.617-.864,3.174,3.174,0,0,0,.946-1.17,3.547,3.547,0,0,0,.308-1.5,3.267,3.267,0,0,0-.977-2.451,8.026,8.026,0,0,0-2.674-1.616,34.384,34.384,0,0,0-3.815-1.226l-4.347-1.142A35.13,35.13,0,0,1,8.3,33.06a17.636,17.636,0,0,1-3.789-2.089,9.09,9.09,0,0,1-2.674-3.12,9.632,9.632,0,0,1-1-4.568,9.576,9.576,0,0,1,1.2-4.9,9.676,9.676,0,0,1,3.371-3.4A16.327,16.327,0,0,1,10.42,13a28.125,28.125,0,0,1,6.184-.641A26.3,26.3,0,0,1,22.51,13a14.924,14.924,0,0,1,4.9,2.034,10.143,10.143,0,0,1,3.315,3.51,10,10,0,0,1,1.2,5.014v.669H23.845v-.446a3.861,3.861,0,0,0-.89-2.563,5.968,5.968,0,0,0-2.509-1.671,10.663,10.663,0,0,0-3.789-.613,15.375,15.375,0,0,0-3.982.446,5.519,5.519,0,0,0-2.507,1.309A2.778,2.778,0,0,0,9.3,22.726a2.811,2.811,0,0,0,.977,2.2,8.568,8.568,0,0,0,2.676,1.5,31.05,31.05,0,0,0,3.812,1.142q2.119.5,4.347,1.114a42.564,42.564,0,0,1,4.346,1.449,16.139,16.139,0,0,1,3.789,2.089,9.463,9.463,0,0,1,2.674,3.092,9.066,9.066,0,0,1,1,4.4,11.082,11.082,0,0,1-2.117,7.076,12.018,12.018,0,0,1-5.8,3.9A26.615,26.615,0,0,1,16.6,51.919" transform="translate(0 6.77)" fill="#2c005f"/>
    <path id="Trazado_3" data-name="Trazado 3" d="M25.128,11.463h7.744v6.686H25.128Zm0,10.974h7.744V51.742H25.128Z" transform="translate(13.76 6.277)" fill="#2c005f"/>
    <path id="Trazado_4" data-name="Trazado 4" d="M47.1,48.765a20.967,20.967,0,0,1-5.516-.669A13.507,13.507,0,0,1,37.4,46.23a8.451,8.451,0,0,1-2.646-2.869,7.729,7.729,0,0,1-.918-3.789v-.446a.779.779,0,0,1,.054-.334H41.36v.446a3.309,3.309,0,0,0,.891,2.256,4.845,4.845,0,0,0,2.2,1.254,10.4,10.4,0,0,0,2.871.39,13.176,13.176,0,0,0,2.589-.251,5.02,5.02,0,0,0,2.119-.919,2.09,2.09,0,0,0,.862-1.727,2.33,2.33,0,0,0-1.086-2.061,9.22,9.22,0,0,0-2.841-1.17q-1.755-.446-3.816-1-1.892-.446-3.789-1.031a14.774,14.774,0,0,1-3.426-1.532,7.514,7.514,0,0,1-2.478-2.479,7.222,7.222,0,0,1-.949-3.872,7.679,7.679,0,0,1,1-3.984A8.3,8.3,0,0,1,38.268,20.3a12.876,12.876,0,0,1,4.123-1.644,23.347,23.347,0,0,1,5.1-.529,20.718,20.718,0,0,1,4.791.529,13.189,13.189,0,0,1,3.9,1.56,7.884,7.884,0,0,1,2.62,2.563,6.4,6.4,0,0,1,.947,3.426v.724a1.15,1.15,0,0,1-.057.446H52.281v-.446a2.483,2.483,0,0,0-.614-1.7,3.991,3.991,0,0,0-1.755-1.086,8.589,8.589,0,0,0-2.758-.39,11.4,11.4,0,0,0-2.034.167,5.913,5.913,0,0,0-1.588.5,2.913,2.913,0,0,0-1.031.808,1.9,1.9,0,0,0,.446,2.674,7,7,0,0,0,2.145.975q1.337.39,2.953.836,2.008.557,4.206,1.086a21.323,21.323,0,0,1,4.1,1.421,7.73,7.73,0,0,1,3.063,2.535,7.5,7.5,0,0,1,1.17,4.429A9.11,9.11,0,0,1,59.55,43.7a7.942,7.942,0,0,1-2.869,2.953,13.392,13.392,0,0,1-4.288,1.616,26.431,26.431,0,0,1-5.293.5" transform="translate(18.53 9.924)" fill="#2c005f"/>
    <path id="Trazado_5" data-name="Trazado 5" d="M64.45,51.486a8.918,8.918,0,0,1-4.513-1,5.964,5.964,0,0,1-2.509-2.7,8.908,8.908,0,0,1-.78-3.761V27.473H53.027V21.512h3.9l1.449-8.357h6.015v8.357h5.35v5.961h-5.35V42.739a3,3,0,0,0,.613,2.034,2.549,2.549,0,0,0,2.006.7h2.732v5.126a16.017,16.017,0,0,1-1.56.418q-.894.2-1.9.334a13.426,13.426,0,0,1-1.837.139" transform="translate(29.037 7.203)" fill="#2c005f"/>
    <path id="Trazado_6" data-name="Trazado 6" d="M80.9,48.765a18.082,18.082,0,0,1-8.134-1.644A10.778,10.778,0,0,1,67.8,42.08a19.549,19.549,0,0,1-1.671-8.636A19.512,19.512,0,0,1,67.8,24.781a10.842,10.842,0,0,1,4.929-5.014,17.624,17.624,0,0,1,7.995-1.644,16.217,16.217,0,0,1,7.523,1.588,10.26,10.26,0,0,1,4.624,4.9,20.169,20.169,0,0,1,1.56,8.552v2.006H73.986a13.669,13.669,0,0,0,.808,4.346,5.087,5.087,0,0,0,2.173,2.646,7.732,7.732,0,0,0,3.929.864,8.229,8.229,0,0,0,2.424-.334,5.164,5.164,0,0,0,1.865-1,4.676,4.676,0,0,0,1.227-1.671,5.6,5.6,0,0,0,.444-2.284h7.579a10.966,10.966,0,0,1-1,4.847,9.449,9.449,0,0,1-2.786,3.426,12.48,12.48,0,0,1-4.262,2.061,20.258,20.258,0,0,1-5.486.7m-6.8-18.5H86.466a9.044,9.044,0,0,0-.416-2.9,5.534,5.534,0,0,0-1.144-2.006,4.307,4.307,0,0,0-1.753-1.142,6.959,6.959,0,0,0-2.314-.362,8.006,8.006,0,0,0-3.538.7,4.8,4.8,0,0,0-2.173,2.117A10.565,10.565,0,0,0,74.1,30.268" transform="translate(36.213 9.924)" fill="#2c005f"/>
    <path id="Trazado_7" data-name="Trazado 7" d="M101.474,48.785a16.951,16.951,0,0,1-7.856-1.644,10.743,10.743,0,0,1-4.819-5.07,19.873,19.873,0,0,1-1.644-8.608A19.8,19.8,0,0,1,88.8,24.8a10.907,10.907,0,0,1,4.845-5.042,16.763,16.763,0,0,1,7.829-1.671,18.96,18.96,0,0,1,5.432.724,11.6,11.6,0,0,1,4.206,2.229,9.643,9.643,0,0,1,2.7,3.7,13.492,13.492,0,0,1,.918,5.209h-7.744a7.637,7.637,0,0,0-.611-3.287,4.23,4.23,0,0,0-1.868-1.95,6.634,6.634,0,0,0-3.146-.669,6.052,6.052,0,0,0-3.621,1A5.818,5.818,0,0,0,95.68,28a15.06,15.06,0,0,0-.67,4.847v1.281a14.349,14.349,0,0,0,.7,4.791,5.7,5.7,0,0,0,2.145,2.925,7.8,7.8,0,0,0,6.938.306,4.459,4.459,0,0,0,1.921-2.006,7.142,7.142,0,0,0,.669-3.231h7.354a13.226,13.226,0,0,1-.918,5.07,9.711,9.711,0,0,1-2.674,3.733,11.957,11.957,0,0,1-4.208,2.284,17.949,17.949,0,0,1-5.458.78" transform="translate(47.726 9.904)" fill="#2c005f"/>
    <path id="Trazado_8" data-name="Trazado 8" d="M1,57.927V47.311H9.174V48.58h-6.7v3.281h6.02V53.13H2.473v3.529H9.267v1.269Z" transform="translate(0.549 25.907)" fill="#2c005f"/>
    <path id="Trazado_9" data-name="Trazado 9" d="M8.239,58.174v-7H7.033V50.034H8.239v-1.3a2.888,2.888,0,0,1,.141-.905,1.341,1.341,0,0,1,.526-.7,1.86,1.86,0,0,1,1.082-.271,3.867,3.867,0,0,1,.427.023c.139.015.274.036.4.062s.245.054.348.084V48h-.82a.736.736,0,0,0-.565.193.787.787,0,0,0-.18.551v1.285h1.565v1.145H9.6v7Zm4.01-11.191H13.61V48.5H12.248Zm0,3.05H13.61v8.14H12.248Z" transform="translate(3.851 25.661)" fill="#2c005f"/>
    <path id="Trazado_10" data-name="Trazado 10" d="M15.933,57.3a3.926,3.926,0,0,1-1.973-.457,2.87,2.87,0,0,1-1.209-1.408,6.114,6.114,0,0,1-.409-2.391,6.052,6.052,0,0,1,.409-2.383,2.9,2.9,0,0,1,1.223-1.408,4,4,0,0,1,2.006-.464,4.355,4.355,0,0,1,1.447.217,2.568,2.568,0,0,1,1.014.635,2.6,2.6,0,0,1,.6,1.006,4.315,4.315,0,0,1,.193,1.346H17.852a3.048,3.048,0,0,0-.193-1.17,1.354,1.354,0,0,0-.611-.679,2.316,2.316,0,0,0-1.1-.226,2.217,2.217,0,0,0-1.176.3,1.9,1.9,0,0,0-.758.952,4.628,4.628,0,0,0-.263,1.716v.327a4.7,4.7,0,0,0,.255,1.67,1.893,1.893,0,0,0,.751.977,2.236,2.236,0,0,0,1.207.31,2.216,2.216,0,0,0,1.122-.248,1.441,1.441,0,0,0,.619-.713A2.858,2.858,0,0,0,17.9,54.1H19.23a4.046,4.046,0,0,1-.193,1.269,2.754,2.754,0,0,1-.6,1.021,2.708,2.708,0,0,1-1.021.673,4.13,4.13,0,0,1-1.486.24" transform="translate(6.759 26.717)" fill="#2c005f"/>
    <path id="Trazado_11" data-name="Trazado 11" d="M20.087,57.3a3.8,3.8,0,0,1-.9-.108,2.737,2.737,0,0,1-.836-.356,1.746,1.746,0,0,1-.617-.689,2.343,2.343,0,0,1-.234-1.107,2.253,2.253,0,0,1,.4-1.377,2.638,2.638,0,0,1,1.124-.843,6.307,6.307,0,0,1,1.709-.418,18.547,18.547,0,0,1,2.151-.116V51.36a1.779,1.779,0,0,0-.155-.774,1.046,1.046,0,0,0-.548-.5,2.84,2.84,0,0,0-1.124-.178,2.852,2.852,0,0,0-1.107.178,1.177,1.177,0,0,0-.573.457,1.209,1.209,0,0,0-.161.621v.231H17.905a.74.74,0,0,1-.015-.155V51.05a1.9,1.9,0,0,1,.41-1.244,2.487,2.487,0,0,1,1.153-.76,5.232,5.232,0,0,1,1.7-.255,4.382,4.382,0,0,1,1.709.294,2.225,2.225,0,0,1,1.037.836,2.34,2.34,0,0,1,.35,1.3v4.409a.5.5,0,0,0,.139.41.5.5,0,0,0,.339.116h.6v.9a3.616,3.616,0,0,1-.48.164,2.432,2.432,0,0,1-.6.068,1.249,1.249,0,0,1-.667-.162,1.058,1.058,0,0,1-.4-.449A2.158,2.158,0,0,1,23,56.034h-.108a2.753,2.753,0,0,1-.7.673,3.436,3.436,0,0,1-.952.441,4.037,4.037,0,0,1-1.147.155m.34-1.145A2.79,2.79,0,0,0,21.364,56a2.454,2.454,0,0,0,.782-.441,2.1,2.1,0,0,0,.542-.689,1.933,1.933,0,0,0,.2-.881V53.31a13.957,13.957,0,0,0-2.136.139,3.05,3.05,0,0,0-1.354.5,1.189,1.189,0,0,0-.472,1.006,1.154,1.154,0,0,0,.186.681,1.127,1.127,0,0,0,.526.395,2.175,2.175,0,0,0,.789.132" transform="translate(9.584 26.717)" fill="#2c005f"/>
    <path id="Trazado_12" data-name="Trazado 12" d="M26.573,57.3a3.916,3.916,0,0,1-1.972-.457,2.862,2.862,0,0,1-1.209-1.408,6.086,6.086,0,0,1-.409-2.391,6.024,6.024,0,0,1,.409-2.383,2.9,2.9,0,0,1,1.223-1.408,3.987,3.987,0,0,1,2-.464,4.342,4.342,0,0,1,1.447.217,2.5,2.5,0,0,1,1.61,1.64,4.27,4.27,0,0,1,.193,1.346H28.492a3.048,3.048,0,0,0-.193-1.17,1.345,1.345,0,0,0-.61-.679,2.32,2.32,0,0,0-1.1-.226,2.223,2.223,0,0,0-1.178.3,1.9,1.9,0,0,0-.757.952,4.593,4.593,0,0,0-.265,1.716v.327a4.73,4.73,0,0,0,.255,1.67,1.9,1.9,0,0,0,.751.977,2.242,2.242,0,0,0,1.209.31,2.21,2.21,0,0,0,1.12-.248,1.444,1.444,0,0,0,.621-.713A2.887,2.887,0,0,0,28.54,54.1h1.329a4,4,0,0,1-.193,1.269,2.638,2.638,0,0,1-1.617,1.695,4.124,4.124,0,0,1-1.486.24" transform="translate(12.586 26.717)" fill="#2c005f"/>
    <path id="Trazado_13" data-name="Trazado 13" d="M28.493,46.94h1.362v1.517H28.493Zm0,3.05h1.362v8.14H28.493Z" transform="translate(15.603 25.704)" fill="#2c005f"/>
    <path id="Trazado_14" data-name="Trazado 14" d="M32.976,57.3a3.774,3.774,0,0,1-.9-.108,2.7,2.7,0,0,1-.836-.356,1.75,1.75,0,0,1-.619-.689,2.362,2.362,0,0,1-.234-1.107,2.244,2.244,0,0,1,.4-1.377,2.633,2.633,0,0,1,1.122-.843,6.319,6.319,0,0,1,1.71-.418,18.528,18.528,0,0,1,2.151-.116V51.36a1.779,1.779,0,0,0-.155-.774,1.055,1.055,0,0,0-.549-.5,3.582,3.582,0,0,0-2.23,0,1.166,1.166,0,0,0-.571.457,1.21,1.21,0,0,0-.162.621v.231H30.8a.741.741,0,0,1-.017-.155V51.05a1.9,1.9,0,0,1,.412-1.244,2.487,2.487,0,0,1,1.153-.76,5.222,5.222,0,0,1,1.7-.255,4.385,4.385,0,0,1,1.71.294,2.241,2.241,0,0,1,1.037.836,2.352,2.352,0,0,1,.348,1.3v4.409a.51.51,0,0,0,.139.41.5.5,0,0,0,.339.116h.605v.9a3.719,3.719,0,0,1-.481.164,2.432,2.432,0,0,1-.6.068,1.243,1.243,0,0,1-.665-.162,1.072,1.072,0,0,1-.4-.449,2.112,2.112,0,0,1-.184-.642h-.108a2.76,2.76,0,0,1-.7.673,3.436,3.436,0,0,1-.952.441,4.037,4.037,0,0,1-1.147.155m.342-1.145A2.781,2.781,0,0,0,34.253,56a2.437,2.437,0,0,0,.782-.441,2.128,2.128,0,0,0,.543-.689,1.953,1.953,0,0,0,.2-.881V53.31a13.957,13.957,0,0,0-2.136.139,3.05,3.05,0,0,0-1.354.5,1.186,1.186,0,0,0-.474,1.006,1.154,1.154,0,0,0,.186.681,1.124,1.124,0,0,0,.528.395,2.175,2.175,0,0,0,.789.132" transform="translate(16.642 26.717)" fill="#2c005f"/>
    <path id="Trazado_15" data-name="Trazado 15" d="M39.287,59.868a3.351,3.351,0,0,1-.642-.054c-.181-.037-.3-.06-.364-.07v-.992h.681a1.735,1.735,0,0,0,1.391-.679,3.084,3.084,0,0,0,.526-1.021l-3.157-8.14h1.424L40.772,53.1c.071.2.158.435.255.72s.195.576.292.874.18.562.241.789h.091c.043-.166.094-.351.156-.557s.125-.421.193-.642.133-.435.2-.636.121-.379.161-.532l1.379-4.209h1.377l-2.756,7.907a10.541,10.541,0,0,1-.511,1.23,4.661,4.661,0,0,1-.617.967,2.352,2.352,0,0,1-.822.627,2.635,2.635,0,0,1-1.128.226" transform="translate(20.656 26.783)" fill="#2c005f"/>
    <path id="Trazado_16" data-name="Trazado 16" d="M50.309,58.179a5.839,5.839,0,0,1-2.755-.6,3.935,3.935,0,0,1-1.726-1.811,7.018,7.018,0,0,1-.6-3.087,5.658,5.658,0,0,1,1.346-4.132,5.029,5.029,0,0,1,3.745-1.363,6.2,6.2,0,0,1,2.414.443,3.6,3.6,0,0,1,1.648,1.331,3.934,3.934,0,0,1,.6,2.236H53.5a2.748,2.748,0,0,0-.395-1.532A2.423,2.423,0,0,0,52,48.762a4.258,4.258,0,0,0-1.671-.3,3.978,3.978,0,0,0-1.917.433,2.8,2.8,0,0,0-1.224,1.339,5.586,5.586,0,0,0-.418,2.329v.325a5.416,5.416,0,0,0,.418,2.3A2.737,2.737,0,0,0,48.4,56.493a4.09,4.09,0,0,0,1.925.418,4.522,4.522,0,0,0,1.71-.294,2.346,2.346,0,0,0,1.114-.905,2.785,2.785,0,0,0,.395-1.54h1.441a3.875,3.875,0,0,1-.613,2.259,3.676,3.676,0,0,1-1.664,1.315,6.272,6.272,0,0,1-2.4.433" transform="translate(24.769 25.841)" fill="#2c005f"/>
    <path id="Trazado_17" data-name="Trazado 17" d="M56.2,57.3a4.328,4.328,0,0,1-2.083-.457,2.972,2.972,0,0,1-1.285-1.4,6.76,6.76,0,0,1,0-4.8,2.979,2.979,0,0,1,1.285-1.394,4.974,4.974,0,0,1,4.163,0,2.926,2.926,0,0,1,1.277,1.394,6.873,6.873,0,0,1,0,4.8,2.919,2.919,0,0,1-1.277,1.4,4.324,4.324,0,0,1-2.08.457m0-1.145a2.558,2.558,0,0,0,1.315-.31,1.917,1.917,0,0,0,.8-.967,4.418,4.418,0,0,0,.271-1.662v-.342a4.409,4.409,0,0,0-.271-1.671,1.93,1.93,0,0,0-.8-.96,2.963,2.963,0,0,0-2.637,0,1.877,1.877,0,0,0-.8.96,4.519,4.519,0,0,0-.262,1.671v.342a4.528,4.528,0,0,0,.262,1.662,1.865,1.865,0,0,0,.8.967,2.582,2.582,0,0,0,1.322.31" transform="translate(28.689 26.717)" fill="#2c005f"/>
    <path id="Trazado_18" data-name="Trazado 18" d="M58.393,57.117v-8.14h1.1l.124,1.223h.107a3.208,3.208,0,0,1,.7-.8,2.631,2.631,0,0,1,.85-.457,3.3,3.3,0,0,1,1.007-.147,2.76,2.76,0,0,1,1.362.317,1.919,1.919,0,0,1,.85,1.091h.094a2.679,2.679,0,0,1,1.548-1.254,3.29,3.29,0,0,1,1.021-.155,3.1,3.1,0,0,1,1.3.255,1.867,1.867,0,0,1,.873.836,3.242,3.242,0,0,1,.319,1.555v5.68H68.282V51.654a2.428,2.428,0,0,0-.118-.82,1.1,1.1,0,0,0-.331-.5,1.308,1.308,0,0,0-.5-.255,2.342,2.342,0,0,0-.61-.077,1.889,1.889,0,0,0-1,.279,2.027,2.027,0,0,0-.734.8,2.648,2.648,0,0,0-.279,1.254v4.782H63.345V51.654a2.341,2.341,0,0,0-.124-.82,1.266,1.266,0,0,0-.325-.5,1.187,1.187,0,0,0-.487-.255,2.3,2.3,0,0,0-.6-.077,1.974,1.974,0,0,0-1.78,1.083,2.63,2.63,0,0,0-.279,1.254v4.782Z" transform="translate(31.976 26.717)" fill="#2c005f"/>
    <path id="Trazado_19" data-name="Trazado 19" d="M66.992,59.794V48.977h1.083l.139,1.161h.11a2.673,2.673,0,0,1,1.068-1.015,3.5,3.5,0,0,1,3.2.118,2.851,2.851,0,0,1,1.1,1.4,6.619,6.619,0,0,1,.387,2.468,6.1,6.1,0,0,1-.395,2.359,2.9,2.9,0,0,1-1.1,1.385,3.033,3.033,0,0,1-1.657.45,3.78,3.78,0,0,1-.989-.125,2.489,2.489,0,0,1-.836-.393,2.7,2.7,0,0,1-.65-.69h-.094v3.7Zm3.5-3.685a2.3,2.3,0,0,0,1.238-.3,1.8,1.8,0,0,0,.712-.946,4.962,4.962,0,0,0,.231-1.647v-.327a4.886,4.886,0,0,0-.246-1.71,1.747,1.747,0,0,0-.721-.919,2.264,2.264,0,0,0-1.168-.28,2.153,2.153,0,0,0-1.244.334,1.878,1.878,0,0,0-.712,1,5.113,5.113,0,0,0-.226,1.625v.234a5.157,5.157,0,0,0,.164,1.416,2.331,2.331,0,0,0,.463.905,1.666,1.666,0,0,0,.69.478,2.36,2.36,0,0,0,.82.139" transform="translate(36.684 26.717)" fill="#2c005f"/>
    <path id="Trazado_20" data-name="Trazado 20" d="M72.662,57.117v-8.14h1.1l.124,1.346h.108a3.336,3.336,0,0,1,.34-.735,1.751,1.751,0,0,1,.588-.573,1.731,1.731,0,0,1,.915-.224,2.247,2.247,0,0,1,.424.039,1.261,1.261,0,0,1,.288.085v1.254h-.511a2.122,2.122,0,0,0-.905.178,1.67,1.67,0,0,0-.628.5,2.17,2.17,0,0,0-.364.774,3.827,3.827,0,0,0-.116.96v4.534Z" transform="translate(39.789 26.717)" fill="#2c005f"/>
    <path id="Trazado_21" data-name="Trazado 21" d="M79.389,57.3a4.326,4.326,0,0,1-2.082-.457,2.964,2.964,0,0,1-1.285-1.4,6.76,6.76,0,0,1,0-4.8,2.971,2.971,0,0,1,1.285-1.394,4.973,4.973,0,0,1,4.163,0,2.926,2.926,0,0,1,1.277,1.394,6.873,6.873,0,0,1,0,4.8,2.919,2.919,0,0,1-1.277,1.4,4.326,4.326,0,0,1-2.081.457m0-1.145a2.56,2.56,0,0,0,1.317-.31,1.924,1.924,0,0,0,.8-.967,4.418,4.418,0,0,0,.271-1.662v-.342a4.408,4.408,0,0,0-.271-1.671,1.938,1.938,0,0,0-.8-.96,2.966,2.966,0,0,0-2.639,0,1.875,1.875,0,0,0-.8.96,4.515,4.515,0,0,0-.263,1.671v.342a4.525,4.525,0,0,0,.263,1.662,1.863,1.863,0,0,0,.8.967,2.582,2.582,0,0,0,1.322.31" transform="translate(41.388 26.717)" fill="#2c005f"/>
    <path id="Trazado_22" data-name="Trazado 22" d="M81.582,57.117v-8.14h1.1L82.8,50.2h.107a3.207,3.207,0,0,1,.7-.8,2.631,2.631,0,0,1,.85-.457,3.3,3.3,0,0,1,1.007-.147,2.76,2.76,0,0,1,1.362.317,1.919,1.919,0,0,1,.85,1.091h.094a2.679,2.679,0,0,1,1.548-1.254,3.29,3.29,0,0,1,1.021-.155,3.1,3.1,0,0,1,1.3.255,1.867,1.867,0,0,1,.873.836,3.242,3.242,0,0,1,.319,1.555v5.68H91.471V51.654a2.429,2.429,0,0,0-.118-.82,1.1,1.1,0,0,0-.331-.5,1.308,1.308,0,0,0-.5-.255,2.342,2.342,0,0,0-.61-.077,1.888,1.888,0,0,0-1,.279,2.027,2.027,0,0,0-.734.8,2.648,2.648,0,0,0-.279,1.254v4.782H86.534V51.654a2.341,2.341,0,0,0-.124-.82,1.266,1.266,0,0,0-.325-.5,1.187,1.187,0,0,0-.487-.255A2.3,2.3,0,0,0,85,50a1.974,1.974,0,0,0-1.78,1.083,2.63,2.63,0,0,0-.279,1.254v4.782Z" transform="translate(44.674 26.717)" fill="#2c005f"/>
    <path id="Trazado_23" data-name="Trazado 23" d="M90.182,46.94h1.362v1.517H90.182Zm0,3.05h1.362v8.14H90.182Z" transform="translate(49.383 25.704)" fill="#2c005f"/>
    <path id="Trazado_24" data-name="Trazado 24" d="M95.465,57.3a5.72,5.72,0,0,1-1.47-.17,2.941,2.941,0,0,1-1.052-.5,2.17,2.17,0,0,1-.635-.774,2.308,2.308,0,0,1-.217-1.021v-.149a.353.353,0,0,1,.015-.115h1.346a.432.432,0,0,0-.015.108v.093a1.3,1.3,0,0,0,.286.851,1.439,1.439,0,0,0,.751.433,4.3,4.3,0,0,0,1.068.124,3.215,3.215,0,0,0,.944-.132,1.506,1.506,0,0,0,.687-.4,1.069,1.069,0,0,0-.076-1.47,2.4,2.4,0,0,0-.874-.426c-.361-.1-.737-.212-1.13-.325-.33-.094-.661-.2-.99-.31a4.218,4.218,0,0,1-.89-.418,1.936,1.936,0,0,1-.635-.642,1.889,1.889,0,0,1-.241-1,1.988,1.988,0,0,1,.226-.96,2.066,2.066,0,0,1,.642-.712,3.026,3.026,0,0,1,1.014-.443,5.624,5.624,0,0,1,1.323-.145,4.852,4.852,0,0,1,1.354.17,2.79,2.79,0,0,1,.967.48,1.977,1.977,0,0,1,.573.7,1.953,1.953,0,0,1,.186.843v.178a.469.469,0,0,1-.015.132H97.275v-.17a1.2,1.2,0,0,0-.163-.6,1.154,1.154,0,0,0-.557-.464,2.731,2.731,0,0,0-1.091-.178,3.744,3.744,0,0,0-.774.07,1.532,1.532,0,0,0-.542.217,1.024,1.024,0,0,0-.325.34.9.9,0,0,0-.108.441.758.758,0,0,0,.263.619,2.124,2.124,0,0,0,.7.356q.441.139.952.31l1.107.317a5.569,5.569,0,0,1,1.037.41,2.044,2.044,0,0,1,.758.673,1.98,1.98,0,0,1,.286,1.122,2.447,2.447,0,0,1-.248,1.13,2.1,2.1,0,0,1-.7.789,3.239,3.239,0,0,1-1.068.457,5.75,5.75,0,0,1-1.339.147" transform="translate(50.428 26.723)" fill="#2c005f"/>
    <path id="Trazado_25" data-name="Trazado 25" d="M101.038,57.3a4.326,4.326,0,0,1-2.082-.457,2.964,2.964,0,0,1-1.285-1.4,6.76,6.76,0,0,1,0-4.8,2.971,2.971,0,0,1,1.285-1.394,4.974,4.974,0,0,1,4.163,0,2.926,2.926,0,0,1,1.277,1.394,6.873,6.873,0,0,1,0,4.8,2.92,2.92,0,0,1-1.277,1.4,4.326,4.326,0,0,1-2.082.457m0-1.145a2.56,2.56,0,0,0,1.317-.31,1.925,1.925,0,0,0,.8-.967,4.418,4.418,0,0,0,.271-1.662v-.342a4.409,4.409,0,0,0-.271-1.671,1.938,1.938,0,0,0-.8-.96,2.966,2.966,0,0,0-2.639,0,1.875,1.875,0,0,0-.8.96,4.515,4.515,0,0,0-.263,1.671v.342a4.525,4.525,0,0,0,.263,1.662,1.863,1.863,0,0,0,.8.967,2.582,2.582,0,0,0,1.322.31" transform="translate(53.243 26.717)" fill="#2c005f"/>
    <path id="Trazado_26" data-name="Trazado 26" d="M150.023,34.484a5.063,5.063,0,1,1-5.062-5.062,5.062,5.062,0,0,1,5.062,5.062" transform="translate(76.606 16.111)" fill="#0dd3ff"/>
    <path id="Trazado_27" data-name="Trazado 27" d="M147.474,53.3a12.528,12.528,0,0,1-5.434-4.123A11.252,11.252,0,0,1,139.9,42.6h10.138a4.914,4.914,0,0,0,1.506,3.315,4.831,4.831,0,0,0,3.341,1.142,5.228,5.228,0,0,0,3.343-.975,3.256,3.256,0,0,0,1.226-2.7,3.2,3.2,0,0,0-.975-2.4,7.857,7.857,0,0,0-2.394-1.56,38.711,38.711,0,0,0-4.041-1.393,43.98,43.98,0,0,1-6.184-2.34,11.421,11.421,0,0,1-4.121-3.454,9.624,9.624,0,0,1-1.727-5.961,10.25,10.25,0,0,1,3.954-8.552q3.958-3.092,10.308-3.092,6.463,0,10.418,3.092a11.072,11.072,0,0,1,4.233,8.608H158.615a4.03,4.03,0,0,0-1.391-2.981,4.91,4.91,0,0,0-3.287-1.086,4.094,4.094,0,0,0-2.786.919,3.536,3.536,0,0,0,.724,5.6,29.2,29.2,0,0,0,5.57,2.284,51.668,51.668,0,0,1,6.158,2.451,11.746,11.746,0,0,1,4.093,3.4,9.089,9.089,0,0,1,1.729,5.738,11.27,11.27,0,0,1-1.7,6.073,11.905,11.905,0,0,1-4.932,4.346,16.872,16.872,0,0,1-7.631,1.616,20.107,20.107,0,0,1-7.688-1.393" transform="translate(76.606 8.012)" fill="#2c005f"/>
    <path id="Trazado_28" data-name="Trazado 28" d="M141.712,39.08a4.046,4.046,0,1,1-4.047-4.047,4.047,4.047,0,0,1,4.047,4.047" transform="translate(73.169 19.184)" fill="#0dd3ff"/>
    <path id="Trazado_29" data-name="Trazado 29" d="M162.289,24.008a5.15,5.15,0,1,1-5.15-5.15,5.15,5.15,0,0,1,5.15,5.15" transform="translate(83.228 10.326)" fill="#ff4a35"/>
    <path id="Trazado_30" data-name="Trazado 30" d="M135.539,15.276a4.767,4.767,0,1,1-4.767-4.767,4.767,4.767,0,0,1,4.767,4.767" transform="translate(69 5.754)" fill="#0dd3ff"/>
    <path id="Trazado_31" data-name="Trazado 31" d="M141.833,46.788v8.078h-4.849q-5.179,0-8.078-2.535t-2.9-8.273V13.6h9.529v7.577h6.24v7.911h-6.24V44.169a2.611,2.611,0,0,0,.667,2.006,3.257,3.257,0,0,0,2.23.613Z" transform="translate(69.001 7.444)" fill="#2c005f"/>
  </g>
</svg>
