<svg id="Capa_1" data-name="Capa 1" xmlns="http://www.w3.org/2000/svg" viewBox="0 0 163.21 40.72"><defs><style>.cls-1{fill:#3f84fb;}.cls-2{fill:#ffd23b;}.cls-3{fill:#2e3033;}.cls-4{fill:#868686;}</style></defs><path id="Union_16" data-name="Union 16" class="cls-1" d="M0,28.76v-10H30.82v10ZM0,0H8.55a6.87,6.87,0,0,0,6.86,6.87h0A6.87,6.87,0,0,0,22.27,0h8.55A15.45,15.45,0,0,1,15.41,15.42,15.45,15.45,0,0,1,0,0Z"/><path id="Intersection_2" data-name="Intersection 2" class="cls-2" d="M18.26.2V.26a2.84,2.84,0,0,1-2.87,2.8,2.84,2.84,0,0,1-2.8-2.8V.2Z"/><path id="Union_17" data-name="Union 17" class="cls-3" d="M128.89,17.7c0-5,3.17-8.4,8-8.4s8,3.21,8,8.05a12,12,0,0,1-.12,1.69H133.16c.29,2.25,1.48,3.67,3.83,3.67a4.94,4.94,0,0,0,3.92-1.9L144,22.39a8.18,8.18,0,0,1-7,3.5C132.15,25.89,128.89,22.63,128.89,17.7Zm4.27-1.4h7.45c-.3-2.43-1.58-3.83-3.74-3.83s-3.39,1.4-3.71,3.83Zm-14.64,4.55V4.91h4V9.6h4.72v3.29h-4.72V20a2.19,2.19,0,0,0,2.2,2.41,6.86,6.86,0,0,0,2.76-.54v3.27a10.63,10.63,0,0,1-4.06.74,4.72,4.72,0,0,1-4.93-5Zm-19-1.22V9.6h4V19a3.46,3.46,0,0,0,6.89.39,2.54,2.54,0,0,0,0-.39V9.6h4v16h-3.89l-.06-2a6,6,0,0,1-4.93,2.26c-3.61,0-6.07-2.49-6.07-6.26ZM82.83,17.58c0-5,3.45-8.28,8.61-8.28a8.78,8.78,0,0,1,5.49,1.84l-2.28,2.73a4.59,4.59,0,0,0-3.15-1.13c-2.67,0-4.48,1.93-4.48,4.84s1.78,4.84,4.51,4.84A4.68,4.68,0,0,0,95.15,21l2.29,2.67a8.39,8.39,0,0,1-6.09,2.23C86.25,25.89,82.83,22.57,82.83,17.58Zm-19.09,0c0-5,3.45-8.28,8.58-8.28s8.55,3.32,8.55,8.28-3.45,8.31-8.55,8.31-8.58-3.32-8.58-8.31Zm4.18,0c0,2.91,1.76,4.84,4.4,4.84s4.36-1.93,4.36-4.84-1.75-4.84-4.36-4.84-4.4,1.93-4.4,4.84Zm91.25,8V16.18c0-2.07-1.48-3.44-3.74-3.44s-3.74,1.37-3.74,3.44v9.41h-4V9.6h3.89l.06,2a6.54,6.54,0,0,1,5.23-2.31c3.82,0,6.38,2.49,6.38,6.23V25.59Zm-117,0v-22h8.64c6.5,0,10.83,4.39,10.83,11s-4.33,11-10.83,11Zm4.19-3.47h4.45c3.89,0,6.47-3,6.47-7.51s-2.58-7.5-6.47-7.5H46.31Z"/><path class="cls-4" d="M96,38.5a1.26,1.26,0,0,1,.24.79,1.16,1.16,0,0,1-.5,1,2.56,2.56,0,0,1-1.46.35H91.82v-5h2.35a2.33,2.33,0,0,1,1.37.35,1.12,1.12,0,0,1,.48,1,1.21,1.21,0,0,1-.18.66,1.11,1.11,0,0,1-.47.44A1.26,1.26,0,0,1,96,38.5Zm-3.28-2.14v1.39h1.32a1.34,1.34,0,0,0,.75-.18.64.64,0,0,0,0-1,1.34,1.34,0,0,0-.75-.18Zm2.59,2.84c0-.49-.37-.73-1.09-.73h-1.5v1.45h1.5C95,39.92,95.34,39.68,95.34,39.2Z"/><path class="cls-4" d="M98.81,40.14a2.27,2.27,0,0,1-.58-1.68V35.63h.93v2.8c0,1,.43,1.47,1.28,1.47s1.27-.49,1.27-1.47v-2.8h.91v2.83a2.31,2.31,0,0,1-.57,1.68,2.55,2.55,0,0,1-3.24,0Z"/><path class="cls-4" d="M109.39,35.63v5h-.77l-2.76-3.4v3.4h-.93v-5h.77l2.76,3.4v-3.4Z"/><path class="cls-4" d="M111.74,35.63h2.19a3.14,3.14,0,0,1,1.43.32,2.21,2.21,0,0,1,1,.88,2.47,2.47,0,0,1,.35,1.31,2.5,2.5,0,0,1-.35,1.32,2.28,2.28,0,0,1-1,.88,3.13,3.13,0,0,1-1.43.31h-2.19Zm2.15,4.23a2.13,2.13,0,0,0,1-.21,1.49,1.49,0,0,0,.64-.6,1.9,1.9,0,0,0,0-1.81,1.45,1.45,0,0,0-.64-.61,2.13,2.13,0,0,0-1-.21h-1.22v3.44Z"/><path class="cls-4" d="M118.66,35.63h.93v4.23h2.63v.79h-3.56Z"/><path class="cls-4" d="M127.72,39.87v.78H124v-5h3.66v.78h-2.73v1.31h2.42v.77h-2.42v1.38Z"/><path class="cls-4" d="M133.69,40.39a2.43,2.43,0,0,1-1-.92,2.59,2.59,0,0,1-.35-1.33,2.51,2.51,0,0,1,1.32-2.25,2.83,2.83,0,0,1,1.37-.33,2.78,2.78,0,0,1,1.13.22,2.32,2.32,0,0,1,.86.62l-.61.57a1.73,1.73,0,0,0-1.34-.59,1.87,1.87,0,0,0-.92.22,1.68,1.68,0,0,0-.64.63,1.92,1.92,0,0,0,0,1.82,1.62,1.62,0,0,0,.64.63,1.87,1.87,0,0,0,.92.22,1.73,1.73,0,0,0,1.34-.59l.61.57a2.38,2.38,0,0,1-.87.63,3,3,0,0,1-1.13.21A2.86,2.86,0,0,1,133.69,40.39Z"/><path class="cls-4" d="M139,35.63h.94v4.23h2.62v.79H139Z"/><path class="cls-4" d="M145.12,40.39a2.41,2.41,0,0,1-1-.93,2.56,2.56,0,0,1,1-3.57,3.05,3.05,0,0,1,2.76,0,2.56,2.56,0,0,1,0,4.5,3.05,3.05,0,0,1-2.76,0Zm2.28-.71a1.59,1.59,0,0,0,.63-.63,1.9,1.9,0,0,0,0-1.81,1.68,1.68,0,0,0-.63-.64,1.79,1.79,0,0,0-.9-.22,1.82,1.82,0,0,0-.9.22,1.68,1.68,0,0,0-.63.64,1.9,1.9,0,0,0,0,1.81,1.59,1.59,0,0,0,.63.63,1.82,1.82,0,0,0,.9.22A1.79,1.79,0,0,0,147.4,39.68Z"/><path class="cls-4" d="M151.73,40.14a2.27,2.27,0,0,1-.58-1.68V35.63h.93v2.8c0,1,.43,1.47,1.28,1.47s1.27-.49,1.27-1.47v-2.8h.91v2.83a2.31,2.31,0,0,1-.57,1.68,2.55,2.55,0,0,1-3.24,0Z"/><path class="cls-4" d="M157.85,35.63H160a3.14,3.14,0,0,1,1.43.32,2.24,2.24,0,0,1,1,.88,2.46,2.46,0,0,1,.34,1.31,2.5,2.5,0,0,1-.34,1.32,2.3,2.3,0,0,1-1,.88,3.13,3.13,0,0,1-1.43.31h-2.19ZM160,39.86a2.13,2.13,0,0,0,1-.21,1.51,1.51,0,0,0,.65-.6,2,2,0,0,0,0-1.81,1.48,1.48,0,0,0-.65-.61,2.13,2.13,0,0,0-1-.21h-1.22v3.44Z"/></svg>