<?xml version="1.0" encoding="utf-8"?>
<!-- Generator: Adobe Illustrator 15.0.0, SVG Export Plug-In . SVG Version: 6.00 Build 0)  -->
<!DOCTYPE svg PUBLIC "-//W3C//DTD SVG 1.1//EN" "http://www.w3.org/Graphics/SVG/1.1/DTD/svg11.dtd">
<svg version="1.1" id="Capa_1" xmlns="http://www.w3.org/2000/svg" xmlns:xlink="http://www.w3.org/1999/xlink" x="0px" y="0px"
	 width="362.678px" height="67.969px" viewBox="0 0 362.678 67.969" enable-background="new 0 0 362.678 67.969"
	 xml:space="preserve">
<g>
	<defs>
		<rect id="SVGID_1_" x="9.094" y="9.432" width="341.577" height="61.068"/>
	</defs>
	<clipPath id="SVGID_2_">
		<use xlink:href="#SVGID_1_"  overflow="visible"/>
	</clipPath>
	<path clip-path="url(#SVGID_2_)" fill="#0071BB" d="M78.899,26.65c-2.38,2.439-4.846,4.435-7.389,5.815
		c-2.537,1.393-5.073,2.049-7.479,2.08c-2.416,0.03-4.798-0.516-7.228-1.453c-2.424-0.939-4.863-2.264-7.283-3.793
		c-3.022-1.906-6.381-3.527-10.127-4.473c-1.869-0.472-3.835-0.757-5.846-0.779c-2.009-0.02-4.063,0.233-6.021,0.814
		c-1.959,0.572-3.81,1.471-5.418,2.612c-1.612,1.139-2.987,2.504-4.101,3.988c-1.109,1.49-1.985,3.078-2.615,4.731
		c-0.628,1.646-1.066,3.35-1.135,5.083c1.197-1.231,2.409-2.318,3.639-3.3c1.239-0.971,2.487-1.827,3.76-2.507
		c2.54-1.384,5.067-2.046,7.473-2.074c2.412-0.028,4.792,0.512,7.221,1.448c2.424,0.938,4.862,2.259,7.286,3.782
		c3.026,1.9,6.385,3.521,10.131,4.463c1.867,0.474,3.835,0.75,5.844,0.776c2.007,0.016,4.06-0.234,6.017-0.816
		c1.957-0.575,3.807-1.47,5.413-2.611c1.615-1.134,2.976-2.514,4.099-3.984c1.11-1.488,1.986-3.076,2.618-4.727
		C78.387,30.083,78.827,28.382,78.899,26.65"/>
	<path clip-path="url(#SVGID_2_)" fill="#00ADEE" d="M84.063,12.035c-2.38,2.44-4.846,4.435-7.389,5.816
		c-2.537,1.392-5.073,2.049-7.479,2.08c-2.416,0.029-4.798-0.517-7.228-1.453c-2.424-0.94-4.863-2.265-7.283-3.793
		c-3.022-1.906-6.381-3.528-10.127-4.474c-1.869-0.472-3.835-0.757-5.846-0.778c-2.009-0.021-4.063,0.232-6.021,0.813
		c-1.959,0.573-3.81,1.471-5.418,2.613c-1.612,1.138-2.987,2.504-4.101,3.988c-1.109,1.489-1.985,3.077-2.615,4.73
		c-0.628,1.647-1.066,3.351-1.135,5.083c1.197-1.23,2.409-2.318,3.639-3.299c1.239-0.971,2.487-1.828,3.76-2.507
		c2.54-1.384,5.067-2.046,7.473-2.075c2.412-0.028,4.792,0.512,7.221,1.449c2.424,0.937,4.862,2.259,7.286,3.781
		c3.026,1.9,6.385,3.521,10.131,4.464c1.867,0.473,3.835,0.75,5.844,0.775c2.007,0.017,4.06-0.233,6.017-0.815
		c1.957-0.575,3.807-1.471,5.413-2.612c1.615-1.133,2.976-2.513,4.099-3.984c1.11-1.487,1.986-3.075,2.618-4.726
		C83.551,15.468,83.991,13.768,84.063,12.035"/>
	<path clip-path="url(#SVGID_2_)" fill="#2E3191" d="M73.735,41.265c-2.38,2.44-4.846,4.436-7.389,5.816
		c-2.537,1.392-5.073,2.049-7.479,2.08c-2.416,0.029-4.798-0.517-7.228-1.453c-2.424-0.94-4.863-2.265-7.283-3.793
		c-3.022-1.906-6.381-3.528-10.127-4.474c-1.869-0.472-3.835-0.757-5.846-0.778c-2.009-0.021-4.063,0.232-6.021,0.813
		c-1.959,0.573-3.81,1.472-5.418,2.613c-1.612,1.138-2.987,2.504-4.101,3.988c-1.109,1.489-1.985,3.078-2.615,4.73
		c-0.628,1.647-1.066,3.351-1.135,5.083c1.197-1.23,2.409-2.317,3.639-3.299c1.239-0.971,2.487-1.828,3.76-2.507
		c2.54-1.384,5.067-2.046,7.473-2.075c2.412-0.028,4.792,0.512,7.221,1.449c2.424,0.937,4.862,2.259,7.286,3.782
		c3.026,1.899,6.385,3.52,10.131,4.463c1.867,0.473,3.835,0.75,5.844,0.775c2.007,0.017,4.06-0.233,6.017-0.815
		c1.957-0.575,3.807-1.471,5.413-2.612c1.615-1.133,2.976-2.513,4.099-3.984c1.11-1.487,1.986-3.075,2.618-4.726
		C73.223,44.698,73.664,42.997,73.735,41.265"/>
</g>
<polygon fill="#2E3191" points="121.808,19.925 123.651,12.091 89.587,12.091 79.272,55.96 91.146,55.96 95.294,38.304 
	114.116,38.304 115.959,30.47 97.137,30.47 99.618,19.925 "/>
<g>
	<defs>
		<rect id="SVGID_3_" x="9.094" y="9.432" width="341.577" height="61.068"/>
	</defs>
	<clipPath id="SVGID_4_">
		<use xlink:href="#SVGID_3_"  overflow="visible"/>
	</clipPath>
	<path clip-path="url(#SVGID_4_)" fill="#2E3191" d="M147.783,25.891c-0.402,1.707-1.306,3.038-2.711,3.992
		c-1.407,0.954-3.043,1.431-4.91,1.431h-6.947l2.694-11.389h6.805c2.08,0,3.551,0.517,4.414,1.552
		C147.99,22.511,148.209,23.982,147.783,25.891 M159.729,25.258c0.922-3.997-0.065-7.191-2.96-9.581
		c-2.895-2.391-6.965-3.586-12.211-3.586h-18.716L115.527,55.96h11.91l3.934-16.813h7.196c2.245,0,3.793,0.518,4.644,1.552
		c0.85,1.034,1.016,2.666,0.496,4.896l-0.638,2.651c-0.331,1.445-0.544,2.938-0.638,4.474c-0.095,1.537,0.224,2.617,0.957,3.239
		h12.194l0.142-0.603c-0.78-0.623-1.188-1.657-1.223-3.104c-0.036-1.446,0.088-2.762,0.372-3.947l0.638-2.771
		c0.59-2.511,0.407-4.671-0.55-6.479c-0.957-1.807-2.759-3.113-5.405-3.916c2.859-0.984,5.122-2.265,6.788-3.842
		S159.138,27.709,159.729,25.258"/>
</g>
<polygon fill="#2E3191" points="180.42,12.091 168.617,12.091 158.302,55.96 170.105,55.96 "/>
<g>
	<defs>
		<rect id="SVGID_5_" x="9.094" y="9.432" width="341.577" height="61.068"/>
	</defs>
	<clipPath id="SVGID_6_">
		<use xlink:href="#SVGID_5_"  overflow="visible"/>
	</clipPath>
	<path clip-path="url(#SVGID_6_)" fill="#00ADEE" d="M206.348,30.319l-1.879,7.954c-0.732,3.114-1.914,5.534-3.545,7.261
		c-1.631,1.729-3.722,2.592-6.273,2.592h-6.274l6.628-28.201h3.651c2.954,0,5.157,0.938,6.61,2.816S207.08,27.146,206.348,30.319
		 M218.223,30.38c1.205-5.122,0.028-9.45-3.527-12.986c-3.557-3.535-8.018-5.303-13.381-5.303h-16.342L174.658,55.96h18.964
		c5.718,0,10.604-1.526,14.657-4.579c4.053-3.054,6.74-7.422,8.064-13.107L218.223,30.38z"/>
</g>
<path fill="#00ADEE" d="M240.114,39.599h-9.394l8.047-14.703l0.212,0.03L240.114,39.599z M253.301,55.96l-5.034-43.869h-12.688
	l-25.63,43.869h11.875l4.644-8.527h14.25l0.674,8.527H253.301z"/>
<path fill="#00ADEE" d="M337.484,39.599h-9.395l8.048-14.702l0.212,0.029L337.484,39.599z M350.67,55.96l-5.033-43.869h-12.69
	L307.318,55.96h11.875l4.645-8.527h14.248l0.675,8.527H350.67z"/>
<polygon fill="#00ADEE" points="306.16,55.96 316.475,12.091 300.878,12.091 283.474,42.763 283.261,42.732 280.39,12.091 
	264.828,12.091 254.514,55.96 266.389,55.96 268.941,45.083 272.273,26.493 272.484,26.493 276.277,55.96 284.254,55.96 
	302.119,26.222 302.332,26.282 296.837,45.083 294.285,55.96 "/>
</svg>
