<svg xmlns="http://www.w3.org/2000/svg" width="81" height="72" viewBox="0 0 81 72">
  <g id="Grupo_1290" data-name="Grupo 1290" transform="translate(11526 -3135)">
    <rect id="Rectángulo_141" data-name="Rectángulo 141" width="81" height="72" transform="translate(-11526 3135)" fill="none"/>
    <g id="Grupo_1280" data-name="Grupo 1280" transform="translate(-6539.953 2831.034)">
      <path id="Trazado_26" data-name="Trazado 26" d="M-4919.862,318.607c1.928.634.79,2.295,1.256,3.513.957,0,1.973,0,2.989,0,1.078,0,1.483.39,1.469,1.458-.04,3,.38,2.017-1.69,4.141-.831.853-1.7,1.671-2.513,2.541a1.405,1.405,0,0,0-.352.859c-.031,1.882-.008,3.765-.018,5.647a4.468,4.468,0,0,1-3.01,4.484c-.485.191-.418.494-.418.838q0,8.078,0,16.155c0,4.361.025,8.721-.013,13.082a4.315,4.315,0,0,1-2.745,4.158,4.337,4.337,0,0,1-4.857-.778,4.333,4.333,0,0,1-1.528-3.34c-.02-1.167.011-2.335-.012-3.5a3.269,3.269,0,0,0-2.281-3.135V368c0,.6,0,1.191,0,1.787,0,1.13-.376,1.509-1.486,1.518-.235,0-.471,0-.8,0,0,1.053,0,2.069,0,3.084,0,1.112-.386,1.488-1.512,1.491-1.286,0-2.574-.026-3.859.011a1.494,1.494,0,0,1-1.557-.987c-.486-1.059-1.053-2.081-1.539-3.14a.763.763,0,0,0-.841-.464q-10.149.012-20.3,0a.769.769,0,0,0-.824.494c-.505,1.077-1.072,2.125-1.579,3.2a1.419,1.419,0,0,1-1.466.9c-1.286-.029-2.573-.006-3.859-.009-1.178,0-1.546-.365-1.552-1.523,0-.953-.007-1.906-.013-2.859,0-.042-.035-.083-.082-.194-.3,0-.625.011-.952,0a1.16,1.16,0,0,1-1.239-1.259c0-.1,0-.191,0-.286q0-20.266,0-40.532a7.969,7.969,0,0,1,6.209-8.026,9.924,9.924,0,0,1,2.123-.214c2.238-.026,4.476-.01,6.78-.01l1.472-5.877q.286-1.142.572-2.285a1.2,1.2,0,0,1,1.291-.992c2.167.006,4.335,0,6.5,0a1.175,1.175,0,0,1,1.362,1.072c.679,2.673,1.346,5.349,2.032,8.077,2.322,0,4.629,0,6.937,0A7.875,7.875,0,0,1-4937,322.44a7.829,7.829,0,0,1,3.406,6.586c.029,3.741.008,7.482.008,11.223v21.993c.233.073.454.138.672.212a5.714,5.714,0,0,1,3.9,5.291c.024,1.143,0,2.287.009,3.431a2.3,2.3,0,0,0,2.284,2.415,2.291,2.291,0,0,0,2.285-2.413q.009-14.619.012-29.237a.645.645,0,0,0-.5-.712,4.507,4.507,0,0,1-2.937-4.394c-.005-5.5.008-11.009-.013-16.513,0-.865.2-1.5,1.026-1.656a43.518,43.518,0,0,1,.445-4.82,11.368,11.368,0,0,1,10.731-8.879c1.122-.018,1.528.365,1.532,1.465,0,1.334.007,2.669,0,4-.006.949-.378,1.331-1.327,1.394a4.569,4.569,0,0,0-4.388,4.644C-4919.868,317.186-4919.862,317.9-4919.862,318.607Zm-20.615,45.836c-.7,0-1.317.024-1.933-.009a.7.7,0,0,0-.758.465,3.261,3.261,0,0,1-2.8,1.82,3.428,3.428,0,0,1-3.58-2.752,3.436,3.436,0,0,1,2.127-3.86,3.444,3.444,0,0,1,4.213,1.468c.131.219.335.535.528.553.723.066,1.456.026,2.232.026V329.56c0-1.414-.306-1.721-1.709-1.721h-26.295c-1.425,0-1.731.3-1.731,1.7v39.435h29.707Zm4.6-2.317v-.72q0-16.048,0-32.1a5.727,5.727,0,0,0-6.058-6.045q-13.365,0-26.73,0a5.733,5.733,0,0,0-6.095,6.079q0,19.444,0,38.888v.752h2.287v-.873q0-19.337,0-38.673c0-2.533,1.35-3.885,3.877-3.885h26.516c2.581,0,3.917,1.336,3.917,3.918q0,15.906,0,31.811v.846Zm10.294-41.116c0,5.4-.008,10.706.007,16.017a2.159,2.159,0,0,0,1.464,2.09,2.279,2.279,0,0,0,3.1-2.274q.015-7.681,0-15.362a3.924,3.924,0,0,0-.054-.471Zm-32.282-6.87c-.569,2.284-1.127,4.52-1.7,6.8h8.482c-.569-2.286-1.131-4.536-1.7-6.8Zm35.71,4.534c-.01-2.029-.142-4.017.977-5.8a7.083,7.083,0,0,1,4.693-3.256v-2.229c-4.963.194-9.191,6.306-7.84,11.283Zm-15.96,45.8v4.486h2.2v-4.486Zm-34.33,9.118c.836,0,1.614.01,2.392-.01a.534.534,0,0,0,.4-.208c.351-.655.667-1.329,1.011-2.03h-3.8Zm34.25-2.239H-4942c.349.7.654,1.338.985,1.96a.536.536,0,0,0,.361.265c.818.024,1.638.012,2.46.012Zm-6.838-8.049a1.15,1.15,0,0,0-1.116-1.144,1.147,1.147,0,0,0-1.162,1.169,1.152,1.152,0,0,0,1.151,1.109A1.149,1.149,0,0,0-4945.029,363.3Zm26.33-36.148c.79-.874,2.062-1.352,2.338-2.691h-2.338Z" fill="#fff"/>
      <path id="Trazado_27" data-name="Trazado 27" d="M-4897.239,445.875c-2.167,0-4.336,0-6.5,0-1.031,0-1.433-.4-1.435-1.421q-.009-3.146,0-6.291c0-1.032.4-1.434,1.42-1.435q6.575-.006,13.151,0c1.031,0,1.433.4,1.437,1.42q.009,3.145,0,6.291c0,1.03-.4,1.434-1.421,1.437C-4892.808,445.879-4895.023,445.875-4897.239,445.875Zm-5.619-2.336h11.347v-4.493h-11.347Z" transform="translate(-58.141 -106.598)" fill="#fff"/>
      <path id="Trazado_28" data-name="Trazado 28" d="M-4917.5,499.083h-11.34v-2.208h11.34Z" transform="translate(-39.001 -155.263)" fill="#fff"/>
      <path id="Trazado_29" data-name="Trazado 29" d="M-4845.6,496.9v2.2h-11.346v-2.2Z" transform="translate(-97.165 -155.28)" fill="#fff"/>
      <path id="Trazado_30" data-name="Trazado 30" d="M-4917.484,520.847v2.2h-11.346v-2.2Z" transform="translate(-39.01 -174.658)" fill="#fff"/>
      <path id="Trazado_31" data-name="Trazado 31" d="M-4857.089,522.993v-2.2h11.372v2.2Z" transform="translate(-97.051 -174.615)" fill="#fff"/>
      <path id="Trazado_32" data-name="Trazado 32" d="M-4928.961,546.953v-2.2h11.346v2.2Z" transform="translate(-38.904 -194)" fill="#fff"/>
      <path id="Trazado_33" data-name="Trazado 33" d="M-4857.078,546.946v-2.2h11.346v2.2Z" transform="translate(-97.06 -193.991)" fill="#fff"/>
      <path id="Trazado_34" data-name="Trazado 34" d="M-4917.481,568.773v2.2h-11.346v-2.2Z" transform="translate(-39.012 -213.432)" fill="#fff"/>
      <path id="Trazado_35" data-name="Trazado 35" d="M-4857.036,568.693h11.341V570.9h-11.341Z" transform="translate(-97.094 -213.368)" fill="#fff"/>
    </g>
  </g>
</svg>
