<?xml version="1.0" encoding="utf-8"?><svg xmlns="http://www.w3.org/2000/svg" width="319.7049" height="46" viewBox="0 0 319.7049 46" preserveAspectRatio="xMidYMid meet"><defs><style>.cls-1,.cls-2{fill:#fff;}.cls-2{fill-rule:evenodd;}</style></defs><g id="Capa_1" data-name="Capa 1"><path class="cls-1" d="M317.56,36.5308a1.9558,1.9558,0,0,0-.8985.1609,1.0525,1.0525,0,0,0-.46.5839h-.0293l.0737-.7448h-2.4413v.1164a4.1677,4.1677,0,0,1-.0435.5555c-.0293.2151-.088.5066-.1751.8771l-.9207,3.77a9.4035,9.4035,0,0,1-.27.9572q-.124.344-.2418.5918h2.835v-.1173a4.1828,4.1828,0,0,1,.0444-.5545c.0294-.2142.0871-.5066.1751-.8772l.8621-3.58a.4715.4715,0,0,1,.5261-.3652h.9642c.2435,0,.4506.0017.6212.0071s.3164.0142.4391.0293c.1208.0142.2328.0311.335.0507s.2071.0391.3146.0586l.3653-1.52Zm-6.5613,0H306.235a2.1217,2.1217,0,0,0-1.4033.4382,2.5533,2.5533,0,0,0-.76,1.4032l-.7741,3.1851c-.0293.1369-.0533.2613-.0728.3733a1.9029,1.9029,0,0,0-.0294.3288q0,1.1385,1.3882,1.1393h6.2832L311.35,42.23a4.7226,4.7226,0,0,1-.8327.0871h-4.4275c-.2249,0-.3368-.0827-.3368-.248v-.1173a.357.357,0,0,1,.0293-.1315l.2924-1.2273h5.67l.54-2.2209c.0293-.1368.0533-.26.0737-.3723a2.0127,2.0127,0,0,0,.0285-.33Q312.3867,36.53,310.9985,36.5308ZM309.83,37.9776a.3575.3575,0,0,1-.0293.1316l-.3359,1.4023h-3.1274l.336-1.4023a.8115.8115,0,0,1,.19-.3875.5217.5217,0,0,1,.3653-.1093h2.25c.2337,0,.351.0871.351.263Zm-12.4943-1.4468a1.8224,1.8224,0,0,0-1.278.4462,2.8113,2.8113,0,0,0-.7385,1.4094l-.1893.8336a3.1335,3.1335,0,0,0-.103.759q0,1.1118,1.213,1.1109h3.23q.4386,0,.439.3217a.4374.4374,0,0,1-.0151.1315l-.088.38a.5951.5951,0,0,1-.6576.4533H296.05c-.2346,0-.4319-.0018-.5927-.0072s-.3013-.0124-.4239-.0222a1.9034,1.9034,0,0,1-.3209-.0506c-.0924-.0249-.1875-.0516-.2852-.0809l-.0871,1.1837h5.845a1.93,1.93,0,0,0,2.1187-1.5339l.3946-1.637a1.9738,1.9738,0,0,0,.0586-.4816q0-1.0532-1.4468-1.0523h-3.1274q-.3651,0-.3652-.2781a.4756.4756,0,0,1,.0142-.1315l.0738-.3218a.5089.5089,0,0,1,.5554-.4088h3.2144q.3507,0,.599.0071c.1654.0054.3093.0125.4311.0222a1.8069,1.8069,0,0,1,.3217.0516q.1386.036.2853.08l.0871-1.1838Zm-4.208,0h-6.08L286.61,37.7a4.8326,4.8326,0,0,1,.68-.1236c.1706-.0151.3625-.0222.5767-.0222h3.8286c.2053,0,.3075.0729.3075.22a.3235.3235,0,0,1-.0151.1022l-.1022.4382a.4176.4176,0,0,1-.4533.3217h-3.58a2.7078,2.7078,0,0,0-.8043.1093,1.4934,1.4934,0,0,0-.62.38,2.4967,2.4967,0,0,0-.4826.73,6.7462,6.7462,0,0,0-.3874,1.1615,5.6035,5.6035,0,0,0-.1751,1.2273,1.0594,1.0594,0,0,0,.3359.9136,1.7,1.7,0,0,0,.9945.2408h3.1558a1.2284,1.2284,0,0,0,.6283-.1457,1.6789,1.6789,0,0,0,.5119-.57h.0284l-.0435.7153h2.3533v-.1173a4.1651,4.1651,0,0,1,.0435-.5545c.0285-.2142.088-.5066.1751-.8772l.8478-3.4775c.0294-.1368.0534-.26.0729-.3723a1.9209,1.9209,0,0,0,.0293-.33Q294.5156,36.53,293.1275,36.5308Zm-2.09,5.29a.7707.7707,0,0,1-.1964.3875.5518.5518,0,0,1-.3732.1093h-2.25q-.336,0-.336-.248v-.1173a.3573.3573,0,0,1,.0294-.1315l.3794-1.6077a.8134.8134,0,0,1,.19-.3866.5207.5207,0,0,1,.3653-.1093h2.6892Zm.5706-8.1832-1.8707,2.1338h1.4468l2.659-2.1338Zm-8.4472.41v.1164a4.1677,4.1677,0,0,1-.0435.5555c-.0285.2141-.088.5065-.1751.8771l-1.52,6.2538a9.1385,9.1385,0,0,1-.271.9572c-.0818.2293-.1627.4266-.2409.5918h2.835v-.1173a4.1828,4.1828,0,0,1,.0444-.5545q.0428-.3213.1751-.8772l1.885-7.8028Zm-8.7671,2.4839a1.95,1.95,0,0,0-.8984.1609,1.0447,1.0447,0,0,0-.46.5839h-.0293l.0728-.7448h-2.44v.1164a4.17,4.17,0,0,1-.0436.5555c-.0293.2151-.088.5066-.176.8771l-.92,3.77a9.1593,9.1593,0,0,1-.2711.9572q-.1241.344-.2408.5918h2.8349v-.1173a4.15,4.15,0,0,1,.0436-.5545q.0439-.3213.1759-.8772l.8621-3.58a.4709.4709,0,0,1,.5261-.3652h.9642c.2435,0,.4506.0017.6212.0071s.3164.0142.4382.0293.2337.0311.3359.0507.2071.0391.3137.0586l.3662-1.52Zm-6.5613,0h-4.7644a2.1205,2.1205,0,0,0-1.4023.4382,2.5472,2.5472,0,0,0-.76,1.4032l-.7749,3.1851c-.0285.1369-.0533.2613-.0729.3733a1.9026,1.9026,0,0,0-.0293.3288q0,1.1385,1.389,1.1393h4.7635a2.1191,2.1191,0,0,0,1.4024-.4381,2.5425,2.5425,0,0,0,.76-1.4033l.775-3.1851c.0293-.1368.0533-.26.0728-.3723a1.9212,1.9212,0,0,0,.0294-.33Q269.22,36.53,267.8322,36.5308Zm-1.17,1.4468a.34.34,0,0,1-.0294.1316l-.89,3.7112a.7788.7788,0,0,1-.1973.3875.5522.5522,0,0,1-.3733.1093h-2.25q-.3359,0-.3359-.248v-.1173a.357.357,0,0,1,.0293-.1315l.8914-3.7112a.8034.8034,0,0,1,.19-.3875.5184.5184,0,0,1,.3652-.1093h2.25c.2337,0,.35.0871.35.263Zm-8.0366-1.4468H255.44a.7739.7739,0,0,0-.511.1831,1.4714,1.4714,0,0,0-.3653.4595h-.0293v-.6426h-2.5426v.1164a4.3245,4.3245,0,0,1-.0435.5555c-.0294.2151-.088.5066-.176.8771L249.8581,46h2.6741a4.76,4.76,0,0,1,.0436-.5919c.0293-.2284.0933-.5483.19-.9571l.4239-1.7534h.0586c.0294.1359.0587.2506.0871.343a.5194.5194,0,0,0,.1173.2124.3521.3521,0,0,0,.1831.1164,1.056,1.056,0,0,0,.27.0293h3.0687a2.1191,2.1191,0,0,0,1.4024-.4381,2.5425,2.5425,0,0,0,.76-1.4033l.775-3.1851c.0293-.1368.0533-.26.0728-.3723a1.9212,1.9212,0,0,0,.0294-.33Q260.0143,36.53,258.6261,36.5308Zm-1.17,1.4468a.3578.3578,0,0,1-.0294.1316l-.8914,3.7112a.7707.7707,0,0,1-.1963.3875.5522.5522,0,0,1-.3733.1093h-2.25q-.336,0-.3359-.248v-.1173a.357.357,0,0,1,.0293-.1315l.8914-3.7112a.8043.8043,0,0,1,.19-.3875.5189.5189,0,0,1,.3653-.1093h2.25c.2337,0,.35.0871.35.263ZM243.97,36.5308h-3.1273a.8549.8549,0,0,0-.519.1458,1.8332,1.8332,0,0,0-.4311.5554h-.0293l.1022-.7012h-2.5426v.1164a4.1677,4.1677,0,0,1-.0435.5555c-.0293.2151-.088.5066-.1751.8771l-.9207,3.77a9.3663,9.3663,0,0,1-.271.9572q-.1241.344-.2409.5918h2.835v-.1173a4.1828,4.1828,0,0,1,.0444-.5545q.0428-.3213.1751-.8772l.9056-3.74a.8124.8124,0,0,1,.19-.3875.52.52,0,0,1,.3652-.1093h2.1622c.2338,0,.3511.0871.3511.263v.1022a.36.36,0,0,1-.0293.1316l-.9056,3.74a9.3994,9.3994,0,0,1-.27.9572q-.1239.344-.2417.5918h2.835v-.1173a4.1828,4.1828,0,0,1,.0444-.5545q.0426-.3213.1751-.8772l.8478-3.4775c.0293-.1368.0533-.26.0729-.3723a1.9281,1.9281,0,0,0,.0284-.33Q245.3568,36.53,243.97,36.5308Zm-9.2941,0h-4.7643a2.1192,2.1192,0,0,0-1.4024.4382,2.5422,2.5422,0,0,0-.76,1.4032l-.775,3.1851c-.0284.1369-.0533.2613-.0729.3733a1.9125,1.9125,0,0,0-.0293.3288q0,1.1385,1.389,1.1393h4.7635a2.1191,2.1191,0,0,0,1.4024-.4381,2.5425,2.5425,0,0,0,.76-1.4033l.775-3.1851c.0293-.1368.0533-.26.0729-.3723a1.931,1.931,0,0,0,.0293-.33Q236.0636,36.53,234.6754,36.5308Zm-1.1695,1.4468a.36.36,0,0,1-.0293.1316l-.8914,3.7112a.7715.7715,0,0,1-.1964.3875.5521.5521,0,0,1-.3733.1093h-2.25q-.3358,0-.3359-.248v-.1173a.3591.3591,0,0,1,.0293-.1315l.8914-3.7112a.8043.8043,0,0,1,.19-.3875.5187.5187,0,0,1,.3653-.1093h2.25c.2337,0,.35.0871.35.263Zm-.35-4.34L231.285,35.771h1.4468l2.6591-2.1338Zm-9.0453,2.8936v.1164a4.17,4.17,0,0,1-.0445.5555c-.0293.2151-.087.5066-.175.8771l-.9207,3.77a9.4256,9.4256,0,0,1-.27.9572q-.1239.344-.2417.5918h2.835v-.1173a4.1828,4.1828,0,0,1,.0444-.5545q.0426-.3213.1751-.8772l1.2859-5.3189Zm.7447-2.3088-.3946,1.637h2.4555l.3946-1.637Zm-8.1681,2.3088a1.8232,1.8232,0,0,0-1.2789.4462,2.8108,2.8108,0,0,0-.7376,1.4094l-.19.8336a3.1257,3.1257,0,0,0-.1023.759q0,1.1118,1.2122,1.1109h3.23q.4386,0,.439.3217a.4374.4374,0,0,1-.0151.1315l-.088.38a.5945.5945,0,0,1-.6576.4533h-3.0971c-.2347,0-.4311-.0018-.5919-.0072s-.3022-.0124-.4239-.0222a1.8973,1.8973,0,0,1-.3217-.0506c-.0925-.0249-.1876-.0516-.2844-.0809l-.088,1.1837h5.845a1.93,1.93,0,0,0,2.1187-1.5339l.3946-1.637a1.9689,1.9689,0,0,0,.0586-.4816q0-1.0532-1.4468-1.0523h-3.1273q-.3654,0-.3653-.2781a.4374.4374,0,0,1,.0151-.1315l.0729-.3218a.5089.5089,0,0,1,.5554-.4088h3.2145q.3505,0,.599.0071c.1662.0054.31.0125.431.0222a1.8069,1.8069,0,0,1,.3217.0516q.1386.036.2853.08l.0871-1.1838Zm-5.5677,0v.1164a4.3085,4.3085,0,0,1-.0436.5555c-.0293.2151-.088.5066-.1759.8771l-.9208,3.77a9.4035,9.4035,0,0,1-.27.9572c-.0827.2293-.1635.4266-.2409.5918h2.835v-.1173a4.15,4.15,0,0,1,.0436-.5545q.0439-.3213.175-.8772l1.286-5.3189Zm.7447-2.3088-.3937,1.637h2.4546l.3946-1.637Zm-7.394,2.3088a2.119,2.119,0,0,0-1.4024.4382,2.5422,2.5422,0,0,0-.76,1.4032l-.7749,3.1851c-.0294.1369-.0533.2613-.0729.3733a1.9026,1.9026,0,0,0-.0293.3288q0,1.1385,1.3881,1.1393h5.29l.4826-1.1686a4.7143,4.7143,0,0,1-.8327.0871h-3.434q-.336,0-.3359-.248v-.1173a.3416.3416,0,0,1,.0293-.1315l.8905-3.7112a.8206.8206,0,0,1,.19-.3875.5215.5215,0,0,1,.3652-.1093h3.434a4.1137,4.1137,0,0,1,.7892.0871l.0737-1.1687Zm-4.4418,0h-4.7644a2.1172,2.1172,0,0,0-1.4023.4382,2.5416,2.5416,0,0,0-.76,1.4032l-.7749,3.1851c-.0294.1369-.0534.2613-.0729.3733a1.9026,1.9026,0,0,0-.0293.3288q0,1.1385,1.3881,1.1393h6.2841l.4817-1.1686a4.7236,4.7236,0,0,1-.8328.0871h-4.4275c-.224,0-.3368-.0827-.3368-.248v-.1173a.357.357,0,0,1,.0293-.1315l.2924-1.2273h5.67l.54-2.2209c.03-.1368.0542-.26.0737-.3723a1.9184,1.9184,0,0,0,.0285-.33Q201.4156,36.53,200.0283,36.5308Zm-1.1695,1.4468a.3578.3578,0,0,1-.0294.1316l-.3359,1.4023h-3.1274l.336-1.4023a.8206.8206,0,0,1,.19-.3875.5219.5219,0,0,1,.3653-.1093h2.25c.2337,0,.3511.0871.3511.263Zm-7.9637-1.4468a1.9569,1.9569,0,0,0-.8994.1609,1.0477,1.0477,0,0,0-.4595.5839h-.0293l.0729-.7448h-2.44v.1164a4.1528,4.1528,0,0,1-.0436.5555c-.0293.2151-.0879.5066-.1759.8771l-.9207,3.77a9.1948,9.1948,0,0,1-.27.9572c-.0827.2293-.1635.4266-.2408.5918h2.8349v-.1173a4.1671,4.1671,0,0,1,.0436-.5545q.0439-.3213.1751-.8772l.8629-3.58a.471.471,0,0,1,.5261-.3652h.9643c.2435,0,.45.0017.6212.0071s.3163.0142.4381.0293.2337.0311.3359.0507.2071.0391.3137.0586l.3662-1.52Zm-6.5614,0h-3.186a.7741.7741,0,0,0-.511.1831,1.4728,1.4728,0,0,0-.3653.4595h-.0293v-.6426H177.7v.1164a4.185,4.185,0,0,1-.0444.5555c-.0293.2151-.0871.5066-.1751.8771L175.5657,46H178.24a4.7578,4.7578,0,0,1,.0435-.5919,9.7058,9.7058,0,0,1,.19-.9571l.4239-1.7534h.0587c.0293.1359.0586.2506.0871.343a.5172.5172,0,0,0,.1173.2124.353.353,0,0,0,.1821.1164,1.069,1.069,0,0,0,.2711.0293h3.0687a2.1191,2.1191,0,0,0,1.4024-.4381,2.5425,2.5425,0,0,0,.76-1.4033l.775-3.1851c.0293-.1368.0533-.26.0729-.3723a1.931,1.931,0,0,0,.0293-.33Q185.7219,36.53,184.3337,36.5308Zm-1.1695,1.4468a.36.36,0,0,1-.0293.1316l-.8914,3.7112a.7715.7715,0,0,1-.1964.3875.5522.5522,0,0,1-.3733.1093h-2.25q-.3358,0-.3359-.248v-.1173a.3591.3591,0,0,1,.0293-.1315l.8914-3.7112a.8043.8043,0,0,1,.19-.3875.5186.5186,0,0,1,.3652-.1093h2.25c.2338,0,.35.0871.35.263Zm-13.312-1.4468h-4.7643a2.1192,2.1192,0,0,0-1.4024.4382,2.5422,2.5422,0,0,0-.76,1.4032l-.775,3.1851c-.0284.1369-.0533.2613-.0729.3733a1.9125,1.9125,0,0,0-.0293.3288q0,1.1385,1.3891,1.1393h6.2831l.4826-1.1686a4.7317,4.7317,0,0,1-.8336.0871h-4.4276q-.3359,0-.3359-.248v-.1173a.3591.3591,0,0,1,.0293-.1315l.2924-1.2273h5.67l.54-2.2209c.0293-.1368.0533-.26.0729-.3723a1.931,1.931,0,0,0,.0293-.33Q171.24,36.53,169.8522,36.5308Zm-1.1695,1.4468a.36.36,0,0,1-.0293.1316l-.336,1.4023H165.191l.3359-1.4023a.8043.8043,0,0,1,.19-.3875.5186.5186,0,0,1,.3652-.1093h2.25c.2337,0,.35.0871.35.263ZM160.28,34.0469v.1164a4.1528,4.1528,0,0,1-.0436.5555c-.0284.2141-.0879.5065-.175.8771l-.3946,1.6361h-.0587c-.0293-.136-.0578-.2506-.0871-.343a.5165.5165,0,0,0-.1173-.2124.5616.5616,0,0,0-.4532-.1458h-3.0687a2.119,2.119,0,0,0-1.4024.4382,2.5422,2.5422,0,0,0-.76,1.4032l-.7749,3.1851c-.0284.1369-.0533.2613-.0729.3733a1.9125,1.9125,0,0,0-.0293.3288q0,1.1385,1.3882,1.1393h3.186a.7732.7732,0,0,0,.511-.1821,1.4853,1.4853,0,0,0,.3652-.46h.0294v.6425h2.5426v-.1173a4.1828,4.1828,0,0,1,.0444-.5545q.0426-.3213.1751-.8772l1.8849-7.8028Zm-.8034,3.9307a.36.36,0,0,1-.0293.1316l-.8914,3.7112a.7715.7715,0,0,1-.1964.3875.5521.5521,0,0,1-.3733.1093h-2.25q-.3358,0-.3359-.248v-.1173a.3591.3591,0,0,1,.0293-.1315l.8914-3.7112a.8043.8043,0,0,1,.19-.3875.5176.5176,0,0,1,.3644-.1093h2.251c.2338,0,.35.0871.35.263Zm-13.312-1.4468H141.4a2.1192,2.1192,0,0,0-1.4024.4382,2.5422,2.5422,0,0,0-.76,1.4032l-.775,3.1851c-.0284.1369-.0533.2613-.0729.3733a1.9125,1.9125,0,0,0-.0293.3288q0,1.1385,1.3891,1.1393h6.2831l.4826-1.1686a4.7317,4.7317,0,0,1-.8336.0871h-4.4276q-.3359,0-.3359-.248v-.1173a.3591.3591,0,0,1,.0293-.1315l.2924-1.2273h5.6691l.5412-2.2209c.0293-.1368.0533-.26.0729-.3723a1.931,1.931,0,0,0,.0293-.33Q147.5528,36.53,146.1646,36.5308Zm-1.1695,1.4468a.36.36,0,0,1-.0293.1316l-.3359,1.4023h-3.1265l.3359-1.4023a.8043.8043,0,0,1,.19-.3875.5187.5187,0,0,1,.3653-.1093h2.25c.2337,0,.35.0871.35.263Zm-9.2346-.4239h2.4689l.2488-1.0229h-2.47l.4239-1.7392-2.6306.3368-.3359,1.4024h-1.3295l-.2488,1.0229h1.33l-.9358,3.9014a2.9635,2.9635,0,0,0-.1022.7457,1.1242,1.1242,0,0,0,.343.9136,1.4618,1.4618,0,0,0,.9571.2843h3.7415l.5261-1.2415a1.51,1.51,0,0,1-.5261.1164,8.9906,8.9906,0,0,1-.95.0436h-1.0372a.6975.6975,0,0,1-.3732-.08.3129.3129,0,0,1-.1235-.2853,1.6608,1.6608,0,0,1,.0435-.3359Zm-5.7579-1.0229a1.9532,1.9532,0,0,0-.8985.1609,1.045,1.045,0,0,0-.46.5839h-.0293l.0728-.7448h-2.44v.1164a4.1677,4.1677,0,0,1-.0435.5555c-.0293.2151-.088.5066-.1751.8771l-.9207,3.77a9.3733,9.3733,0,0,1-.27.9572c-.0835.2293-.1635.4266-.2417.5918h2.835v-.1173a4.1651,4.1651,0,0,1,.0435-.5545q.0441-.3213.176-.8772l.8621-3.58a.4715.4715,0,0,1,.5261-.3652h.9642c.2435,0,.4506.0017.6212.0071s.3164.0142.4382.0293.2337.0311.3359.0507.2071.0391.3146.0586l.3652-1.52Zm-6.5613,0h-4.7635a2.1214,2.1214,0,0,0-1.4032.4382,2.5472,2.5472,0,0,0-.76,1.4032l-.7741,3.1851c-.0293.1369-.0542.2613-.0728.3733a1.818,1.818,0,0,0-.0294.3288q0,1.1385,1.3882,1.1393H121.79a2.1177,2.1177,0,0,0,1.4024-.4381,2.5425,2.5425,0,0,0,.76-1.4033l.775-3.1851c.0293-.1368.0533-.26.0728-.3723a1.9212,1.9212,0,0,0,.0294-.33Q124.83,36.53,123.4413,36.5308Zm-1.1687,1.4468a.3575.3575,0,0,1-.0293.1316l-.8914,3.7112a.778.778,0,0,1-.1972.3875.5506.5506,0,0,1-.3733.1093h-2.25q-.336,0-.3359-.248v-.1173a.357.357,0,0,1,.0293-.1315l.8914-3.7112a.8115.8115,0,0,1,.19-.3875.5189.5189,0,0,1,.3653-.1093h2.25c.2337,0,.351.0871.351.263Zm-11.091-3.9307a2.3559,2.3559,0,0,0-1.5055.46,2.4908,2.4908,0,0,0-.8185,1.4389L107.513,41.5a3.06,3.06,0,0,0-.0871.6719q0,1.2276,1.5046,1.2272h5.4362l.57-1.4174a2.7412,2.7412,0,0,1-.7812.183q-.4173.036-.7234.0365H110.611q-.4239,0-.4239-.2924a1.0431,1.0431,0,0,1,.0444-.2631l1.4024-5.845a.7651.7651,0,0,1,.2195-.4381.69.69,0,0,1,.4382-.1173h2.8207q.3066,0,.7083.0364a1.9393,1.9393,0,0,1,.6941.1831l.1022-1.4175Z"/><path class="cls-2" d="M118.1392,32.3873l1.2531-6.7794H103.8388a2.88,2.88,0,0,1-2.5379-.883c-.654-.7587-.4875-1.3173-.3079-2.4175l.4072-2.496,10.8161.0257,1.26-6.9493h-6.9288l-3.756-.0054.5071-2.4829c.2043-1.085.2878-1.98,1.0668-2.6251s2.6439-.6244,3.6384-.6219l14.7593.05L124.0912.4149,103.4381.257a5.4666,5.4666,0,0,0-4.2652,1.7771c-1.1349,1.4375-1.6924,4.2756-1.91,5.4023L92.4481,32.3253Z"/><path class="cls-2" d="M94.0192,7.1525H76.8942A2.58,2.58,0,0,0,75.458,7.57a3.1034,3.1034,0,0,0-.5544.4636,4.005,4.005,0,0,0-1.0629,2.0676,2.701,2.701,0,0,0,.2772,1.9685,1.8168,1.8168,0,0,0,1.6977.8182H85.9109a6.2826,6.2826,0,0,1,5.88,3.0562,9.5157,9.5157,0,0,1,.8576,6.7693,13.0229,13.0229,0,0,1-3.4037,6.7691,9.4168,9.4168,0,0,1-7.0293,3.0564H63.8586l1.2882-6.85H82.3439a2.49,2.49,0,0,0,1.9145-.9078,4.3105,4.3105,0,0,0,1.0233-2.0946,3.0036,3.0036,0,0,0-.2219-2.0225,1.6866,1.6866,0,0,0-1.6153-.8273H73.3313a6.3964,6.3964,0,0,1-5.9386-3.0294,9.2707,9.2707,0,0,1-.8948-6.715,12.6927,12.6927,0,0,1,3.4138-6.6792A9.5877,9.5877,0,0,1,76.9948.3564H95.2973Z"/><polygon class="cls-2" points="284.2 32.559 277.089 32.559 283.141 0.377 290.252 0.377 284.2 32.559"/><path class="cls-2" d="M274.14,32.5594H258.4087a8.23,8.23,0,0,1-8.027-4.9264q-2.1213-4.4226-.8979-10.9042A24.0657,24.0657,0,0,1,254.5961,5.51Q258.88.3724,264.4611.377h15.7315l-1.2781,6.796H264.37q-2.63,0-4.661,2.7958a15.2266,15.2266,0,0,0-2.5026,6.1847,13.0461,13.0461,0,0,0,.1746,6.4815q.9816,2.9529,3.5266,2.9484h14.545Z"/><polygon class="cls-2" points="244.088 32.559 236.978 32.559 243.03 0.377 250.141 0.377 244.088 32.559"/><path class="cls-2" d="M234.029,32.5594H221.2011q-6.0816,0-9.0621-3.0565a10.4021,10.4021,0,0,1-2.7278-6.5263,21.19,21.19,0,0,1,.3465-5.9063c.0913-.4854.1663-.836.2125-1.0336a3.3434,3.3434,0,0,1,.1642-.54L212.978.377h7.1109l-2.8436,15.12a11.8815,11.8815,0,0,0,.4146,6.8771,4.8925,4.8925,0,0,0,4.8531,3.2091h12.8279Z"/><path class="cls-2" d="M176.8865,7.173H164.2134q-2.6287,0-4.661,2.7958a15.2266,15.2266,0,0,0-2.5026,6.1847,13.0461,13.0461,0,0,0,.1746,6.4815q.9817,2.9529,3.5266,2.9484l2.7991.1259h3.5239a2.49,2.49,0,0,0,1.9145-.9078,4.311,4.311,0,0,0,1.0233-2.0946,3.0038,3.0038,0,0,0-.2219-2.0226,1.7233,1.7233,0,0,0-1.6153-.8272l-6.4012-.15,4.1841-6.799h4.6835a6.2824,6.2824,0,0,1,5.88,3.0562,9.5157,9.5157,0,0,1,.8576,6.7693,13.0225,13.0225,0,0,1-3.4037,6.769,9.4166,9.4166,0,0,1-7.0293,3.0565h-8.6928a8.23,8.23,0,0,1-8.0269-4.9264q-2.1214-4.4226-.898-10.9042A24.0677,24.0677,0,0,1,154.44,5.51Q158.7233.3724,164.305.377h15.7224Z"/><path class="cls-2" d="M139.5537,32.4682c-.9684-4.5489-1.13-7.3205-2.3152-9.8537a4.7267,4.7267,0,0,0-4.59-2.7779h-3.0763l-.6657,3.77-1.7332,8.8522-6.9166.009L122.1516,22.24c1.6428-8.8645,1.7591-9.3526,1.7864-9.3526l14.1481-.0234c2.2256-.015,4.1952-1.0247,4.1417-2.9176s-.5488-2.684-4.2134-2.6805l-13.0552.0134L126.22.44,142.74.34c6.7949-.0412,8.0017,7.0117,5.9646,11.7962s-6.1045,7.3841-5.881,7.7363l3.4832,11.06.8219,1.5361Z"/><path class="cls-2" d="M27.7132,32.5383H14.8852q-6.0816,0-9.062-3.0565a10.4022,10.4022,0,0,1-2.7279-6.5263,21.1941,21.1941,0,0,1,.3466-5.9063c1.0445-5.5541,2.174-11.13,3.22-16.6933H13.773l-2.8436,15.12a11.8814,11.8814,0,0,0,.4147,6.8771,4.8924,4.8924,0,0,0,4.8531,3.2091H29.0251Z"/><path class="cls-2" d="M208.8367,32.3083h-7.614L197.4807,7.56c-.005-.2608-.1593-.3957-.4831-.3957a.8774.8774,0,0,0-.7305.3957l-2.42,4.6948L191.4263,16.95l5.0741.039.9481,6.9025-9.6541.0407-4.3981,8.3766h-7.7128q1.0782-2.2926,4.5443-9.1064,3.4542-6.8232,6.6528-12.909a83.37,83.37,0,0,1,4.2017-7.5242A7.683,7.683,0,0,1,194.2382.71a11.7719,11.7719,0,0,1,4.08-.71,9.5392,9.5392,0,0,1,3.8037.71,4.56,4.56,0,0,1,2.3728,2.0586q.4324.7823,1.4356,7.47.6156,4.1125,1.7345,12.9088Q208.3464,28.4878,208.8367,32.3083Z"/><path class="cls-2" d="M319.7049,32.3083h-7.614L308.349,7.56c-.0051-.2608-.1594-.3957-.4832-.3957a.8771.8771,0,0,0-.73.3957l-2.42,4.6948-2.42,4.6944,5.0742.039.948,6.9025-9.6541.0407-4.3981,8.3766h-7.7128q1.0782-2.2926,4.5443-9.1064,3.4542-6.8232,6.6528-12.909a83.3276,83.3276,0,0,1,4.2018-7.5242A7.682,7.682,0,0,1,305.1064.71a11.7719,11.7719,0,0,1,4.08-.71A9.54,9.54,0,0,1,312.99.71a4.56,4.56,0,0,1,2.3728,2.0586q.4324.7823,1.4356,7.47.6157,4.1125,1.7345,12.9088Q319.2145,28.4878,319.7049,32.3083Z"/><path class="cls-2" d="M62.9866,32.796h-7.614L51.6306,8.048c-.005-.2608-.1593-.3957-.4831-.3957a.8771.8771,0,0,0-.73.3957l-2.42,4.6948-2.42,4.6943,5.0742.0391.948,6.9025-9.6541.0407L37.5462,32.796H29.8334q1.0782-2.2926,4.5443-9.1064,3.4542-6.8232,6.6528-12.909a83.3276,83.3276,0,0,1,4.2018-7.5242,7.68,7.68,0,0,1,3.1558-2.0586,11.7719,11.7719,0,0,1,4.08-.71,9.54,9.54,0,0,1,3.8037.71,4.5592,4.5592,0,0,1,2.3728,2.0586q.4325.7822,1.4356,7.47.6157,4.1125,1.7345,12.9088Q62.4963,28.9755,62.9866,32.796Z"/><polygon class="cls-2" points="1.329 36.66 106.44 36.66 105.949 38.876 0.839 38.876 1.329 36.66"/><polygon class="cls-2" points="0.613 39.581 105.723 39.581 105.111 41.796 0 41.796 0.613 39.581"/><polygon class="cls-2" points="1.329 36.66 106.44 36.66 105.949 38.876 0.839 38.876 1.329 36.66"/><polygon class="cls-2" points="1.329 36.66 106.44 36.66 105.949 38.876 0.839 38.876 1.329 36.66"/><polygon class="cls-2" points="0.613 39.581 105.723 39.581 105.111 41.796 0 41.796 0.613 39.581"/><polygon class="cls-2" points="1.329 36.66 106.44 36.66 105.949 38.876 0.839 38.876 1.329 36.66"/><polygon class="cls-2" points="1.329 36.66 106.44 36.66 105.949 38.876 0.839 38.876 1.329 36.66"/></g></svg>