<svg xmlns="http://www.w3.org/2000/svg" xmlns:xlink="http://www.w3.org/1999/xlink" width="249.776" height="45.768" viewBox="0 0 249.776 45.768"><defs><clipPath id="clip-path"><rect id="Rect&#xE1;ngulo_2" data-name="Rect&#xE1;ngulo 2" width="249.776" height="45.768" transform="translate(0 0)" fill="#fff"></rect></clipPath></defs><g id="Grupo_2142" data-name="Grupo 2142" transform="translate(0 0)"><g id="Grupo_1" data-name="Grupo 1" clip-path="url(#clip-path)"><path id="Trazado_1" data-name="Trazado 1" d="M36.26,9.759H19.046A9.759,9.759,0,0,1,28.805,0H46.019A9.759,9.759,0,0,1,36.26,9.759" fill="#f6ad32"></path><path id="Trazado_2" data-name="Trazado 2" d="M9.287,19.517H0V9.758H19.046a9.759,9.759,0,0,1-9.759,9.759" fill="#f6ad32"></path><path id="Trazado_3" data-name="Trazado 3" d="M36.26,22.862H19.046A9.759,9.759,0,0,1,28.805,13.1H46.019a9.759,9.759,0,0,1-9.759,9.759" fill="#f6ad32"></path><path id="Trazado_4" data-name="Trazado 4" d="M9.287,32.62H0V22.861H19.046A9.759,9.759,0,0,1,9.287,32.62" fill="#f6ad32"></path><path id="Trazado_5" data-name="Trazado 5" d="M36.26,36.01H19.046a9.759,9.759,0,0,1,9.759-9.759H46.019A9.759,9.759,0,0,1,36.26,36.01" fill="#f6ad32"></path><path id="Trazado_6" data-name="Trazado 6" d="M9.287,45.768H0V36.009H19.046a9.759,9.759,0,0,1-9.759,9.759" fill="#f6ad32"></path><path id="Trazado_7" data-name="Trazado 7" d="M105.936,6.543l-7.253,9.749,7.448,9.749h-6.9l-4.8-6.786-3.726,5.316a3.453,3.453,0,0,1-2.826,1.47H82.773l7.838-9.749L82.968,6.543h6.707l4.8,6.785L98.2,8.013a3.453,3.453,0,0,1,2.826-1.47Z" fill="#fff"></path><path id="Trazado_8" data-name="Trazado 8" d="M109.369.109h2.2a3.451,3.451,0,0,1,3.451,3.451V6.543h4.407v5.5h-4.446V17.7c0,2.3.507,3,2.145,3a19.655,19.655,0,0,0,2.3-.155v5.5a24.384,24.384,0,0,1-3.393.234c-4.523,0-6.668-2.691-6.668-8.345V12.042h-2.73v-5.5h2.73Z" fill="#fff"></path><path id="Trazado_9" data-name="Trazado 9" d="M129.217,16.136v9.905h-2.329a3.286,3.286,0,0,1-3.286-3.286V6.543h5.264V9.9c1.638-1.989,5.264-3.861,7.6-3.861v5.733c-3.159,0-7.253,1.561-7.253,4.367" fill="#fff"></path><path id="Trazado_10" data-name="Trazado 10" d="M145.752,26.47c-4.25,0-7.019-2.964-7.019-7.526V6.543h5.693V18.125a2.924,2.924,0,0,0,3.159,3.081c2.184,0,5.427-.987,5.42-4.836V6.543h5.615v19.5h-2.846a2.809,2.809,0,0,1-2.808-2.769,9.523,9.523,0,0,1-7.214,3.2" fill="#fff"></path><path id="Trazado_11" data-name="Trazado 11" d="M163.039,30.408l4.29-2.925a6,6,0,0,0,4.6,2.106c2.613,0,4.172-1.638,4.328-5.732a7.958,7.958,0,0,1-5.654,2.261c-4.484,0-9.086-3.47-9.086-9.826,0-7.02,4.251-10.178,8.657-10.178A10.76,10.76,0,0,1,176.609,8.3V6.543h3.043a2.221,2.221,0,0,1,2.222,2.221V24.676c0,6.9-3.471,9.982-9.983,9.982-3.588,0-7.019-1.17-8.852-4.25m8.579-9.437a4.487,4.487,0,0,0,4.6-4.718c0-2.457-1.169-4.836-4.25-4.836-2.886,0-4.718,2.106-4.718,5.265a4.147,4.147,0,0,0,4.367,4.289" fill="#fff"></path><path id="Trazado_12" data-name="Trazado 12" d="M193.231,6.114a10.734,10.734,0,0,1,6.4,2.184V6.543h5.265v19.5h-3.549a1.716,1.716,0,0,1-1.716-1.715,8.556,8.556,0,0,1-5.849,2.261c-4.523,0-9.242-3.7-9.242-10.294,0-7.02,4.29-10.178,8.7-10.178m1.677,15.247c3.042,0,4.328-2.574,4.328-5.108,0-2.457-1.169-4.836-4.25-4.836-2.886,0-4.718,2.106-4.718,5.265a4.35,4.35,0,0,0,4.64,4.679" fill="#fff"></path><path id="Trazado_13" data-name="Trazado 13" d="M217.487,10.4c-1.872,0-3.432.585-3.432,1.56,0,4.094,13.61-.663,13.61,7.838,0,4.8-4.8,6.98-8.774,6.98-2.106,0-8.774,0-11.153-5.732l4.368-2.028c1.248,2.106,4.445,3.042,6.746,3.042,1.755,0,3.158-.507,3.158-1.911,0-3.432-13.531.975-13.531-7.838,0-4.992,5.342-6.356,9.2-6.356,4.211,0,8.111,1.754,9.476,5.225l-4.017,1.872c-.9-1.872-3.47-2.652-5.654-2.652" fill="#fff"></path><path id="Trazado_14" data-name="Trazado 14" d="M238.116,6.114a10.734,10.734,0,0,1,6.4,2.184V6.543h5.265v19.5h-3.549a1.716,1.716,0,0,1-1.716-1.715,8.556,8.556,0,0,1-5.849,2.261c-4.523,0-9.242-3.7-9.242-10.294,0-7.02,4.29-10.178,8.7-10.178m1.677,15.247c3.042,0,4.328-2.574,4.328-5.108,0-2.457-1.169-4.836-4.25-4.836-2.886,0-4.718,2.106-4.718,5.265a4.35,4.35,0,0,0,4.64,4.679" fill="#fff"></path><path id="Trazado_15" data-name="Trazado 15" d="M80.183,21.875a2.759,2.759,0,0,0-3.448-.816,7.865,7.865,0,0,1-3.6.693,5.013,5.013,0,0,1-4.757-3.783h14.35a7.034,7.034,0,0,0,.507-2.613c0-5.5-4.524-9.4-10.178-9.4-6.2,0-10.295,4.094-10.295,10.528,0,6.2,4.173,10.334,10.412,10.334,2.862,0,6.217-.949,8.205-3.374ZM73.062,11.028c2.847,0,4.289,1.053,4.835,2.925H68.539a4.9,4.9,0,0,1,4.523-2.925" fill="#fff"></path></g></g></svg>