<?xml version="1.0" encoding="UTF-8"?> <svg xmlns="http://www.w3.org/2000/svg" width="178.904" height="44.726" viewBox="0 0 178.904 44.726"><g id="Logo" transform="translate(-115.252 -257.58)"><g id="Grupo_4452" data-name="Grupo 4452" transform="translate(115.252 257.58)"><path id="Trazado_14570" data-name="Trazado 14570" d="M115.252,279.928a22.356,22.356,0,0,0,19.613,22.363l0-11.189H121.789l15.873-33.522a22.343,22.343,0,0,0-22.41,22.348" transform="translate(-115.252 -257.58)" fill="#919090"></path><path id="Trazado_14571" data-name="Trazado 14571" d="M152.576,279.938A22.356,22.356,0,0,1,132.963,302.3l0-11.189H146.04l-15.875-33.521a22.342,22.342,0,0,1,22.411,22.347" transform="translate(-107.755 -257.574)" fill="#80c41c"></path><path id="Trazado_14572" data-name="Trazado 14572" d="M160.858,274.009c0-3.029-1-4.561-2.87-4.561-2.168,0-3.07,2.3-3.07,4.561ZM164,283.228a12.819,12.819,0,0,1-5.139,1.1c-5.54,0-7.943-3.961-7.943-8.588,0-5.126,2.7-9.087,7.075-9.087,3.7,0,6.876,2.165,6.876,9.154v.8h-9.946c0,2.93,1.169,4.693,4.371,4.693a6.851,6.851,0,0,0,4.507-1.33Z" transform="translate(-97.325 -253.02)" fill="#80c41c"></path><path id="Trazado_14573" data-name="Trazado 14573" d="M173.723,283.628a11.788,11.788,0,0,1-4.072.7c-5.673,0-8.077-3.961-8.077-8.821,0-4.893,2.537-8.854,8.311-8.854a11.338,11.338,0,0,1,3.6.7l-.233,3.262a6.654,6.654,0,0,0-2.9-.833c-3.136,0-4.505,2.1-4.505,5.758,0,3.195,1.536,5.658,4.7,5.658a6.679,6.679,0,0,0,2.938-.831Z" transform="translate(-91.966 -253.019)" fill="#80c41c"></path><path id="Trazado_14574" data-name="Trazado 14574" d="M178.167,281.4c2.67,0,3.27-3.061,3.27-5.924s-.6-5.891-3.27-5.891-3.3,3.028-3.3,5.891.636,5.924,3.3,5.924m0-14.744c3.5,0,7.542,1.83,7.542,8.821,0,7.189-4.038,8.854-7.542,8.854s-7.575-1.665-7.575-8.854c0-6.991,4.071-8.821,7.575-8.821" transform="translate(-87.433 -253.019)" fill="#80c41c"></path></g><path id="Trazado_14575" data-name="Trazado 14575" d="M182.238,266.668H191.9v3.039h-5.718v4.033h5.494v3.04h-5.494v7.272h-3.948Z" transform="translate(33.674 4.568)" fill="#919090"></path><g id="Grupo_4453" data-name="Grupo 4453" transform="translate(226.924 270.938)"><path id="Trazado_14576" data-name="Trazado 14576" d="M196.959,281.514c2.373,0,3.222-2.715,3.222-6.054s-.849-6.05-3.222-6.05-3.2,2.712-3.2,6.05.825,6.054,3.2,6.054m0-15.045c5.021,0,7.419,3.886,7.419,8.991s-2.4,8.992-7.419,8.992-7.393-3.884-7.393-8.992,2.373-8.991,7.393-8.991" transform="translate(-189.566 -266.469)" fill="#919090"></path><path id="Trazado_14577" data-name="Trazado 14577" d="M204.9,274.09h1.273a2.212,2.212,0,0,0,2.4-2.29c0-.723-.224-2.192-2.422-2.192H204.9Zm-3.948-7.422h6.394c2.872,0,5.32,1.27,5.32,4.484a4.064,4.064,0,0,1-3.471,4.257v.051c1.273.149,1.773.846,2.422,2.914l1.8,5.677h-4.3l-1.349-4.655c-.675-2.367-1.223-2.367-2.721-2.367v7.022h-4.1Z" transform="translate(-183.843 -266.369)" fill="#919090"></path></g><path id="Trazado_14578" data-name="Trazado 14578" d="M210.474,266.668H220.54v3.039h-6.12v3.885h5.82v3.04h-5.82v4.383h6.42v3.037H210.474Z" transform="translate(47.868 4.568)" fill="#919090"></path><g id="Grupo_4454" data-name="Grupo 4454" transform="translate(270.329 270.938)"><path id="Trazado_14579" data-name="Trazado 14579" d="M228.417,270.3a8.336,8.336,0,0,0-3.446-.9c-1.325,0-2.325.6-2.325,1.893,0,3.162,6.869,1.692,6.869,7.87,0,3.288-2.621,5.28-6.093,5.28a16.814,16.814,0,0,1-4.7-.723l.225-3.387a9.863,9.863,0,0,0,3.821,1.071c1.3,0,2.547-.649,2.547-2.068,0-3.362-6.869-1.719-6.869-7.921,0-.523.2-4.956,6.045-4.956a17.228,17.228,0,0,1,4.095.6Z" transform="translate(-218.451 -266.469)" fill="#919090"></path></g><path id="Trazado_14580" data-name="Trazado 14580" d="M230.325,269.806h-3.8v-3.139h11.69v3.139h-3.8v14.244h-4.095Z" transform="translate(55.938 4.568)" fill="#919090"></path></g></svg> 