<?xml version="1.0" encoding="UTF-8"?>
<!DOCTYPE svg PUBLIC "-//W3C//DTD SVG 1.1//EN" "http://www.w3.org/Graphics/SVG/1.1/DTD/svg11.dtd">
<!-- Creator: CorelDRAW X8 -->
<svg xmlns="http://www.w3.org/2000/svg" xml:space="preserve" width="200px" height="105px" version="1.1" style="shape-rendering:geometricPrecision; text-rendering:geometricPrecision; image-rendering:optimizeQuality; fill-rule:evenodd; clip-rule:evenodd"
viewBox="0 0 18109858 9546364"
 xmlns:xlink="http://www.w3.org/1999/xlink">
 <defs>
  <style type="text/css">
   <![CDATA[
    .fil1 {fill:whitesmoke}
    .fil5 {fill:#2B2A29}
    .fil2 {fill:#2B2A29}
    .fil3 {fill:#036FB7}
    .fil4 {fill:#2B2A29;fill-rule:nonzero}
    .fil6 {fill:#036FB7;fill-rule:nonzero}
    .fil0 {fill:#CCCCCC;fill-rule:nonzero}
   ]]>
  </style>
 </defs>
 <g id="Capa_x0020_1">
  <metadata id="CorelCorpID_0Corel-Layer"/>
  <g>
   <path class="fil0" d="M141544 0l0 94447 -94358 0 0 -94447 94358 0zm188717 0l0 94447 -94358 0 0 -94447 94358 0zm188718 0l0 94447 -94359 0 0 -94447 94359 0zm188717 0l0 94447 -94359 0 0 -94447 94359 0zm188717 0l0 94447 -94358 0 0 -94447 94358 0zm188717 0l0 94447 -94358 0 0 -94447 94358 0zm188718 0l0 94447 -94359 0 0 -94447 94359 0zm188717 0l0 94447 -94359 0 0 -94447 94359 0zm188717 0l0 94447 -94359 0 0 -94447 94359 0zm188717 0l0 94447 -94358 0 0 -94447 94358 0zm188718 0l0 94447 -94359 0 0 -94447 94359 0zm188717 0l0 94447 -94359 0 0 -94447 94359 0zm188717 0l0 94447 -94359 0 0 -94447 94359 0zm188717 0l0 94447 -94358 0 0 -94447 94358 0zm188717 0l0 94447 -94358 0 0 -94447 94358 0zm188718 0l0 94447 -94359 0 0 -94447 94359 0zm188717 0l0 94447 -94359 0 0 -94447 94359 0zm188717 0l0 94447 -94358 0 0 -94447 94358 0zm188717 0l0 94447 -94358 0 0 -94447 94358 0zm188718 0l0 94447 -94359 0 0 -94447 94359 0zm188717 0l0 94447 -94359 0 0 -94447 94359 0zm188717 0l0 94447 -94359 0 0 -94447 94359 0zm188717 0l0 94447 -94358 0 0 -94447 94358 0zm188718 0l0 94447 -94359 0 0 -94447 94359 0zm188717 0l0 94447 -94359 0 0 -94447 94359 0zm188717 0l0 94447 -94359 0 0 -94447 94359 0zm188717 0l0 94447 -94358 0 0 -94447 94358 0zm188717 0l0 94447 -94358 0 0 -94447 94358 0zm188718 0l0 94447 -94359 0 0 -94447 94359 0zm188717 0l0 94447 -94359 0 0 -94447 94359 0zm188717 0l0 94447 -94358 0 0 -94447 94358 0zm188717 0l0 94447 -94358 0 0 -94447 94358 0zm188718 0l0 94447 -94359 0 0 -94447 94359 0zm188717 0l0 94447 -94359 0 0 -94447 94359 0zm188717 0l0 94447 -94359 0 0 -94447 94359 0zm188717 0l0 94447 -94358 0 0 -94447 94358 0zm188718 0l0 94447 -94359 0 0 -94447 94359 0zm188717 0l0 94447 -94359 0 0 -94447 94359 0zm188717 0l0 94447 -94359 0 0 -94447 94359 0zm188717 0l0 94447 -94358 0 0 -94447 94358 0zm188717 0l0 94447 -94358 0 0 -94447 94358 0zm188743 0l0 94447 -94371 0 0 -94447 94371 0zm188742 0l0 94447 -94371 0 0 -94447 94371 0zm188743 0l0 94447 -94372 0 0 -94447 94372 0zm188742 0l0 94447 -94371 0 0 -94447 94371 0zm188742 0l0 94447 -94371 0 0 -94447 94371 0zm188743 0l0 94447 -94371 0 0 -94447 94371 0zm188742 0l0 94447 -94371 0 0 -94447 94371 0zm188743 0l0 94447 -94372 0 0 -94447 94372 0zm188742 0l0 94447 -94371 0 0 -94447 94371 0zm188742 0l0 94447 -94371 0 0 -94447 94371 0zm188743 0l0 94447 -94371 0 0 -94447 94371 0zm188742 0l0 94447 -94371 0 0 -94447 94371 0zm188743 0l0 94447 -94372 0 0 -94447 94372 0zm188742 0l0 94447 -94371 0 0 -94447 94371 0zm188742 0l0 94447 -94371 0 0 -94447 94371 0zm188743 0l0 94447 -94371 0 0 -94447 94371 0zm188742 0l0 94447 -94371 0 0 -94447 94371 0zm188743 0l0 94447 -94372 0 0 -94447 94372 0zm188742 0l0 94447 -94371 0 0 -94447 94371 0zm188742 0l0 94447 -94371 0 0 -94447 94371 0zm188743 0l0 94447 -94371 0 0 -94447 94371 0zm188742 0l0 94447 -94371 0 0 -94447 94371 0zm188743 0l0 94447 -94372 0 0 -94447 94372 0zm188742 0l0 94447 -94371 0 0 -94447 94371 0zm188742 0l0 94447 -94371 0 0 -94447 94371 0zm188743 0l0 94447 -94371 0 0 -94447 94371 0zm188742 0l0 94447 -94371 0 0 -94447 94371 0zm188743 0l0 94447 -94372 0 0 -94447 94372 0zm188742 0l0 94447 -94371 0 0 -94447 94371 0zm188742 0l0 94447 -94371 0 0 -94447 94371 0zm188743 0l0 94447 -94371 0 0 -94447 94371 0zm188742 0l0 94447 -94371 0 0 -94447 94371 0zm188743 0l0 94447 -94372 0 0 -94447 94372 0zm188742 0l0 94447 -94371 0 0 -94447 94371 0zm188742 0l0 94447 -94371 0 0 -94447 94371 0zm188743 0l0 94447 -94371 0 0 -94447 94371 0zm188742 0l0 94447 -94371 0 0 -94447 94371 0zm188743 0l0 94447 -94372 0 0 -94447 94372 0zm188742 0l0 94447 -94371 0 0 -94447 94371 0zm188742 0l0 94447 -94371 0 0 -94447 94371 0zm188743 0l0 94447 -94371 0 0 -94447 94371 0zm188742 0l0 94447 -94371 0 0 -94447 94371 0zm188743 0l0 94447 -94372 0 0 -94447 94372 0zm188742 0l0 94447 -94371 0 0 -94447 94371 0zm188742 0l0 94447 -94371 0 0 -94447 94371 0zm188743 0l0 94447 -94371 0 0 -94447 94371 0zm188742 0l0 94447 -94371 0 0 -94447 94371 0zm188743 0l0 94447 -94372 0 0 -94447 94372 0zm188742 0l0 94447 -94371 0 0 -94447 94371 0zm188742 0l0 94447 -94371 0 0 -94447 94371 0zm188743 0l0 94447 -94371 0 0 -94447 94371 0zm188742 0l0 94447 -94371 0 0 -94447 94371 0zm188742 0l0 94447 -94371 0 0 -94447 94371 0zm188743 0l0 94447 -94371 0 0 -94447 94371 0zm180350 94447l-85979 0 0 -94447 85979 0 47185 47223 -47185 47224zm0 -94447l47185 0 0 47223 -47185 -47223zm47185 55616l-94371 0 0 -8393 94371 0 0 8393zm0 188893l-94371 0 0 -94446 94371 0 0 94446zm0 188894l-94371 0 0 -94447 94371 0 0 94447zm0 188893l-94371 0 0 -94446 94371 0 0 94446zm0 188894l-94371 0 0 -94447 94371 0 0 94447zm0 188893l-94371 0 0 -94447 94371 0 0 94447zm0 188893l-94371 0 0 -94446 94371 0 0 94446zm0 188919l-94371 0 0 -94459 94371 0 0 94459zm0 188919l-94371 0 0 -94460 94371 0 0 94460zm0 188918l-94371 0 0 -94459 94371 0 0 94459zm0 188919l-94371 0 0 -94460 94371 0 0 94460zm0 188918l-94371 0 0 -94459 94371 0 0 94459zm0 188919l-94371 0 0 -94460 94371 0 0 94460zm0 188918l-94371 0 0 -94459 94371 0 0 94459zm0 188919l-94371 0 0 -94459 94371 0 0 94459zm0 188918l-94371 0 0 -94459 94371 0 0 94459zm0 188919l-94371 0 0 -94459 94371 0 0 94459zm0 188919l-94371 0 0 -94460 94371 0 0 94460zm0 188918l-94371 0 0 -94459 94371 0 0 94459zm0 188919l-94371 0 0 -94460 94371 0 0 94460zm0 188918l-94371 0 0 -94459 94371 0 0 94459zm0 188919l-94371 0 0 -94459 94371 0 0 94459zm0 188918l-94371 0 0 -94459 94371 0 0 94459zm0 188919l-94371 0 0 -94459 94371 0 0 94459zm0 188918l-94371 0 0 -94459 94371 0 0 94459zm0 188919l-94371 0 0 -94459 94371 0 0 94459zm0 188919l-94371 0 0 -94460 94371 0 0 94460zm0 188918l-94371 0 0 -94459 94371 0 0 94459zm0 188919l-94371 0 0 -94460 94371 0 0 94460zm0 188918l-94371 0 0 -94459 94371 0 0 94459zm0 188919l-94371 0 0 -94459 94371 0 0 94459zm0 188918l-94371 0 0 -94459 94371 0 0 94459zm0 188919l-94371 0 0 -94459 94371 0 0 94459zm0 188918l-94371 0 0 -94459 94371 0 0 94459zm0 188919l-94371 0 0 -94459 94371 0 0 94459zm0 188919l-94371 0 0 -94460 94371 0 0 94460zm0 188918l-94371 0 0 -94459 94371 0 0 94459zm0 188919l-94371 0 0 -94460 94371 0 0 94460zm0 188918l-94371 0 0 -94459 94371 0 0 94459zm0 188919l-94371 0 0 -94459 94371 0 0 94459zm0 188918l-94371 0 0 -94459 94371 0 0 94459zm0 188919l-94371 0 0 -94459 94371 0 0 94459zm0 188918l-94371 0 0 -94459 94371 0 0 94459zm0 188919l-94371 0 0 -94459 94371 0 0 94459zm0 188919l-94371 0 0 -94460 94371 0 0 94460zm0 188918l-94371 0 0 -94459 94371 0 0 94459zm0 188919l-94371 0 0 -94460 94371 0 0 94460zm0 188918l-94371 0 0 -94459 94371 0 0 94459zm0 188919l-94371 0 0 -94459 94371 0 0 94459zm0 188918l-94371 0 0 -94459 94371 0 0 94459zm-94371 186667l0 -92207 94371 0 0 92207 -47185 47223 -47186 -47223zm94371 0l0 47223 -47185 0 47185 -47223zm-49438 47223l0 -94447 2253 0 0 94447 -2253 0zm-188717 0l0 -94447 94359 0 0 94447 -94359 0zm-188717 0l0 -94447 94358 0 0 94447 -94358 0zm-188717 0l0 -94447 94358 0 0 94447 -94358 0zm-188718 0l0 -94447 94359 0 0 94447 -94359 0zm-188717 0l0 -94447 94359 0 0 94447 -94359 0zm-188717 0l0 -94447 94358 0 0 94447 -94358 0zm-188717 0l0 -94447 94358 0 0 94447 -94358 0zm-188718 0l0 -94447 94359 0 0 94447 -94359 0zm-188717 0l0 -94447 94359 0 0 94447 -94359 0zm-188717 0l0 -94447 94359 0 0 94447 -94359 0zm-188717 0l0 -94447 94358 0 0 94447 -94358 0zm-188718 0l0 -94447 94359 0 0 94447 -94359 0zm-188717 0l0 -94447 94359 0 0 94447 -94359 0zm-188717 0l0 -94447 94359 0 0 94447 -94359 0zm-188717 0l0 -94447 94358 0 0 94447 -94358 0zm-188717 0l0 -94447 94358 0 0 94447 -94358 0zm-188718 0l0 -94447 94359 0 0 94447 -94359 0zm-188717 0l0 -94447 94359 0 0 94447 -94359 0zm-188717 0l0 -94447 94358 0 0 94447 -94358 0zm-188717 0l0 -94447 94358 0 0 94447 -94358 0zm-188718 0l0 -94447 94359 0 0 94447 -94359 0zm-188717 0l0 -94447 94359 0 0 94447 -94359 0zm-188717 0l0 -94447 94359 0 0 94447 -94359 0zm-188717 0l0 -94447 94358 0 0 94447 -94358 0zm-188718 0l0 -94447 94359 0 0 94447 -94359 0zm-188717 0l0 -94447 94359 0 0 94447 -94359 0zm-188717 0l0 -94447 94359 0 0 94447 -94359 0zm-188717 0l0 -94447 94358 0 0 94447 -94358 0zm-188717 0l0 -94447 94358 0 0 94447 -94358 0zm-188718 0l0 -94447 94359 0 0 94447 -94359 0zm-188717 0l0 -94447 94359 0 0 94447 -94359 0zm-188717 0l0 -94447 94358 0 0 94447 -94358 0zm-188717 0l0 -94447 94358 0 0 94447 -94358 0zm-188718 0l0 -94447 94359 0 0 94447 -94359 0zm-188717 0l0 -94447 94359 0 0 94447 -94359 0zm-188717 0l0 -94447 94359 0 0 94447 -94359 0zm-188717 0l0 -94447 94358 0 0 94447 -94358 0zm-188718 0l0 -94447 94359 0 0 94447 -94359 0zm-188717 0l0 -94447 94359 0 0 94447 -94359 0zm-188717 0l0 -94447 94359 0 0 94447 -94359 0zm-188730 0l0 -94447 94371 0 0 94447 -94371 0zm-188742 0l0 -94447 94371 0 0 94447 -94371 0zm-188743 0l0 -94447 94372 0 0 94447 -94372 0zm-188742 0l0 -94447 94371 0 0 94447 -94371 0zm-188742 0l0 -94447 94371 0 0 94447 -94371 0zm-188743 0l0 -94447 94371 0 0 94447 -94371 0zm-188742 0l0 -94447 94371 0 0 94447 -94371 0zm-188743 0l0 -94447 94372 0 0 94447 -94372 0zm-188742 0l0 -94447 94371 0 0 94447 -94371 0zm-188742 0l0 -94447 94371 0 0 94447 -94371 0zm-188743 0l0 -94447 94371 0 0 94447 -94371 0zm-188742 0l0 -94447 94371 0 0 94447 -94371 0zm-188743 0l0 -94447 94372 0 0 94447 -94372 0zm-188742 0l0 -94447 94371 0 0 94447 -94371 0zm-188742 0l0 -94447 94371 0 0 94447 -94371 0zm-188743 0l0 -94447 94371 0 0 94447 -94371 0zm-188742 0l0 -94447 94371 0 0 94447 -94371 0zm-188743 0l0 -94447 94372 0 0 94447 -94372 0zm-188742 0l0 -94447 94371 0 0 94447 -94371 0zm-188742 0l0 -94447 94371 0 0 94447 -94371 0zm-188743 0l0 -94447 94371 0 0 94447 -94371 0zm-188742 0l0 -94447 94371 0 0 94447 -94371 0zm-188743 0l0 -94447 94372 0 0 94447 -94372 0zm-188742 0l0 -94447 94371 0 0 94447 -94371 0zm-188742 0l0 -94447 94371 0 0 94447 -94371 0zm-188743 0l0 -94447 94371 0 0 94447 -94371 0zm-188742 0l0 -94447 94371 0 0 94447 -94371 0zm-188743 0l0 -94447 94372 0 0 94447 -94372 0zm-188742 0l0 -94447 94371 0 0 94447 -94371 0zm-188742 0l0 -94447 94371 0 0 94447 -94371 0zm-188743 0l0 -94447 94371 0 0 94447 -94371 0zm-188742 0l0 -94447 94371 0 0 94447 -94371 0zm-188743 0l0 -94447 94372 0 0 94447 -94372 0zm-188742 0l0 -94447 94371 0 0 94447 -94371 0zm-188742 0l0 -94447 94371 0 0 94447 -94371 0zm-188743 0l0 -94447 94371 0 0 94447 -94371 0zm-188742 0l0 -94447 94371 0 0 94447 -94371 0zm-188743 0l0 -94447 94372 0 0 94447 -94372 0zm-188742 0l0 -94447 94371 0 0 94447 -94371 0zm-188742 0l0 -94447 94371 0 0 94447 -94371 0zm-188743 0l0 -94447 94371 0 0 94447 -94371 0zm-188742 0l0 -94447 94371 0 0 94447 -94371 0zm-188743 0l0 -94447 94372 0 0 94447 -94372 0zm-188742 0l0 -94447 94371 0 0 94447 -94371 0zm-188742 0l0 -94447 94371 0 0 94447 -94371 0zm-188743 0l0 -94447 94371 0 0 94447 -94371 0zm-188742 0l0 -94447 94371 0 0 94447 -94371 0zm-188742 0l0 -94447 94371 0 0 94447 -94371 0zm-188743 0l0 -94447 94371 0 0 94447 -94371 0zm-188742 0l0 -94447 94371 0 0 94447 -94371 0zm-188743 0l0 -94447 94372 0 0 94447 -94372 0zm-188742 0l0 -94447 94371 0 0 94447 -94371 0zm-188742 0l0 -94447 94371 0 0 94447 -94371 0zm-188743 0l0 -94447 94371 0 0 94447 -94371 0zm-188742 0l0 -94447 94371 0 0 94447 -94371 0zm-130912 -152328l94371 0 0 94447 -94371 0 0 -94447zm0 -188893l94371 0 0 94447 -94371 0 0 -94447zm0 -188894l94371 0 0 94447 -94371 0 0 -94447zm0 -188893l94371 0 0 94447 -94371 0 0 -94447zm0 -188893l94371 0 0 94446 -94371 0 0 -94446zm0 -188894l94371 0 0 94447 -94371 0 0 -94447zm0 -188893l94371 0 0 94447 -94371 0 0 -94447zm0 -188919l94371 0 0 94460 -94371 0 0 -94460zm0 -188918l94371 0 0 94459 -94371 0 0 -94459zm0 -188919l94371 0 0 94460 -94371 0 0 -94460zm0 -188918l94371 0 0 94459 -94371 0 0 -94459zm0 -188919l94371 0 0 94459 -94371 0 0 -94459zm0 -188918l94371 0 0 94459 -94371 0 0 -94459zm0 -188919l94371 0 0 94459 -94371 0 0 -94459zm0 -188919l94371 0 0 94460 -94371 0 0 -94460zm0 -188918l94371 0 0 94459 -94371 0 0 -94459zm0 -188919l94371 0 0 94460 -94371 0 0 -94460zm0 -188918l94371 0 0 94459 -94371 0 0 -94459zm0 -188919l94371 0 0 94460 -94371 0 0 -94460zm0 -188918l94371 0 0 94459 -94371 0 0 -94459zm0 -188919l94371 0 0 94459 -94371 0 0 -94459zm0 -188918l94371 0 0 94459 -94371 0 0 -94459zm0 -188919l94371 0 0 94459 -94371 0 0 -94459zm0 -188919l94371 0 0 94460 -94371 0 0 -94460zm0 -188918l94371 0 0 94459 -94371 0 0 -94459zm0 -188919l94371 0 0 94460 -94371 0 0 -94460zm0 -188918l94371 0 0 94459 -94371 0 0 -94459zm0 -188919l94371 0 0 94459 -94371 0 0 -94459zm0 -188918l94371 0 0 94459 -94371 0 0 -94459zm0 -188919l94371 0 0 94459 -94371 0 0 -94459zm0 -188918l94371 0 0 94459 -94371 0 0 -94459zm0 -188919l94371 0 0 94459 -94371 0 0 -94459zm0 -188919l94371 0 0 94460 -94371 0 0 -94460zm0 -188918l94371 0 0 94459 -94371 0 0 -94459zm0 -188919l94371 0 0 94460 -94371 0 0 -94460zm0 -188918l94371 0 0 94459 -94371 0 0 -94459zm0 -188919l94371 0 0 94459 -94371 0 0 -94459zm0 -188918l94371 0 0 94459 -94371 0 0 -94459zm0 -188919l94371 0 0 94459 -94371 0 0 -94459zm0 -188918l94371 0 0 94459 -94371 0 0 -94459zm0 -188919l94371 0 0 94459 -94371 0 0 -94459zm0 -188919l94371 0 0 94460 -94371 0 0 -94460zm0 -188918l94371 0 0 94459 -94371 0 0 -94459zm0 -188919l94371 0 0 94460 -94371 0 0 -94460zm0 -188918l94371 0 0 94459 -94371 0 0 -94459zm0 -188919l94371 0 0 94459 -94371 0 0 -94459zm0 -188918l94371 0 0 94459 -94371 0 0 -94459zm0 -188919l94371 0 0 94459 -94371 0 0 -94459zm0 -188918l94371 0 0 94459 -94371 0 0 -94459zm0 -188919l94371 0 0 94459 -94371 0 0 -94459z"/>
   <polygon id="1" class="fil1" points="47186,47223 18062673,47223 18062673,9499141 47186,9499141 "/>
  </g>
  <g>
   <g id="_1315353863616">
    <path class="fil2" d="M4752848 988356c2090310,0 3784826,1694517 3784826,3784826 0,2090297 -1694516,3784814 -3784826,3784814 -2090297,0 -3784813,-1694517 -3784813,-3784814 0,-2090309 1694516,-3784826 3784813,-3784826zm0 114189c2027244,0 3670637,1643393 3670637,3670637 0,2027232 -1643393,3670624 -3670637,3670624 -2027232,0 -3670624,-1643392 -3670624,-3670624 0,-2027244 1643392,-3670637 3670624,-3670637z"/>
    <path class="fil3" d="M4345014 3990128l-195764 342592c253028,-56585 451094,-104928 869461,-163149 305762,-42542 532794,-48066 794555,-48934l-1027778 -1859780 -1364079 2477093c155373,54257 523685,101908 771944,88621 351501,-18824 649588,-180086 992936,-186490 315376,-5876 621541,-25128 936942,67846l-186515 -361517c-329368,11753 -664814,-28840 -988092,35245 -383486,76025 -748816,224326 -1109339,97882l897256 -1647696 603623 1011458c-331721,22170 -663417,75245 -995150,146829z"/>
    <rect class="fil3" x="2578624" y="6045356" width="4346410" height="55604"/>
    <polygon class="fil4" points="2615705,5271361 2615705,5213153 3001910,5213153 3001910,5271361 2840611,5271361 2840611,5688771 2775784,5688771 2775784,5271361 "/>
    <path id="1" class="fil4" d="M3062333 5535299l0 -322146 64827 0 0 310242c0,23593 4517,44657 13551,62952 9047,18308 22712,32640 40907,43109 18195,10469 40353,15653 66488,15653 24914,0 46959,-5071 65820,-15213 18963,-10255 33508,-24473 43537,-42781 10041,-18296 15112,-39133 15112,-62512l0 -311450 64827 0 0 319390c0,32854 -8053,62184 -24147,87878 -16093,25795 -38918,45752 -68576,60083 -29658,14332 -63833,21492 -102311,21492 -30866,0 -60196,-6505 -87979,-19617 -27670,-13124 -49941,-32199 -66815,-57440 -16861,-25254 -25241,-55126 -25241,-89640zm166697 -444526l0 66814 -60863 0 0 -66814 60863 0zm107155 0l0 66814 -60850 0 0 -66814 60850 0z"/>
    <polygon id="2" class="fil4" points="3709832,5619314 3844230,5213153 3916229,5213153 3743567,5688771 3674777,5688771 3502115,5213153 3572906,5213153 "/>
    <path id="3" class="fil4" d="M3988982 5688771l0 -475618 226240 0c26902,0 51703,5071 74528,15213 22712,10255 40907,25140 54571,44983 13565,19730 20397,43323 20397,70779 0,51816 -21831,88646 -65481,110477 17742,5511 30866,15099 39246,28764 8380,13678 13665,29331 15766,46859 2202,17641 3196,40240 3196,67922 441,24587 2202,43209 5185,55893 2969,12683 9915,20724 20610,24033l0 10695 -79372 0c-4971,-15879 -7827,-40466 -8494,-73760 -667,-33294 -1761,-57000 -3196,-71005 -1434,-13992 -7940,-27229 -19402,-39686 -11577,-12457 -31206,-18635 -58875,-18635l-161413 0 0 203086 -63506 0zm63506 -258652l162734 0c17968,0 33181,-3750 45424,-11136 12343,-7487 21718,-17301 27896,-29658 6279,-12344 9814,-25354 10695,-39132 0,-23153 -6178,-42442 -18522,-58108 -12356,-15540 -32413,-23366 -60196,-23366l-168031 0 0 161400z"/>
    <path id="4" class="fil4" d="M4733068 5454051l0 234720 -58208 0 0 -226239c0,-25681 -4857,-44983 -14445,-57881 -9702,-13011 -27557,-19516 -53691,-19516 -27229,0 -50269,9160 -69017,27569 -18849,18409 -28223,47626 -28223,87539l0 188528 -58208 0 0 -475618 58208 0 0 176072c13665,-16434 23479,-27569 29431,-33408 5851,-5952 14785,-11136 26462,-15552 11802,-4517 27229,-6719 46531,-6719 20837,0 40240,3410 58321,10355 18082,6946 33081,19416 44984,37384 11903,17855 17855,42115 17855,72766z"/>
    <path id="5" class="fil4" d="M5055113 5580169l59642 0c-2088,12910 -8267,28890 -18522,47852 -10242,19076 -24914,34842 -43763,47413 -10028,7159 -22271,12897 -36603,17301 -14332,4416 -33621,6618 -57994,6618 -26462,0 -50055,-5398 -70892,-16093 -20950,-10695 -38138,-25581 -51590,-44757 -21504,-31319 -32312,-68916 -32312,-112566 0,-30765 4303,-58988 12897,-84682 8607,-25569 21504,-46960 38592,-64047 15212,-15880 32640,-28009 52256,-36390 19743,-8380 39800,-12570 60423,-12570 16320,0 32413,2756 48180,8267 15766,5625 30211,14005 43435,25367 13124,11237 24034,25027 32741,41121 18081,35722 27129,79712 27129,132296l-253469 0c0,36389 8494,64386 25581,83902 16974,19516 42001,29217 74968,29217 17201,0 32527,-3749 45978,-11136 13451,-7499 23920,-16533 31306,-27342 7500,-10809 11463,-20724 12017,-29771zm-189850 -91830l192605 0c-1535,-30098 -9814,-54911 -24800,-74200 -14999,-19290 -38705,-29004 -71219,-29004 -17541,0 -33747,4857 -48520,14558 -14772,9702 -26562,22486 -35169,38366 -8594,15992 -12897,32753 -12897,50280z"/>
    <path id="6" class="fil4" d="M5187975 5214474l59529 0 0 66148 -59529 0 0 -66148zm0 129654l59529 0 0 344643 -59529 0 0 -344643z"/>
    <path id="7" class="fil4" d="M5335383 5688771l0 -345964 55452 0 0 50268c2429,-4731 8154,-11903 17201,-21391 9148,-9475 21491,-18295 37044,-26235 15653,-7940 33508,-11903 53691,-11903 25241,553 46632,5511 64386,14772 17754,9261 31092,22926 40240,40793 9148,17855 13778,39473 13778,64940l0 234720 -58208 0 0 -214323c0,-27569 -4857,-49287 -14445,-65267 -9702,-15993 -27557,-24046 -53691,-24046 -19076,0 -36050,4530 -50935,13451 -14773,9047 -26236,21617 -34289,37711 -8053,16207 -12016,34401 -12016,54685l0 197789 -58208 0z"/>
    <polygon id="8" class="fil4" points="5763262,5213153 5763262,5688771 5705054,5688771 5705054,5213153 "/>
    <path id="9" class="fil4" d="M5831951 5595394c1435,-17867 5512,-33747 12017,-47638 6505,-13892 18308,-26122 35496,-36604 17201,-10582 41460,-18182 72880,-22813 4303,-780 14772,-1434 31318,-2101 16421,-654 30099,-1988 41008,-3963 10809,-2102 19956,-6179 27456,-12357 7600,-6165 11349,-15540 11349,-27883 0,-38592 -26675,-58875 -80152,-60863 -49942,0 -76516,22485 -79926,67469l-54245 0c0,-20057 5071,-39020 15099,-56560 10142,-17629 25468,-31747 46205,-42442 20610,-10695 45864,-16093 75736,-16093 23819,0 45977,3082 66374,9147 20284,6178 36717,16094 49174,29658 12457,13678 18622,30979 18622,51929l0 196909c0,10368 1108,17528 3209,21491 2202,3977 6606,6292 13438,6946 8053,-1648 15326,-2642 21832,-3196l0 42341c-6946,4404 -19730,6619 -38479,6619 -33948,0 -52030,-17201 -54345,-51716 -32413,35069 -73874,53591 -124369,55679 -20396,0 -39132,-4630 -56006,-13778 -16974,-9261 -30312,-21391 -39912,-36389 -9475,-15100 -14546,-30866 -15100,-47186 881,-1761 1321,-3963 1321,-6606zm230203 -83902c-3863,5071 -14005,9034 -30312,12130 -16207,3083 -36503,7046 -60649,12016 -24134,4845 -43323,12231 -57327,22272 -14005,9915 -21052,24247 -21052,42769 3637,32967 23920,50168 60851,51715 15880,-1107 32313,-4743 48960,-10922 16748,-6178 30865,-14998 42328,-26574 11463,-11463 17201,-25242 17201,-41335l0 -62071z"/>
    <path id="10" class="fil4" d="M6219490 5688771l0 -345964 55452 0 0 50268c2429,-4731 8154,-11903 17201,-21391 9148,-9475 21491,-18295 37044,-26235 15653,-7940 33508,-11903 53691,-11903 25241,553 46632,5511 64386,14772 17754,9261 31092,22926 40240,40793 9148,17855 13778,39473 13778,64940l0 234720 -58208 0 0 -214323c0,-27569 -4857,-49287 -14445,-65267 -9701,-15993 -27556,-24046 -53691,-24046 -19076,0 -36050,4530 -50935,13451 -14772,9047 -26235,21617 -34288,37711 -8053,16207 -12017,34401 -12017,54685l0 197789 -58208 0z"/>
    <path id="11" class="fil4" d="M6874929 5213153l0 475618 -54244 0 0 -47626c-6732,12130 -15100,22159 -25028,30212 -9927,7927 -20069,13891 -30425,17968 -10368,4077 -19403,6832 -26902,8040 -7613,1334 -13677,1988 -18195,1988 -36490,0 -66148,-9701 -88860,-29217 -22712,-19516 -38805,-43876 -48293,-73207 -9588,-29318 -14331,-59869 -14331,-91502 0,-32527 5624,-61958 16974,-87979 11249,-26135 27783,-46645 49513,-61518 21819,-14885 47513,-22384 77058,-22384 27568,0 48733,5511 63618,16647 14886,11135 28110,25027 39573,41561l0 -178601 59542 0zm-246736 302302c0,40140 7927,72213 23693,96586 15880,24247 39032,36377 69684,36377 23706,0 45424,-9034 65267,-27229 19956,-18082 29884,-47626 29884,-88533 0,-98347 -31319,-147521 -93830,-147521 -39032,0 -64500,13011 -76629,39032 -12017,26021 -18069,56447 -18069,91288z"/>
    <g id="MARCA_x0020_REGISTRADA.cdr">
     <path class="fil5" d="M6469221 4981428c17465,0 29884,-2693 37321,-8003 7411,-5373 11085,-14168 11085,-26374 0,-12368 -3322,-21051 -9928,-26159 -6643,-5096 -19478,-7613 -38478,-7613l-44430 0 0 68149 44430 0zm-74792 130408l0 -227409 80152 0c25116,0 43940,4995 56623,14948 12633,9991 18950,24788 18950,44405 0,13577 -3687,25052 -10998,34477 -7360,9374 -17615,15854 -30777,19327 9991,2252 17314,5776 21995,10582 4630,4769 8153,12570 10519,23354 742,3360 2315,14269 4744,32577 2365,18358 5574,34276 9462,47739l-32514 0c-3209,-12847 -5851,-28223 -7952,-46103 -2102,-17906 -4002,-29054 -5625,-33471 -3120,-8745 -7889,-14734 -14420,-18106 -6543,-3322 -17100,-5008 -31683,-5008l-38114 0 0 102688 -30362 0z"/>
     <path class="fil4" d="M6461646 4803519c107168,0 194619,87451 194619,194606 0,107168 -87451,194619 -194619,194619 -107155,0 -194606,-87451 -194606,-194619 0,-107155 87451,-194606 194606,-194606zm0 26776c-92421,0 -167829,75409 -167829,167830 0,92434 75408,167842 167829,167842 92434,0 167843,-75408 167843,-167842 0,-92421 -75409,-167830 -167843,-167830z"/>
    </g>
    <path class="fil4" d="M2131267 3312391l-502231 -172070 -20749 -6845 85135 -118052 362322 147521 1057 -1460 -271260 -273814 82166 -113938 360032 150717 1145 -1598 -266831 -279955 83411 -115649 335031 403921 13753 16547 -82934 114994 -367104 -150805 -1057 1472 271626 283215 -83512 115799zm503753 -600465l-446426 -282409 -18509 -11425 111320 -95189 316395 226478 1384 -1195 -197324 -328311 107445 -91880 313388 229045 1510 -1283 -191549 -333269 109068 -93276 227800 469402 9362 19226 -108427 92736 -320270 -230757 -1385 1183 195412 337535 -109194 93389zm636817 -465023l-363505 -378680 -15138 -15414 131579 -66350 251128 293935 1623 -818 -110364 -364889 126999 -64021 247567 295721 1774 -893 -103531 -368337 128911 -65003 105079 508962 4341 20863 -128169 64625 -253821 -298993 -1635 831 106236 373382 -129074 65079zm608531 -257319l-42228 -136222 144727 -42517 42241 136222 -144740 42517zm287291 -178903l-54245 -310330 -71068 11752 -16961 -97026 71067 -11765 -24020 -137379 139178 -23052 24021 137392 85047 -14080 16962 97026 -85047 14080 48532 277666c2969,16974 7713,27720 14231,32073 6367,4404 22599,4341 48431,63 3460,-579 8821,-1799 15955,-3636 7122,-1837 11501,-2894 13313,-3184l17779 101669c-6744,1108 -17377,3222 -31746,6254 -14345,3196 -25141,5310 -32212,6480l-18598 3070c-39485,6544 -70375,7047 -92496,1485 -21970,-5587 -37786,-15653 -47437,-30199 -9488,-14570 -16433,-34024 -20686,-58359zm841174 -463073l-10997 519331 -132976 -2667 1523 -72100 -2328 -50c-16924,26965 -39560,47626 -67909,61995 -28186,14382 -60209,21215 -95907,20510 -54886,-1107 -98586,-18069 -131289,-50734 -32526,-32652 -48192,-80580 -46858,-143746l7247 -342165 141155 2844 -6820 321693c-1359,64147 27996,96887 88218,98108 17515,352 34615,-3045 51464,-10180 16672,-7147 30614,-19365 42014,-37018 11375,-17465 17377,-40429 17968,-68665l6354 -299949 139141 2793zm277149 562754l-72200 -525597 -2416 -21441 152680 32036 24159 395717 1787 378 194266 -349866 144866 30400 -288146 449975 -11123 18597 -143873 -30199zm351049 84494l48909 -134082 142463 49236 -48909 134083 -142463 -49237zm367003 -130710c35219,-67495 82581,-118770 142148,-153989 59416,-35295 129993,-33168 211455,6203 38843,19214 70904,43449 95944,72603 24813,29205 40416,62059 46141,98788 5952,36641 88,74755 -17402,114365l-126609 -62599c7236,-21756 8343,-43247 3121,-64424 -5159,-21328 -20648,-38265 -46380,-50986 -31407,-15540 -62071,-15955 -92320,-1397 -30237,14559 -56246,42858 -78027,84582 -17389,33294 -28928,62210 -34527,86583 -5612,24373 -4416,45738 3523,64248 8016,18345 24021,33923 48117,46569 22020,10896 44845,13426 68539,7486 23706,-5964 43209,-20736 58598,-44102l126596 62624c-21328,31168 -47689,56208 -78718,75120 -31181,18836 -66463,28714 -105646,29557 -39346,755 -80618,-9450 -123765,-30790 -62775,-31055 -105771,-74541 -129275,-130623 -23505,-56081 -13942,-126054 28487,-209818zm872254 520929c27053,-33835 43184,-68551 48369,-104136 4970,-35559 -11400,-67708 -49313,-96434 -38717,-29344 -75157,-37195 -109458,-23656 -34313,13539 -64914,37270 -91867,70980 -26864,33583 -42995,68287 -48142,104097 -5171,35824 11488,68400 50193,97744 37925,28726 74063,36150 108464,22485 34276,-13753 64890,-37497 91754,-71080zm-316949 -239917c23593,-29494 50067,-53880 79801,-73345 29632,-19328 61517,-32225 95315,-38516 33797,-6317 68953,-4769 105356,4680 36389,9261 72628,27670 108841,55101 32262,24448 57642,51690 76000,81864 18346,29959 29306,61731 33068,94836 3762,33118 13,66916 -11337,100927 -11312,34225 -30086,67759 -56434,100701 -32703,40894 -70401,71382 -112906,91477 -42505,20094 -87350,27267 -134586,21529 -47336,-5599 -93528,-25581 -138826,-59894 -49652,-37623 -82430,-79134 -98448,-124394 -15892,-45198 -18283,-89816 -6921,-133907 11363,-44077 31772,-84405 61077,-121059zm357466 607839l420166 -320271 82103 102047 -63204 48167 2856 113c69118,-11023 124772,9689 167063,62235 23567,29280 36351,56257 38528,80807 1925,24523 -3007,52633 -15062,84304 34037,-2227 63443,328 88143,8116 24600,7651 47349,24348 68036,50042 25819,32112 40504,64047 43939,95454 3422,31645 -1712,60322 -15276,86129 -13703,25921 -32350,47777 -56144,65896l-290752 221634 -85185 -105897 253833 -193486c55704,-42454 67305,-83877 34691,-124419 -38177,-47462 -86205,-49211 -143897,-5234l-250801 191170 -87048 -108187 252248 -192278c18006,-13715 31822,-26323 41686,-37761 9639,-11475 14534,-24889 14534,-40164 12,-15276 -7701,-32502 -22939,-51426 -35383,-43990 -80417,-45160 -135064,-3498l-255419 194694 -87035 -108187z"/>
    <path class="fil4" d="M2133217 6992679l375006 -320925 64990 75950 -375006 320925 -64990 -75950zm532316 -129263l134725 122016c30412,27543 51489,50809 63178,69910 15666,25669 23882,53565 24474,83550 755,29972 -5562,60221 -18761,90886 -13212,30513 -35358,63014 -66362,97252 -27292,30149 -54496,52647 -81726,67671 -33256,18396 -65808,28135 -97630,29217 -24108,956 -50193,-4995 -78227,-17666 -20976,-9538 -45009,-26651 -72263,-51338l-138739 -125640 331331 -365858zm18107 128936l-219344 242207 54924 49740c20523,18585 36428,30815 47626,36767 14697,7889 29205,11727 43524,11664 14395,25 31420,-5939 51175,-17817 19843,-11803 42592,-31960 68199,-60247 25606,-28261 42718,-52130 51426,-71848 8782,-19629 12444,-37698 11211,-54320 -1309,-16533 -7386,-32577 -18484,-48053 -8141,-11552 -27242,-31017 -57227,-58171l-33030 -29922zm285618 423853l54232 -77309 77321 54244 -54232 77309 -77321 -54244zm-151246 215581l54245 -77309 77321 54245 -54244 77309 -77322 -54245zm315187 64500l85626 34313c-6908,17541 -8292,32565 -4315,44845 3938,12394 12758,22209 26247,29406 17126,9161 35899,8896 56346,-616 20472,-9525 45714,-38504 75761,-86658 -33961,13099 -66613,11287 -98121,-5562 -34149,-18245 -56698,-47236 -67381,-86960 -10695,-39711 -4693,-80668 17944,-123022 23618,-44178 55691,-72754 96346,-85689 40706,-13023 81348,-8632 121890,13036 44078,23555 71194,60083 81210,109332 9965,49362 -5914,113183 -47828,191611 -42580,79637 -88042,129352 -136272,148906 -48280,19641 -96007,16810 -143217,-8431 -33949,-18144 -56434,-41888 -67671,-71332 -11173,-29305 -10079,-63757 3435,-103179zm285454 -82179c14357,-26851 19340,-51023 14886,-72426 -4366,-21353 -14684,-36377 -30904,-45047 -15401,-8242 -31419,-8984 -48053,-2240 -16723,6682 -32414,23845 -47148,51401 -14999,28072 -20422,51628 -16421,70703 4052,18975 14319,32917 30941,41800 16006,8557 32841,9488 50558,2668 17717,-6820 33093,-22435 46141,-46859zm336239 473530l-89804 -29255 110678 -339749c-42794,20132 -88910,30362 -138285,30589l26688 -81927c25971,0 56170,-6241 90609,-18824 34490,-12444 61430,-31344 80996,-56509l72867 23731 -153749 471944zm503187 -387878c46858,9487 80039,33696 99706,72615 23392,46003 25795,115070 7172,206962 -18597,91767 -47852,154543 -87614,188214 -32954,27783 -72792,36944 -119637,27444 -47073,-9538 -81348,-35358 -102827,-77460 -21479,-42090 -22763,-109773 -3914,-202785 18510,-91314 47727,-153863 87489,-187547 32942,-27770 72779,-36943 119625,-27443zm-15603 77019c-11035,-2240 -21668,-642 -31696,4845 -10104,5322 -19466,16798 -27972,34426 -11161,22687 -22536,62600 -34061,119461 -11539,56976 -16660,96624 -15339,119047 1334,22422 5549,38050 12671,46883 7109,8821 16194,14307 27229,16547 11048,2239 21681,629 31822,-4820 9978,-5347 19340,-16823 27846,-34451 11111,-22486 22460,-62260 34011,-119235 11526,-56862 16635,-96523 15314,-118946 -1321,-22410 -5512,-38151 -12633,-46984 -7097,-8946 -16157,-14533 -27192,-16773zm256916 330186l94673 -7084c2165,21454 9601,38667 22461,51552 12960,12910 28059,19541 45399,20032 19767,553 36754,-7022 50885,-22813 14118,-15817 21705,-39963 22623,-72465 869,-30551 -5272,-53590 -18496,-69268 -13124,-15653 -30602,-23731 -52420,-24348 -27217,-780 -52018,10482 -74289,33760l-76177 -13199 55491 -254966 250146 7084 -2491 88193 -178362 -5058 -17314 83537c21315,-9852 43059,-14533 65116,-13904 42027,1195 77209,17478 105507,48972 28412,31382 41876,71521 40492,120456 -1158,40768 -14017,76730 -38453,108099 -33395,42731 -78580,63291 -135542,61681 -45601,-1296 -82468,-14634 -110478,-39913 -28135,-25392 -44316,-58711 -48771,-100348zm609613 -381436c47613,-4165 86306,9639 116177,41398 35471,37497 57340,103066 65494,196455 8154,93290 -2114,161778 -30715,205327 -23744,35987 -59353,56044 -106966,60209 -47853,4177 -88030,-10872 -120556,-45160 -32514,-34301 -52924,-98838 -61178,-193385 -8116,-92811 2189,-161073 30777,-204635 23732,-35974 59341,-56056 106967,-60209zm6845 78291c-11224,981 -20963,5523 -29028,13614 -8179,7978 -13917,21630 -17075,40932 -4279,24927 -3876,66425 1170,124230 5058,57907 11387,97379 19012,118518 7613,21127 16081,34917 25418,41372 9324,6443 19591,9136 30803,8154 11223,-981 20963,-5536 29154,-13627 8053,-7965 13778,-21617 16949,-40932 4291,-24713 3913,-66085 -1145,-123991 -5058,-57806 -11387,-97278 -19000,-118405 -7625,-21126 -16106,-35043 -25430,-41485 -9336,-6568 -19617,-9362 -30828,-8380zm604378 302227l-91150 24700 -93477 -344883c-24789,40290 -57768,74100 -98952,101342l-22548 -83172c21743,-14219 43587,-35987 65493,-65368 22058,-29306 34251,-59869 36830,-91654l73962 -20044 129842 479079zm196569 -199111l83764 -44682c10633,18749 24386,31508 41347,38114 17075,6580 33559,6555 49627,12 18308,-7461 30803,-21252 37358,-41410 6531,-20158 3738,-45311 -8531,-75421 -11538,-28299 -26449,-46922 -44870,-55918 -18321,-9035 -37572,-9375 -57793,-1145 -25216,10280 -43373,30588 -54358,60863l-75019 18660 -52093 -255696 231751 -94434 33294 81713 -165238 67331 17855 83424c15528,-17616 33546,-30664 53968,-38994 38944,-15867 77699,-15150 116303,2252 38655,17239 67180,48545 85652,93881 15388,37761 18119,75862 8418,114415 -13326,52584 -46368,89615 -99141,111132 -42240,17213 -81360,19868 -117183,8040 -35987,-11878 -64248,-35848 -85111,-72137zm564856 -577527l-71345 58473c-12092,-14596 -24586,-23052 -37383,-25430 -12772,-2378 -25430,503 -38038,8707 -16760,10909 -26047,27632 -27808,50180 -1787,22536 11350,58536 39321,108062 4580,-36151 21454,-63720 50822,-82833 33043,-21491 69659,-27368 109672,-17478 40076,9979 72993,34893 99002,74856 27569,42379 37320,84556 29142,126344 -8179,41775 -31734,75321 -70640,100637 -41700,27129 -86671,33219 -134712,18145 -48054,-15074 -96183,-59555 -144426,-133718 -49438,-75988 -71030,-139934 -64864,-191775 6165,-51854 31658,-92295 76440,-121424 31407,-20422 63166,-28488 95303,-24159 32086,4215 61907,21403 89514,51413zm-67054 290072c16786,25820 35735,41876 56736,48218 20988,6354 39045,4630 54358,-5335 14634,-9526 23102,-23254 25480,-41121 2202,-17880 -5159,-39951 -22209,-66148 -17540,-26978 -35684,-43272 -54395,-49048 -18736,-5637 -35899,-3372 -51703,6908 -15301,9953 -24235,24260 -26990,43184 -2743,18774 3498,39938 18723,63342zm152001 -389690l-56850 -66576 246385 -210422 44757 52407c-3272,37396 579,83663 11463,139040 10972,55315 28840,108792 53817,160306 24939,51514 51690,93792 80140,126759l-69193 59102c-43172,-53037 -77813,-115171 -103809,-186503 -25845,-71294 -40290,-142677 -42806,-214097l-163904 139984zm534543 -513656l-48746 78315c-16143,-9940 -30702,-13929 -43574,-12066 -12860,1849 -23920,8657 -33219,20484 -12369,15716 -15778,34528 -10204,56447 5549,21919 29569,51791 71974,89678 -7286,-35698 -164,-67230 21504,-94774 24372,-30966 57151,-48306 98221,-51804 41159,-3435 80341,9563 117813,39045 39737,31268 62524,68060 68212,110263 5700,42190 -5814,81524 -34528,118002 -30765,39107 -71382,59328 -121713,60511 -50357,1170 -110226,-25480 -179759,-80178 -71244,-56069 -112238,-109672 -123085,-160746 -10834,-51073 302,-97567 33345,-139556 23165,-29444 50646,-47273 82480,-53514 31721,-6330 65494,364 101279,19893zm29771 296237c24197,19038 47312,28161 69231,27418 21919,-729 38466,-8178 49765,-22535 10796,-13728 14395,-29457 10897,-47136 -3662,-17641 -17729,-36163 -42291,-55490 -25292,-19906 -47702,-29507 -67280,-28966 -19554,692 -35081,8368 -46733,23178 -11287,14344 -15150,30765 -11677,49576 3448,18661 16156,36692 38088,53955z"/>
    <rect class="fil2" x="1231947" y="4627435" width="537513" height="55604"/>
    <rect class="fil2" transform="matrix(0.997423 -0.0717406 0.0717406 0.997423 1.23064E+06 4.93867E+06)" width="537513" height="55604"/>
    <rect class="fil2" transform="matrix(0.990758 -0.135639 0.135639 0.990758 1.26051E+06 5.24129E+06)" width="537513" height="55604"/>
    <rect class="fil2" transform="matrix(0.982018 -0.188786 0.188786 0.982018 1.31113E+06 5.50126E+06)" width="537513" height="55604"/>
    <rect class="fil2" transform="matrix(0.966679 -0.255992 0.255992 0.966679 1.39299E+06 5.78842E+06)" width="537513" height="55604"/>
    <rect class="fil2" transform="matrix(0.953421 -0.301642 0.301642 0.953421 1.4981E+06 6.03654E+06)" width="537513" height="55604"/>
    <rect class="fil2" transform="matrix(0.896809 -0.442419 0.442419 0.896809 1.62549E+06 6.31808E+06)" width="537513" height="55604"/>
    <rect class="fil2" transform="matrix(0.836654 -0.547732 0.547732 0.836654 1.788E+06 6.58024E+06)" width="537513" height="55604"/>
    <rect class="fil2" transform="matrix(0.991283 0.131754 0.131754 -0.991283 1.23439E+06 4.3893E+06)" width="537513" height="55604"/>
    <rect class="fil2" transform="matrix(0.980777 0.195133 0.195133 -0.980777 1.28244E+06 4.08903E+06)" width="537513" height="55604"/>
    <rect class="fil2" transform="matrix(0.968848 0.247657 0.247657 -0.968848 1.34865E+06 3.83259E+06)" width="537513" height="55604"/>
    <rect class="fil2" transform="matrix(0.949484 0.313816 0.313816 -0.949484 1.44768E+06 3.55089E+06)" width="537513" height="55604"/>
    <rect class="fil2" x="7760685" y="4654073" width="537513" height="55604"/>
    <rect class="fil2" transform="matrix(-0.997423 -0.0717406 -0.0717406 0.997423 8.2995E+06 4.96531E+06)" width="537513" height="55604"/>
    <rect class="fil2" transform="matrix(-0.990758 -0.135639 -0.135639 0.990758 8.26964E+06 5.26793E+06)" width="537513" height="55604"/>
    <rect class="fil2" transform="matrix(-0.982018 -0.188786 -0.188786 0.982018 8.21902E+06 5.5279E+06)" width="537513" height="55604"/>
    <rect class="fil2" transform="matrix(-0.966679 -0.255992 -0.255992 0.966679 8.13715E+06 5.81506E+06)" width="537513" height="55604"/>
    <rect class="fil2" transform="matrix(-0.953421 -0.301642 -0.301642 0.953421 8.03204E+06 6.06318E+06)" width="537513" height="55604"/>
    <rect class="fil2" transform="matrix(-0.896809 -0.442419 -0.442419 0.896809 7.90465E+06 6.34472E+06)" width="537513" height="55604"/>
    <rect class="fil2" transform="matrix(-0.836654 -0.547732 -0.547732 0.836654 7.74214E+06 6.60688E+06)" width="537513" height="55604"/>
    <rect class="fil2" transform="matrix(-0.991283 0.131754 -0.131754 -0.991283 8.29575E+06 4.41594E+06)" width="537513" height="55604"/>
    <rect class="fil2" transform="matrix(-0.980777 0.195133 -0.195133 -0.980777 8.2477E+06 4.11567E+06)" width="537513" height="55604"/>
    <rect class="fil2" transform="matrix(-0.968848 0.247657 -0.247657 -0.968848 8.18149E+06 3.85923E+06)" width="537513" height="55604"/>
    <rect class="fil2" transform="matrix(-0.949484 0.313816 -0.313816 -0.949484 8.08246E+06 3.57753E+06)" width="537513" height="55604"/>
   </g>
   <g id="_1315353860256">
    <polygon class="fil4" points="9812579,1713580 9812579,1616830 10477166,1616830 10477166,1713580 10199614,1713580 10199614,2407296 10088055,2407296 10088055,1713580 "/>
    <path id="1" class="fil4" d="M10581138 2152230l0 -535400 111559 0 0 515619c0,39208 7776,74201 23329,104627 15552,30412 39082,54232 70375,71646 31307,17402 69445,26009 114404,26009 42882,0 80832,-8418 113270,-25279 32640,-17037 57680,-40680 74943,-71093 17252,-30425 25984,-65053 25984,-103896l0 -517633 111559 0 0 530819c0,54610 -13841,103343 -41561,146037 -27695,42882 -66966,76050 -117989,99870 -51036,23819 -109861,35722 -176071,35722 -53113,0 -103582,-10808 -151384,-32614 -47626,-21807 -85954,-53503 -114970,-95454 -29028,-41964 -43448,-91628 -43448,-148980zm286851 -738789l0 111031 -104727 0 0 -111031 104727 0zm184413 0l0 111031 -104726 0 0 -111031 104726 0z"/>
    <polygon id="2" class="fil4" points="11695360,2291861 11926632,1616830 12050510,1616830 11753417,2407296 11635025,2407296 11337919,1616830 11459721,1616830 "/>
    <path id="3" class="fil4" d="M12175722 2407296l0 -790466 389300 0c46305,0 88986,8431 128257,25279 39082,17050 70388,41788 93918,74767 23328,32791 35093,72012 35093,117637 0,86117 -37572,147320 -112692,183596 30539,9161 53113,25103 67545,47828 14420,22712 23530,48733 27116,77875 3813,29318 5511,66877 5511,112868 755,40856 3800,71822 8909,92899 5121,21076 17087,34451 35484,39937l0 17780 -136600 0c-8531,-26386 -13476,-67243 -14608,-122582 -1133,-55339 -3033,-94736 -5499,-118002 -2479,-23278 -13665,-45260 -33395,-65971 -19918,-20699 -53691,-30967 -101304,-30967l-277753 0 0 337522 -109282 0zm109282 -429867l280018 0c30928,0 57113,-6229 78177,-18509 21240,-12457 37371,-28765 47991,-49287 10808,-20523 16886,-42140 18408,-65041 0,-38478 -10632,-70552 -31884,-96573 -21240,-25833 -55768,-38843 -103582,-38843l-289128 0 0 268253z"/>
    <path id="4" class="fil4" d="M13456150 2017191l0 390105 -100184 0 0 -376000c0,-42694 -8343,-74755 -24851,-96196 -16685,-21617 -47425,-32426 -92384,-32426 -46871,0 -86519,15200 -118769,45802 -32451,30601 -48570,79158 -48570,145495l0 313325 -100171 0 0 -790466 100171 0 0 292626c23518,-27304 40404,-45814 50659,-55528 10054,-9890 25417,-18509 45537,-25832 20296,-7512 46859,-11174 80052,-11174 35849,0 69243,5675 100361,17226 31117,11539 56912,32237 77409,62109 20485,29683 30740,69998 30740,120934z"/>
    <path id="5" class="fil4" d="M14010310 2226808l102638 0c-3611,21441 -14218,48016 -31872,79523 -17641,31709 -42882,57907 -75321,78794 -17263,11916 -38314,21441 -62977,28764 -24675,7336 -57868,10998 -99794,10998 -45537,0 -86130,-8984 -122003,-26751 -36037,-17780 -65632,-42518 -88785,-74390 -36993,-52043 -55578,-114529 -55578,-187081 0,-51124 7386,-98033 22184,-140727 14797,-42505 37006,-78064 66412,-106463 26185,-26386 56144,-46531 89929,-60461 33949,-13929 68476,-20887 103972,-20887 28072,0 55767,4580 82896,13740 27141,9349 51979,23266 74754,42140 22574,18698 41348,41599 56346,68350 31118,59366 46670,132472 46670,219873l-436159 0c0,60473 14597,107016 44003,139442 29229,32439 72288,48558 129011,48558 29595,0 55969,-6229 79121,-18510 23140,-12457 41171,-27481 53867,-45436 12910,-17956 19743,-34452 20686,-49476zm-326688 -152630l331432 0c-2655,-50016 -16886,-91250 -42693,-123311 -25795,-32074 -66589,-48193 -122557,-48193 -30161,0 -58045,8066 -83475,24185 -25430,16118 -45726,37383 -60523,63769 -14785,26563 -22184,54421 -22184,83550z"/>
    <path id="6" class="fil4" d="M14238928 1619032l102437 0 0 109936 -102437 0 0 -109936zm0 215481l102437 0 0 572783 -102437 0 0 -572783z"/>
    <path id="7" class="fil4" d="M14492585 2407296l0 -574985 95428 0 0 83550c4165,-7877 14030,-19780 29595,-35546 15741,-15754 36993,-30413 63745,-43612 26939,-13187 57667,-19781 92395,-19781 43449,919 80253,9161 110792,24549 30551,15389 53502,38114 69256,67797 15741,29683 23706,65594 23706,107923l0 390105 -100172 0 0 -356207c0,-45802 -8342,-81902 -24851,-108477 -16697,-26562 -47425,-39938 -92383,-39938 -32841,0 -62046,7512 -87652,22347 -25443,15024 -45160,35924 -59014,62676 -13841,26927 -20673,57163 -20673,90873l0 328726 -100172 0z"/>
    <polygon id="8" class="fil4" points="15228869,1616830 15228869,2407296 15128710,2407296 15128710,1616830 "/>
    <path id="9" class="fil4" d="M15347085 2252099c2453,-29682 9475,-56069 20673,-79158 11186,-23090 31495,-43423 61090,-60838 29595,-17591 71345,-30224 125413,-37925 7399,-1283 25417,-2378 53880,-3485 28261,-1095 51790,-3297 70577,-6594 18584,-3485 34326,-10255 47236,-20522 13086,-10255 19541,-25833 19541,-46355 0,-64135 -45902,-97844 -137933,-101141 -85941,0 -131654,37371 -137543,112138l-93340 0c0,-33357 8733,-64864 25997,-94006 17439,-29318 43826,-52773 79485,-70540 35471,-17779 78920,-26751 130346,-26751 40970,0 79108,5122 114202,15200 34904,10268 63178,26752 84619,49300 21429,22712 32061,51489 32061,86293l0 327254c0,17226 1888,29142 5499,35735 3800,6594 11387,10444 23152,11539 13854,-2743 26374,-4392 37560,-5310l0 70363c-11954,7323 -33961,10997 -66211,10997 -58435,0 -89552,-28588 -93528,-85940 -55780,58271 -127112,89048 -214009,92534 -35106,0 -67343,-7701 -96372,-22901 -29230,-15401 -52181,-35546 -68689,-60473 -16308,-25103 -25040,-51300 -25996,-78416 1535,-2932 2290,-6606 2290,-10998zm396132 -139442c-6644,8430 -24096,15023 -52181,20157 -27871,5134 -62788,11727 -104337,19969 -41548,8066 -74565,20347 -98649,37019 -24109,16483 -36251,40303 -36251,71093 6266,54785 41171,83374 104739,85928 27318,-1825 55579,-7877 84230,-18132 28840,-10267 53125,-24926 72854,-44166 19730,-19050 29595,-41951 29595,-68702l0 -103166z"/>
    <path id="10" class="fil4" d="M16013949 2407296l0 -574985 95428 0 0 83550c4165,-7877 14030,-19780 29583,-35546 15753,-15754 37006,-30413 63757,-43612 26940,-13187 57667,-19781 92396,-19781 43448,919 80253,9161 110791,24549 30551,15389 53503,38114 69256,67797 15741,29683 23706,65594 23706,107923l0 390105 -100172 0 0 -356207c0,-45802 -8355,-81902 -24851,-108477 -16697,-26562 -47424,-39938 -92383,-39938 -32841,0 -62046,7512 -87664,22347 -25430,15024 -45148,35924 -59001,62676 -13854,26927 -20674,57163 -20674,90873l0 328726 -100172 0z"/>
    <path id="11" class="fil4" d="M17141824 1616830l0 790466 -93340 0 0 -79159c-11576,20158 -25996,36830 -43058,50206 -17088,13199 -34540,23089 -52383,29872 -17817,6782 -33382,11362 -46279,13375 -13099,2202 -23518,3297 -31306,3297 -62801,0 -113837,-16131 -152919,-48557 -39070,-32439 -66777,-72930 -83097,-121664 -16509,-48746 -24663,-99505 -24663,-152088 0,-54056 9689,-102978 29230,-146213 19340,-43436 47802,-77510 85173,-102248 37560,-24738 81764,-37195 132611,-37195 47437,0 83852,9161 109470,27670 25619,18497 48381,41586 68111,69080l0 -296842 102450 0zm-424583 502420c0,66702 13653,120015 40769,160519 27329,40303 67167,60461 119914,60461 40793,0 78164,-15024 112327,-45261 34326,-30048 51401,-79146 51401,-147131 0,-163438 -53880,-245164 -161438,-245164 -67167,0 -110993,21618 -131868,64865 -20674,43234 -31105,93817 -31105,151711z"/>
    <polygon class="fil4" points="9823048,5790290 10052533,5790290 10052533,6668156 9823048,6668156 "/>
    <path id="1" class="fil4" d="M10779707 5803992l-13224 157902c-35358,-13489 -69533,-23819 -102953,-30777 -33206,-6959 -64235,-10545 -92861,-10545 -44266,0 -78416,7802 -102475,23404 -24297,15817 -36314,37736 -36314,66198 0,26361 10092,48709 30300,66828 20208,17930 61580,40064 124117,65997 104160,44052 171516,84330 202067,121009 30791,36679 46179,84745 46179,144413 0,84544 -31734,151157 -95013,200067 -63492,49123 -150100,73584 -260036,73584 -38000,0 -77926,-3171 -119789,-9487 -41611,-6543 -87073,-16031 -135907,-28676l17566 -157902c42328,18131 82266,31406 120015,40051 37534,8644 73861,13073 108501,13073 45701,0 81298,-9059 106804,-27405 25744,-18346 38490,-43851 38490,-76315 0,-45751 -53414,-92345 -159965,-139783 -13237,-5687 -23102,-10116 -29595,-12859 -84670,-37522 -141192,-73786 -169340,-108779 -28147,-35005 -42341,-79901 -42341,-134510 0,-82430 30790,-147156 92610,-193952 61819,-47022 147458,-70413 256916,-70413 33193,0 67821,2315 103431,7159 35848,4643 73358,12017 112817,21718z"/>
    <path id="2" class="fil4" d="M11364004 5923101c-57730,0 -102236,26575 -133504,79700 -31269,53125 -46909,128383 -46909,226000 0,97605 15640,172876 46909,225786 31268,52924 75774,79486 133504,79486 57730,0 102235,-26562 133503,-79486 31269,-52910 46909,-128181 46909,-225786 0,-97617 -15640,-172875 -47148,-226000 -31520,-53125 -76000,-79700 -133264,-79700zm0 -147986c133503,0 237664,39837 312242,119738 74805,79901 112101,191221 112101,333948 0,143356 -37296,254676 -112101,334150 -74578,79485 -178739,119121 -312242,119121 -134461,0 -238621,-39636 -312948,-118907 -74327,-79272 -111371,-190580 -111371,-334364 0,-142727 37283,-254047 112088,-333948 74566,-79901 178727,-119738 312231,-119738z"/>
    <path id="3" class="fil4" d="M12318033 6650024l13464 -151158c24537,12017 49790,21504 75774,28463 26222,6958 49312,10544 69520,10544 72892,0 126533,-18774 161173,-56296 34402,-37522 55088,-99303 61568,-185319 -21152,18975 -45688,33520 -73597,43436 -28148,9902 -58938,14759 -92848,14759 -77460,0 -140488,-25719 -189322,-77158 -48595,-51451 -72879,-118492 -72879,-200708 0,-91075 27908,-164018 83461,-219042 55805,-55025 129415,-82430 221081,-82430 113283,0 197965,36049 253770,108363 56044,72301 83940,181507 83940,328034 0,152429 -33193,268795 -99329,349551 -66399,80744 -162142,121009 -287706,121009 -33432,0 -67595,-2743 -102953,-8229 -35118,-5687 -70250,-13489 -105117,-23819zm271576 -734510c-33911,0 -59656,12230 -77209,36477 -17565,24248 -26461,59656 -26461,106464 0,50180 8405,87916 25002,113006 16597,25078 41863,37522 75786,37522 35358,0 61820,-11803 79373,-35421 17565,-23605 26461,-59453 26461,-107520 0,-51438 -8418,-89388 -25014,-113837 -16836,-24461 -42820,-36691 -77938,-36691z"/>
    <path id="4" class="fil4" d="M13359376 5923101c-39208,0 -67369,23618 -84431,70842 -17088,47009 -25745,125438 -25745,234858 0,109622 8657,187837 25745,234859 17062,47009 45223,70413 84431,70413 38478,0 66387,-23819 83474,-71257 17062,-47651 25719,-125652 25719,-234015 0,-108149 -8657,-186364 -25719,-234015 -17087,-47853 -44996,-71685 -83474,-71685zm-1926 -147986c105595,0 186893,38994 243906,116995 56774,78013 85160,190164 85160,336691 0,145885 -28638,257835 -85651,336050 -56987,78214 -138071,117221 -243415,117221 -106576,0 -187874,-38793 -243679,-116378 -56056,-77586 -83952,-189951 -83952,-336893 0,-147571 27896,-260162 83952,-337534 55805,-77372 137103,-116152 243679,-116152z"/>
    <path id="5" class="fil4" d="M14116862 5923101c-39208,0 -67369,23618 -84431,70842 -17088,47009 -25744,125438 -25744,234858 0,109622 8656,187837 25744,234859 17062,47009 45223,70413 84431,70413 38478,0 66387,-23819 83474,-71257 17063,-47651 25732,-125652 25732,-234015 0,-108149 -8669,-186364 -25732,-234015 -17087,-47853 -44996,-71685 -83474,-71685zm-1925 -147986c105595,0 186905,38994 243918,116995 56761,78013 85148,190164 85148,336691 0,145885 -28626,257835 -85639,336050 -57000,78214 -138071,117221 -243427,117221 -106564,0 -187875,-38793 -243679,-116378 -56057,-77586 -83940,-189951 -83940,-336893 0,-147571 27883,-260162 83940,-337534 55804,-77372 137115,-116152 243679,-116152z"/>
    <polygon id="6" class="fil4" points="14846691,5790290 15009538,5790290 15009538,6668156 14803142,6668156 14803142,6015233 14674684,6125081 14572222,5988670 "/>
    <path class="fil6" d="M9832284 3884482c5473,-150616 30551,-285819 75232,-405167 44229,-119788 105331,-220640 183307,-302994 78429,-82355 172372,-145332 282258,-188932 110339,-43599 232543,-66059 367519,-67381 159135,0 300490,29507 424066,88521 123576,59453 221156,140487 293658,243540 72503,103494 114907,217998 128131,344392l-413585 0c-54710,-216236 -193335,-326335 -415862,-330299 -164609,0 -290915,59894 -378454,179683 -88004,119788 -133151,286259 -135882,498972 3649,3963 5474,9248 5474,16295 2277,108338 20975,209189 57000,302541 35559,93365 88445,169113 159576,226805 70677,57693 157323,86319 259910,86319 244875,0 394434,-118908 448238,-356723l413585 0c-26449,134762 -74779,254990 -145910,360246 -70678,104815 -165074,188050 -283177,248825 -118102,60775 -256714,92044 -416768,93805 -173731,0 -329230,-36113 -466005,-107898 -137253,-71785 -245780,-181004 -325581,-328537 -79800,-147093 -120380,-329406 -122204,-546523 3649,-15854 5474,-34351 5474,-55490z"/>
    <polygon id="1" class="fil6" points="11894709,4870082 11894709,2970214 13341999,2970214 13341999,3305798 12296894,3305798 12296894,3710084 13257190,3710084 13257190,4043026 12296894,4043026 12296894,4534498 13386240,4534498 13386240,4870082 "/>
    <path id="2" class="fil6" d="M13722302 4870082l0 -1899868 998598 0c134976,0 248977,25543 341083,76189 92106,50646 160507,116265 204735,196858 44229,80153 67494,166471 69772,258074 0,69143 -11853,134762 -35119,197299 -23253,62536 -57906,116265 -103959,162067 -46053,45361 -100776,79271 -165074,100411 99870,31268 165980,81473 198356,151497 32375,69583 48343,160292 48343,271273l0 79272c0,36993 -1825,66060 -5474,87199 3649,83675 11400,147093 23253,189812 11853,42718 36025,68261 72503,77069l0 52848 -454165 0c-14596,-41397 -25078,-87639 -31923,-139166 -6832,-51967 -10947,-107017 -12306,-166471 -1371,-59013 -3196,-115824 -5020,-169994 -2731,-64298 -9576,-114063 -20976,-148854 -11400,-34779 -38755,-62965 -81625,-84985 -42857,-22020 -109885,-33030 -200633,-33030l-438184 0 0 742500 -402185 0zm402185 -1062229l511140 0c107620,0 183319,-23341 226176,-69583 42857,-46242 64298,-110981 64298,-194216 0,-67381 -21441,-124633 -64751,-172196 -43323,-47563 -114454,-71345 -214323,-71345l-522540 0 0 507340z"/>
    <polygon id="3" class="fil6" points="16121243,4870082 16121243,3305798 15530278,3305798 15530278,2970214 17127605,2970214 17127605,3305798 16534362,3305798 16534362,4870082 "/>
    <polygon class="fil4" points="9815032,7241140 10044518,7241140 10044518,8119006 9815032,8119006 "/>
    <path id="1" class="fil4" d="M10771692 7254843l-13224 157901c-35358,-13488 -69533,-23819 -102953,-30777 -33206,-6959 -64235,-10545 -92861,-10545 -44267,0 -78417,7802 -102475,23404 -24297,15817 -36314,37736 -36314,66199 0,26361 10092,48708 30300,66827 20208,17931 61580,40064 124117,65997 104160,44052 171516,84330 202067,121009 30790,36679 46179,84745 46179,144413 0,84544 -31734,151158 -95013,200067 -63493,49123 -150100,73584 -260036,73584 -38001,0 -77926,-3170 -119789,-9487 -41611,-6543 -87073,-16031 -135907,-28676l17566 -157902c42328,18132 82266,31407 120015,40051 37534,8644 73861,13074 108501,13074 45701,0 81298,-9060 106803,-27406 25745,-18346 38491,-43851 38491,-76315 0,-45751 -53414,-92345 -159965,-139782 -13237,-5688 -23102,-10117 -29595,-12860 -84670,-37522 -141192,-73786 -169340,-108778 -28148,-35006 -42341,-79901 -42341,-134511 0,-82430 30790,-147156 92610,-193952 61819,-47022 147458,-70413 256916,-70413 33193,0 67821,2315 103431,7160 35848,4643 73357,12016 112817,21718z"/>
    <path id="2" class="fil4" d="M11355988 7373952c-57730,0 -102235,26574 -133503,79699 -31269,53125 -46909,128383 -46909,226000 0,97605 15640,172876 46909,225787 31268,52923 75773,79485 133503,79485 57730,0 102236,-26562 133504,-79485 31268,-52911 46909,-128182 46909,-225787 0,-97617 -15641,-172875 -47148,-226000 -31520,-53125 -76000,-79699 -133265,-79699zm0 -147987c133504,0 237665,39837 312243,119738 74805,79901 112101,191221 112101,333948 0,143356 -37296,254677 -112101,334150 -74578,79486 -178739,119121 -312243,119121 -134460,0 -238620,-39635 -312947,-118907 -74327,-79272 -111371,-190580 -111371,-334364 0,-142727 37283,-254047 112088,-333948 74566,-79901 178727,-119738 312230,-119738z"/>
    <polygon id="3" class="fil4" points="12566205,7241140 12729051,7241140 12729051,8119006 12522655,8119006 12522655,7466083 12394210,7575931 12291735,7439521 "/>
    <path id="4" class="fil4" d="M13386945 7445636l-214802 362197 214802 0 0 -362197zm-40882 -204496l241515 0 0 566693 106803 0 0 137882 -106803 0 0 173291 -206396 0 0 -173291 -366601 0 0 -173089 331482 -531486z"/>
    <path id="5" class="fil4" d="M14108846 7373952c-39208,0 -67368,23618 -84430,70841 -17088,47009 -25745,125438 -25745,234858 0,109622 8657,187837 25745,234859 17062,47009 45222,70413 84430,70413 38479,0 66387,-23819 83475,-71256 17062,-47651 25732,-125652 25732,-234016 0,-108149 -8670,-186364 -25732,-234015 -17088,-47853 -44996,-71684 -83475,-71684zm-1925 -147987c105595,0 186906,38994 243918,116995 56762,78014 85148,190164 85148,336691 0,145886 -28626,257835 -85638,336050 -57001,78215 -138072,117221 -243428,117221 -106564,0 -187874,-38792 -243679,-116378 -56056,-77586 -83940,-189950 -83940,-336893 0,-147571 27884,-260162 83940,-337534 55805,-77372 137115,-116152 243679,-116152z"/>
    <path id="6" class="fil4" d="M14866333 7373952c-39208,0 -67356,23618 -84431,70841 -17088,47009 -25745,125438 -25745,234858 0,109622 8657,187837 25745,234859 17075,47009 45223,70413 84431,70413 38478,0 66387,-23819 83474,-71256 17075,-47651 25732,-125652 25732,-234016 0,-108149 -8657,-186364 -25732,-234015 -17087,-47853 -44996,-71684 -83474,-71684zm-1926 -147987c105608,0 186906,38994 243919,116995 56761,78014 85148,190164 85148,336691 0,145886 -28626,257835 -85639,336050 -57000,78215 -138072,117221 -243428,117221 -106563,0 -187874,-38792 -243679,-116378 -56043,-77586 -83940,-189950 -83940,-336893 0,-147571 27897,-260162 83940,-337534 55805,-77372 137116,-116152 243679,-116152z"/>
    <polygon id="7" class="fil4" points="15596162,7241140 15759009,7241140 15759009,8119006 15552613,8119006 15552613,7466083 15424167,7575931 15321693,7439521 "/>
   </g>
  </g>
 </g>
</svg>
