<?xml version="1.0" encoding="utf-8"?>
<!-- Generator: Adobe Illustrator 15.0.0, SVG Export Plug-In . SVG Version: 6.00 Build 0)  -->
<!DOCTYPE svg PUBLIC "-//W3C//DTD SVG 1.1//EN" "http://www.w3.org/Graphics/SVG/1.1/DTD/svg11.dtd">
<svg version="1.1" id="Layer_1" xmlns="http://www.w3.org/2000/svg" xmlns:xlink="http://www.w3.org/1999/xlink" x="0px" y="0px"
	 width="320.815px" height="80px" viewBox="0 0 320.815 80" enable-background="new 0 0 320.815 80" xml:space="preserve">
<g>
	<rect fill="#FFFFFF" width="117.804" height="80"/>
	<rect x="2.265" y="2.197" fill="#2B3282" width="113.275" height="75.517"/>
	<polygon fill="#F7E326" points="56.485,18.647 58.885,16.903 61.274,18.647 60.357,15.828 62.791,14.084 59.791,14.084 
		58.885,11.231 57.968,14.084 54.968,14.084 57.402,15.828 	"/>
	<polygon fill="#F7E326" points="44.122,21.976 46.51,20.232 48.899,21.976 47.994,19.146 50.417,17.402 47.428,17.402 
		46.51,14.548 45.593,17.413 42.604,17.402 45.027,19.146 	"/>
	<polygon fill="#F7E326" points="37.464,23.617 36.547,26.482 33.558,26.482 35.981,28.226 35.075,31.044 37.464,29.301 
		39.853,31.044 38.936,28.226 41.37,26.482 38.381,26.482 	"/>
	<polygon fill="#F7E326" points="34.136,41.653 36.524,43.397 35.619,40.578 38.042,38.834 35.053,38.834 34.136,35.969 
		33.23,38.834 30.229,38.834 32.664,40.578 31.747,43.397 	"/>
	<polygon fill="#F7E326" points="38.381,51.22 37.464,48.367 36.547,51.22 33.558,51.22 35.981,52.963 35.075,55.783 37.464,54.04 
		39.853,55.783 38.936,52.963 41.37,51.22 	"/>
	<polygon fill="#F7E326" points="47.439,60.289 46.533,57.436 45.616,60.289 42.616,60.289 45.05,62.033 44.144,64.852 
		46.533,63.108 48.922,64.852 48.005,62.033 50.439,60.289 	"/>
	<polygon fill="#F7E326" points="59.802,63.573 58.885,60.719 57.968,63.583 54.979,63.573 57.402,65.316 56.497,68.146 
		58.885,66.391 61.274,68.146 60.357,65.316 62.791,63.573 	"/>
	<polygon fill="#F7E326" points="72.154,60.289 71.237,57.436 70.32,60.289 67.331,60.289 69.754,62.033 68.849,64.852 
		71.237,63.108 73.626,64.852 72.72,62.033 75.144,60.289 	"/>
	<polygon fill="#F7E326" points="81.223,51.22 80.306,48.367 79.389,51.22 76.4,51.22 78.823,52.963 77.917,55.783 80.306,54.04 
		82.695,55.783 81.789,52.963 84.212,51.22 	"/>
	<polygon fill="#F7E326" points="87.496,38.8 84.506,38.8 83.589,35.936 82.672,38.8 79.683,38.8 82.106,40.543 81.2,43.363 
		83.589,41.62 85.979,43.363 85.073,40.543 	"/>
	<polygon fill="#F7E326" points="77.917,31.011 80.306,29.256 82.695,31.011 81.789,28.18 84.212,26.448 81.223,26.448 
		80.306,23.583 79.389,26.448 76.4,26.448 78.823,28.18 	"/>
	<polygon fill="#F7E326" points="71.271,14.548 70.354,17.413 67.365,17.402 69.788,19.157 68.882,21.976 71.271,20.232 
		73.66,21.976 72.754,19.157 75.177,17.402 72.188,17.402 	"/>
	<polygon fill="#2B3282" points="129.567,19.055 129.567,2.197 141.127,2.197 141.127,5.049 132.964,5.049 132.964,9.035 
		140.006,9.035 140.006,11.888 132.964,11.888 132.964,19.055 	"/>
	<path fill="#2B3282" d="M143.912,19.055V6.838h3.238v12.216H143.912z M143.912,5.186V2.197h3.238v2.989H143.912z"/>
	<path fill="#2B3282" d="M161.574,19.055h-3.238v-6.227c0-1.325-0.068-2.174-0.204-2.57c-0.136-0.385-0.362-0.679-0.668-0.895
		c-0.317-0.215-0.69-0.329-1.121-0.329c-0.566,0-1.064,0.159-1.517,0.464c-0.442,0.306-0.748,0.713-0.906,1.223
		c-0.17,0.498-0.249,1.438-0.249,2.808v5.525h-3.238V6.838h3v1.8c1.076-1.381,2.412-2.072,4.031-2.072
		c0.713,0,1.37,0.125,1.958,0.385c0.589,0.249,1.042,0.578,1.336,0.985c0.306,0.396,0.521,0.849,0.634,1.359
		c0.125,0.498,0.181,1.223,0.181,2.174V19.055z"/>
	<path fill="#2B3282" d="M171.594,13.19c-0.407,0.136-1.064,0.306-1.97,0.498c-0.895,0.193-1.483,0.374-1.755,0.566
		c-0.419,0.294-0.634,0.679-0.634,1.132c0,0.453,0.17,0.849,0.509,1.178c0.34,0.328,0.759,0.498,1.291,0.498
		c0.578,0,1.132-0.192,1.664-0.578c0.385-0.294,0.646-0.645,0.771-1.075c0.079-0.272,0.124-0.804,0.124-1.574V13.19z
		 M167.269,10.563l-2.932-0.521c0.328-1.189,0.895-2.061,1.698-2.626c0.804-0.566,2.004-0.849,3.589-0.849
		c1.449,0,2.524,0.169,3.227,0.509s1.2,0.77,1.495,1.302c0.283,0.521,0.43,1.483,0.43,2.887l-0.034,3.782
		c0,1.076,0.046,1.868,0.147,2.377s0.306,1.053,0.589,1.63h-3.204c-0.079-0.215-0.181-0.532-0.306-0.951
		c-0.057-0.192-0.091-0.317-0.125-0.374c-0.543,0.532-1.132,0.94-1.766,1.2c-0.635,0.271-1.302,0.408-2.016,0.408
		c-1.257,0-2.253-0.34-2.978-1.03c-0.725-0.679-1.087-1.54-1.087-2.582c0-0.69,0.17-1.313,0.498-1.845
		c0.328-0.543,0.793-0.962,1.393-1.246c0.589-0.294,1.449-0.543,2.57-0.758c1.506-0.283,2.559-0.544,3.136-0.793v-0.317
		c0-0.623-0.146-1.064-0.453-1.336c-0.316-0.26-0.894-0.396-1.743-0.396c-0.577,0-1.019,0.113-1.348,0.34
		C167.733,9.601,167.473,9.998,167.269,10.563L167.269,10.563z"/>
	<path fill="#2B3282" d="M189.075,19.055h-3.238v-6.227c0-1.325-0.068-2.174-0.204-2.57c-0.136-0.385-0.362-0.679-0.668-0.895
		c-0.316-0.215-0.69-0.329-1.121-0.329c-0.565,0-1.063,0.159-1.517,0.464c-0.441,0.306-0.747,0.713-0.905,1.223
		c-0.171,0.498-0.25,1.438-0.25,2.808v5.525h-3.238V6.838h3.001v1.8c1.075-1.381,2.411-2.072,4.03-2.072
		c0.714,0,1.37,0.125,1.959,0.385c0.589,0.249,1.041,0.578,1.336,0.985c0.306,0.396,0.521,0.849,0.634,1.359
		c0.125,0.498,0.182,1.223,0.182,2.174V19.055z"/>
	<path fill="#2B3282" d="M203.012,10.45l-3.192,0.578c-0.102-0.634-0.352-1.121-0.725-1.438c-0.385-0.317-0.872-0.487-1.483-0.487
		c-0.804,0-1.449,0.283-1.925,0.838c-0.486,0.555-0.724,1.483-0.724,2.786c0,1.449,0.248,2.479,0.735,3.079s1.144,0.895,1.959,0.895
		c0.611,0,1.12-0.17,1.506-0.521c0.396-0.351,0.668-0.951,0.826-1.8l3.182,0.543c-0.329,1.449-0.963,2.559-1.902,3.294
		c-0.929,0.748-2.186,1.121-3.759,1.121c-1.789,0-3.216-0.566-4.279-1.698c-1.064-1.121-1.585-2.684-1.585-4.676
		c0-2.015,0.531-3.589,1.596-4.71c1.064-1.132,2.503-1.687,4.325-1.687c1.482,0,2.672,0.317,3.555,0.962
		C201.993,8.163,202.627,9.137,203.012,10.45L203.012,10.45z"/>
	<path fill="#2B3282" d="M205.458,19.055V6.838h3.237v12.216H205.458z M205.458,5.186V2.197h3.237v2.989H205.458z"/>
	<path fill="#2B3282" d="M218.749,13.19c-0.419,0.136-1.075,0.306-1.97,0.498c-0.895,0.193-1.482,0.374-1.755,0.566
		c-0.43,0.294-0.634,0.679-0.634,1.132c0,0.453,0.17,0.849,0.51,1.178c0.328,0.328,0.759,0.498,1.279,0.498
		c0.588,0,1.144-0.192,1.676-0.578c0.385-0.294,0.645-0.645,0.77-1.075c0.079-0.272,0.124-0.804,0.124-1.574V13.19z M214.425,10.563
		l-2.933-0.521c0.328-1.189,0.895-2.061,1.698-2.626c0.804-0.566,2.004-0.849,3.589-0.849c1.449,0,2.514,0.169,3.227,0.509
		c0.702,0.34,1.2,0.77,1.483,1.302c0.294,0.521,0.441,1.483,0.441,2.887l-0.045,3.782c0,1.076,0.057,1.868,0.158,2.377
		c0.103,0.509,0.294,1.053,0.577,1.63h-3.192c-0.091-0.215-0.192-0.532-0.306-0.951c-0.057-0.192-0.102-0.317-0.124-0.374
		c-0.544,0.532-1.144,0.94-1.767,1.2c-0.634,0.271-1.302,0.408-2.016,0.408c-1.256,0-2.253-0.34-2.978-1.03
		c-0.725-0.679-1.087-1.54-1.087-2.582c0-0.69,0.17-1.313,0.498-1.845c0.328-0.543,0.793-0.962,1.382-1.246
		c0.6-0.294,1.46-0.543,2.581-0.758c1.506-0.283,2.559-0.544,3.136-0.793v-0.317c0-0.623-0.158-1.064-0.464-1.336
		c-0.306-0.26-0.883-0.396-1.732-0.396c-0.577,0-1.03,0.113-1.347,0.34C214.889,9.601,214.617,9.998,214.425,10.563L214.425,10.563z
		"/>
	<path fill="#2B3282" d="M227.693,12.681c0,1.313,0.182,2.253,0.532,2.831c0.521,0.849,1.257,1.268,2.197,1.268
		c0.735,0,1.369-0.317,1.89-0.951c0.521-0.634,0.782-1.574,0.782-2.831c0-1.404-0.25-2.412-0.759-3.034
		c-0.498-0.623-1.155-0.929-1.948-0.929c-0.758,0-1.403,0.306-1.924,0.917C227.954,10.563,227.693,11.469,227.693,12.681
		L227.693,12.681z M236.32,19.055h-3v-1.789c-0.498,0.702-1.087,1.211-1.766,1.562c-0.68,0.34-1.37,0.51-2.061,0.51
		c-1.404,0-2.604-0.566-3.601-1.698c-1.008-1.132-1.506-2.706-1.506-4.733c0-2.072,0.486-3.646,1.461-4.732
		c0.974-1.075,2.207-1.607,3.69-1.607c1.37,0,2.547,0.566,3.544,1.698V2.197h3.237V19.055z"/>
	<path fill="#2B3282" d="M242.072,12.952c0,1.211,0.283,2.14,0.86,2.785c0.577,0.646,1.291,0.962,2.129,0.962
		c0.849,0,1.551-0.317,2.128-0.962c0.566-0.645,0.86-1.585,0.86-2.808c0-1.2-0.294-2.117-0.86-2.763
		c-0.577-0.646-1.279-0.974-2.128-0.974c-0.838,0-1.552,0.328-2.129,0.974S242.072,11.741,242.072,12.952L242.072,12.952z
		 M238.755,12.771c0-1.064,0.272-2.105,0.793-3.113c0.532-1.008,1.279-1.766,2.253-2.298s2.061-0.792,3.249-0.792
		c1.857,0,3.362,0.6,4.552,1.8c1.178,1.2,1.766,2.717,1.766,4.552c0,1.845-0.588,3.374-1.788,4.597
		c-1.189,1.211-2.695,1.823-4.507,1.823c-1.12,0-2.185-0.26-3.203-0.759c-1.02-0.509-1.789-1.257-2.321-2.23
		C239.027,15.375,238.755,14.175,238.755,12.771L238.755,12.771z"/>
	<path fill="#2B3282" d="M263.55,12.737c0,1.381,0.272,2.389,0.827,3.045c0.543,0.657,1.199,0.985,1.981,0.985
		c0.758,0,1.381-0.294,1.879-0.906c0.498-0.6,0.747-1.585,0.747-2.955c0-1.279-0.261-2.23-0.77-2.853
		c-0.51-0.623-1.155-0.939-1.914-0.939c-0.78,0-1.438,0.306-1.958,0.917C263.811,10.643,263.55,11.548,263.55,12.737L263.55,12.737z
		 M260.357,6.838h3.011v1.8c0.396-0.623,0.918-1.121,1.586-1.495c0.668-0.385,1.415-0.577,2.23-0.577
		c1.415,0,2.615,0.555,3.611,1.664c0.985,1.11,1.483,2.661,1.483,4.653c0,2.038-0.498,3.623-1.495,4.755
		c-0.996,1.132-2.207,1.698-3.623,1.698c-0.679,0-1.29-0.136-1.845-0.408c-0.544-0.26-1.121-0.725-1.721-1.381v6.159h-3.238V6.838z"
		/>
	<path fill="#2B3282" d="M277.408,12.952c0,1.211,0.282,2.14,0.86,2.785c0.577,0.646,1.291,0.962,2.128,0.962
		c0.85,0,1.551-0.317,2.129-0.962c0.566-0.645,0.86-1.585,0.86-2.808c0-1.2-0.294-2.117-0.86-2.763
		c-0.578-0.646-1.279-0.974-2.129-0.974c-0.837,0-1.551,0.328-2.128,0.974C277.69,10.813,277.408,11.741,277.408,12.952
		L277.408,12.952z M274.091,12.771c0-1.064,0.271-2.105,0.804-3.113c0.521-1.008,1.279-1.766,2.241-2.298
		c0.974-0.532,2.061-0.792,3.25-0.792c1.856,0,3.362,0.6,4.551,1.8c1.178,1.2,1.767,2.717,1.767,4.552
		c0,1.845-0.589,3.374-1.789,4.597c-1.188,1.211-2.694,1.823-4.506,1.823c-1.121,0-2.185-0.26-3.204-0.759
		c-1.008-0.509-1.789-1.257-2.31-2.23C274.362,15.375,274.091,14.175,274.091,12.771L274.091,12.771z"/>
	<path fill="#2B3282" d="M292.33,19.055h-3.227V6.838h3v1.744c0.51-0.827,0.974-1.37,1.382-1.63c0.419-0.26,0.883-0.385,1.403-0.385
		c0.736,0,1.449,0.204,2.129,0.611l-1.008,2.819c-0.544-0.363-1.042-0.532-1.518-0.532c-0.452,0-0.838,0.125-1.144,0.374
		c-0.316,0.249-0.565,0.702-0.747,1.347c-0.181,0.657-0.271,2.015-0.271,4.099V19.055z"/>
	<rect x="129.522" y="30.467" fill="#2B3282" width="3.227" height="16.869"/>
	<path fill="#2B3282" d="M142.803,41.472c-0.408,0.136-1.064,0.306-1.958,0.486c-0.906,0.192-1.483,0.385-1.767,0.566
		c-0.419,0.306-0.634,0.679-0.634,1.144c0,0.453,0.169,0.838,0.509,1.178c0.34,0.328,0.77,0.486,1.291,0.486
		c0.577,0,1.132-0.192,1.664-0.577c0.396-0.283,0.646-0.646,0.77-1.064c0.09-0.283,0.125-0.804,0.125-1.573V41.472z M138.478,38.845
		l-2.932-0.532c0.328-1.177,0.895-2.049,1.709-2.615c0.804-0.578,1.993-0.86,3.589-0.86c1.438,0,2.513,0.17,3.215,0.521
		c0.702,0.339,1.2,0.77,1.494,1.291c0.283,0.532,0.43,1.495,0.43,2.898l-0.034,3.771c0,1.075,0.045,1.867,0.158,2.377
		c0.102,0.51,0.294,1.064,0.578,1.642h-3.204c-0.079-0.215-0.181-0.532-0.306-0.951c-0.057-0.192-0.091-0.316-0.113-0.385
		c-0.555,0.544-1.144,0.939-1.777,1.212c-0.623,0.271-1.302,0.396-2.016,0.396c-1.256,0-2.242-0.34-2.966-1.02
		c-0.725-0.679-1.087-1.551-1.087-2.593c0-0.69,0.159-1.302,0.487-1.846c0.329-0.543,0.793-0.95,1.393-1.245
		c0.588-0.283,1.449-0.532,2.57-0.747c1.506-0.283,2.559-0.555,3.136-0.792v-0.329c0-0.623-0.147-1.064-0.453-1.324
		c-0.306-0.261-0.895-0.396-1.744-0.396c-0.577,0-1.019,0.113-1.347,0.339C138.942,37.883,138.682,38.279,138.478,38.845
		L138.478,38.845z"/>
	<path fill="#2B3282" d="M155.721,30.467h3.408v9.137c0,1.449,0.034,2.389,0.125,2.818c0.147,0.691,0.487,1.246,1.042,1.665
		c0.543,0.419,1.291,0.623,2.241,0.623c0.974,0,1.698-0.193,2.186-0.589c0.498-0.396,0.792-0.884,0.895-1.461
		c0.102-0.565,0.147-1.528,0.147-2.864v-9.329h3.407v8.865c0,2.027-0.091,3.453-0.283,4.291c-0.181,0.838-0.521,1.54-1.019,2.117
		c-0.487,0.578-1.154,1.031-1.981,1.371c-0.826,0.339-1.913,0.509-3.238,0.509c-1.619,0-2.841-0.182-3.668-0.555
		c-0.838-0.373-1.495-0.85-1.97-1.449c-0.487-0.589-0.804-1.212-0.963-1.868c-0.215-0.963-0.328-2.389-0.328-4.28V30.467z"/>
	<path fill="#2B3282" d="M183.855,47.336h-3.238v-6.238c0-1.313-0.067-2.174-0.203-2.559c-0.147-0.385-0.363-0.69-0.68-0.906
		c-0.306-0.215-0.68-0.317-1.121-0.317c-0.555,0-1.063,0.147-1.506,0.464c-0.441,0.306-0.747,0.713-0.917,1.212
		c-0.158,0.509-0.249,1.449-0.249,2.808v5.536h-3.227V35.12h3v1.789c1.064-1.381,2.412-2.072,4.031-2.072
		c0.713,0,1.358,0.136,1.947,0.385c0.6,0.261,1.041,0.589,1.348,0.985c0.305,0.407,0.509,0.86,0.634,1.358
		c0.112,0.509,0.181,1.234,0.181,2.174V47.336z"/>
	<path fill="#2B3282" d="M187.128,47.336V35.12h3.237v12.216H187.128z M187.128,33.456v-2.989h3.237v2.989H187.128z"/>
	<path fill="#2B3282" d="M197.601,33.626l1.585-3.442h3.623l-3.159,3.442H197.601z M196.242,41.223c0,1.211,0.282,2.14,0.86,2.785
		c0.577,0.646,1.29,0.974,2.128,0.974c0.85,0,1.551-0.328,2.129-0.974c0.565-0.646,0.86-1.574,0.86-2.808
		c0-1.189-0.295-2.118-0.86-2.763c-0.578-0.634-1.279-0.962-2.129-0.962c-0.838,0-1.551,0.328-2.128,0.962
		C196.524,39.083,196.242,40.012,196.242,41.223L196.242,41.223z M192.925,41.053c0-1.076,0.271-2.106,0.804-3.114
		c0.521-1.007,1.279-1.777,2.241-2.31c0.974-0.521,2.061-0.792,3.25-0.792c1.856,0,3.362,0.6,4.551,1.8
		c1.178,1.2,1.767,2.717,1.767,4.551c0,1.856-0.589,3.386-1.789,4.597c-1.188,1.223-2.694,1.823-4.506,1.823
		c-1.121,0-2.186-0.25-3.204-0.759c-1.008-0.498-1.789-1.246-2.31-2.22C193.196,43.646,192.925,42.458,192.925,41.053
		L192.925,41.053z"/>
	<path fill="#2B3282" d="M219.191,47.336h-3.238v-6.238c0-1.313-0.068-2.174-0.204-2.559s-0.362-0.69-0.68-0.906
		c-0.305-0.215-0.679-0.317-1.12-0.317c-0.555,0-1.064,0.147-1.506,0.464c-0.441,0.306-0.747,0.713-0.917,1.212
		c-0.158,0.509-0.249,1.449-0.249,2.808v5.536h-3.227V35.12h3v1.789c1.064-1.381,2.411-2.072,4.03-2.072
		c0.714,0,1.359,0.136,1.959,0.385c0.589,0.261,1.03,0.589,1.336,0.985c0.306,0.407,0.509,0.86,0.634,1.358
		c0.113,0.509,0.182,1.234,0.182,2.174V47.336z"/>
	<polygon fill="#2B3282" points="229.041,47.336 229.041,30.467 241.54,30.467 241.54,33.32 232.438,33.32 232.438,37.068 
		240.906,37.068 240.906,39.91 232.438,39.91 232.438,44.495 241.869,44.495 241.869,47.336 	"/>
	<path fill="#2B3282" d="M252.771,47.336v-1.834c-0.441,0.656-1.03,1.166-1.755,1.551c-0.725,0.374-1.483,0.556-2.298,0.556
		c-0.815,0-1.552-0.171-2.208-0.533c-0.646-0.361-1.121-0.871-1.415-1.517c-0.283-0.657-0.431-1.563-0.431-2.706V35.12h3.227v5.616
		c0,1.709,0.068,2.762,0.182,3.159c0.124,0.385,0.339,0.69,0.646,0.917c0.316,0.227,0.713,0.34,1.2,0.34
		c0.555,0,1.053-0.147,1.482-0.453c0.441-0.306,0.736-0.68,0.906-1.133c0.158-0.441,0.237-1.539,0.237-3.294V35.12h3.227v12.216
		H252.771z"/>
	<path fill="#2B3282" d="M262.226,47.336h-3.238V35.12h3v1.732c0.521-0.815,0.974-1.358,1.393-1.619
		c0.407-0.26,0.872-0.396,1.393-0.396c0.736,0,1.449,0.204,2.129,0.611l-0.997,2.819c-0.543-0.351-1.053-0.532-1.517-0.532
		c-0.453,0-0.838,0.136-1.155,0.385c-0.316,0.249-0.565,0.691-0.747,1.347c-0.17,0.657-0.26,2.015-0.26,4.098V47.336z"/>
	<path fill="#2B3282" d="M270.863,41.223c0,1.211,0.283,2.14,0.861,2.785c0.577,0.646,1.29,0.974,2.128,0.974
		c0.85,0,1.552-0.328,2.129-0.974c0.566-0.646,0.849-1.574,0.849-2.808c0-1.189-0.282-2.118-0.849-2.763
		c-0.577-0.634-1.279-0.962-2.129-0.962c-0.838,0-1.551,0.328-2.128,0.962C271.146,39.083,270.863,40.012,270.863,41.223
		L270.863,41.223z M267.547,41.053c0-1.076,0.271-2.106,0.792-3.114c0.532-1.007,1.279-1.777,2.253-2.31
		c0.974-0.521,2.05-0.792,3.25-0.792c1.846,0,3.362,0.6,4.54,1.8c1.188,1.2,1.777,2.717,1.777,4.551c0,1.856-0.6,3.386-1.789,4.597
		c-1.188,1.223-2.694,1.823-4.506,1.823c-1.121,0-2.186-0.25-3.204-0.759c-1.02-0.498-1.789-1.246-2.321-2.22
		C267.818,43.646,267.547,42.458,267.547,41.053L267.547,41.053z"/>
	<path fill="#2B3282" d="M285.798,41.019c0,1.37,0.271,2.389,0.814,3.046c0.544,0.656,1.212,0.984,1.993,0.984
		c0.747,0,1.381-0.306,1.879-0.905c0.498-0.601,0.747-1.585,0.747-2.967c0-1.279-0.26-2.23-0.77-2.853
		c-0.521-0.623-1.154-0.929-1.913-0.929c-0.793,0-1.449,0.306-1.971,0.917C286.058,38.924,285.798,39.819,285.798,41.019
		L285.798,41.019z M282.594,35.12h3.022v1.789c0.385-0.611,0.917-1.109,1.585-1.495c0.668-0.385,1.404-0.577,2.219-0.577
		c1.415,0,2.627,0.555,3.612,1.676c0.996,1.109,1.482,2.661,1.482,4.642c0,2.049-0.498,3.635-1.494,4.767s-2.208,1.688-3.623,1.688
		c-0.68,0-1.29-0.125-1.834-0.396c-0.544-0.272-1.121-0.725-1.732-1.382v6.159h-3.237V35.12z"/>
	<path fill="#2B3282" d="M304.343,40.181c-0.023-0.939-0.261-1.653-0.725-2.14c-0.453-0.487-1.02-0.725-1.676-0.725
		c-0.714,0-1.291,0.26-1.755,0.77c-0.453,0.51-0.68,1.212-0.68,2.095H304.343z M304.161,43.454l3.228,0.531
		c-0.419,1.189-1.076,2.084-1.971,2.707c-0.895,0.61-2.004,0.917-3.352,0.917c-2.128,0-3.702-0.691-4.721-2.084
		c-0.804-1.109-1.2-2.513-1.2-4.2c0-2.026,0.521-3.611,1.585-4.767c1.053-1.144,2.4-1.721,4.02-1.721c1.812,0,3.249,0.6,4.302,1.8
		c1.042,1.2,1.552,3.045,1.506,5.525h-8.106c0.023,0.951,0.283,1.698,0.781,2.23c0.498,0.543,1.121,0.804,1.868,0.804
		c0.51,0,0.929-0.136,1.279-0.419C303.72,44.506,303.98,44.065,304.161,43.454L304.161,43.454z"/>
	<path fill="#2B3282" d="M316.933,41.472c-0.408,0.136-1.064,0.306-1.971,0.486c-0.895,0.192-1.482,0.385-1.755,0.566
		c-0.419,0.306-0.634,0.679-0.634,1.144c0,0.453,0.17,0.838,0.51,1.178c0.328,0.328,0.759,0.486,1.279,0.486
		c0.589,0,1.144-0.192,1.676-0.577c0.385-0.283,0.646-0.646,0.77-1.064c0.079-0.283,0.125-0.804,0.125-1.573V41.472z
		 M312.607,38.845l-2.933-0.532c0.329-1.177,0.895-2.049,1.698-2.615c0.805-0.578,2.004-0.86,3.589-0.86
		c1.45,0,2.525,0.17,3.228,0.521c0.702,0.339,1.2,0.77,1.483,1.291c0.294,0.532,0.441,1.495,0.441,2.898l-0.034,3.771
		c0,1.075,0.045,1.867,0.147,2.377c0.102,0.51,0.306,1.064,0.588,1.642h-3.204c-0.079-0.215-0.192-0.532-0.306-0.951
		c-0.057-0.192-0.09-0.316-0.124-0.385c-0.544,0.544-1.133,0.939-1.767,1.212c-0.634,0.271-1.302,0.396-2.015,0.396
		c-1.257,0-2.254-0.34-2.978-1.02c-0.726-0.679-1.088-1.551-1.088-2.593c0-0.69,0.171-1.302,0.498-1.846
		c0.329-0.543,0.793-0.95,1.382-1.245c0.6-0.283,1.461-0.532,2.581-0.747c1.506-0.283,2.56-0.555,3.137-0.792v-0.329
		c0-0.623-0.147-1.064-0.465-1.324c-0.306-0.261-0.883-0.396-1.731-0.396c-0.578,0-1.02,0.113-1.348,0.339
		C313.071,37.883,312.812,38.279,312.607,38.845L312.607,38.845z"/>
	<path fill="#565455" d="M131.39,77.679V66.233l7.665,11.446h1.97V63.096h-1.845v11.446l-7.665-11.446h-1.97v14.583H131.39z
		 M150.15,75.914c-0.464,0.351-1.019,0.531-1.664,0.531c-0.895,0-1.63-0.306-2.219-0.917c-0.589-0.634-0.917-1.506-0.985-2.672
		h7.891c0-0.204,0-0.362,0-0.464c0-1.755-0.453-3.103-1.347-4.054c-0.895-0.962-2.038-1.449-3.442-1.449
		c-1.472,0-2.649,0.487-3.566,1.461c-0.917,0.984-1.358,2.366-1.358,4.144c0,1.71,0.441,3.034,1.358,3.985
		c0.895,0.962,2.117,1.427,3.668,1.427c1.223,0,2.219-0.306,3.012-0.895c0.781-0.589,1.324-1.427,1.607-2.502l-1.845-0.249
		C150.988,75.019,150.626,75.562,150.15,75.914L150.15,75.914z M146.324,69.188c0.555-0.544,1.245-0.838,2.061-0.838
		c0.917,0,1.653,0.351,2.219,1.041c0.362,0.453,0.588,1.099,0.668,2.005h-5.888C145.452,70.479,145.758,69.743,146.324,69.188
		L146.324,69.188z M156.332,77.679l2.831-4.03l0.509,0.781l2.174,3.249h2.186l-3.838-5.469l3.589-5.095h-2.174l-1.755,2.479
		c-0.249,0.352-0.509,0.736-0.815,1.166c-0.181-0.306-0.43-0.69-0.736-1.144l-1.665-2.502h-2.208l3.589,5.095l-3.872,5.469H156.332z
		 M168.673,76.162c-0.271,0-0.476-0.045-0.611-0.124c-0.147-0.102-0.249-0.204-0.306-0.374c-0.057-0.136-0.102-0.464-0.102-0.974
		v-6.192h1.788v-1.382h-1.788v-3.69l-1.789,1.075v2.615h-1.324v1.382h1.324v6.091c0,1.075,0.079,1.777,0.215,2.117
		c0.147,0.328,0.396,0.611,0.759,0.815c0.351,0.203,0.86,0.306,1.506,0.306c0.385,0,0.838-0.057,1.348-0.159l-0.25-1.573
		C169.114,76.139,168.854,76.162,168.673,76.162L168.673,76.162z M182.542,71.961v2.729c-0.407,0.362-1.019,0.714-1.812,1.042
		c-0.792,0.328-1.607,0.486-2.445,0.486c-0.951,0-1.856-0.203-2.706-0.634c-0.86-0.43-1.506-1.075-1.959-1.959
		c-0.452-0.871-0.667-1.97-0.667-3.271c0-1.064,0.181-2.038,0.543-2.933c0.227-0.532,0.532-1.019,0.917-1.449
		c0.407-0.453,0.917-0.792,1.574-1.063c0.634-0.261,1.403-0.408,2.275-0.408c0.735,0,1.404,0.125,2.004,0.396
		c0.611,0.237,1.075,0.589,1.403,1.019c0.329,0.419,0.59,0.996,0.815,1.744l1.732-0.487c-0.249-0.974-0.611-1.766-1.109-2.378
		c-0.486-0.611-1.155-1.086-1.993-1.426c-0.849-0.352-1.811-0.51-2.875-0.51c-1.438,0-2.729,0.306-3.85,0.895
		c-1.099,0.589-1.947,1.506-2.536,2.729c-0.6,1.245-0.906,2.569-0.906,3.974c0,1.449,0.307,2.729,0.906,3.884
		c0.589,1.166,1.483,2.061,2.638,2.672c1.166,0.611,2.469,0.917,3.918,0.917c1.053,0,2.095-0.181,3.091-0.566
		c0.996-0.385,1.981-0.962,2.932-1.709v-5.401h-6.17v1.71H182.542z M193.173,75.914c-0.464,0.351-1.019,0.531-1.663,0.531
		c-0.896,0-1.631-0.306-2.22-0.917c-0.6-0.634-0.917-1.506-0.985-2.672h7.892c0-0.204,0-0.362,0-0.464
		c0-1.755-0.452-3.103-1.348-4.054c-0.895-0.962-2.037-1.449-3.441-1.449c-1.472,0-2.649,0.487-3.566,1.461
		c-0.917,0.984-1.37,2.366-1.37,4.144c0,1.71,0.453,3.034,1.37,3.985c0.895,0.962,2.117,1.427,3.669,1.427
		c1.222,0,2.219-0.306,3.011-0.895c0.771-0.589,1.325-1.427,1.607-2.502l-1.856-0.249C194.011,75.019,193.649,75.562,193.173,75.914
		L193.173,75.914z M189.347,69.188c0.555-0.544,1.245-0.838,2.061-0.838c0.917,0,1.642,0.351,2.22,1.041
		c0.361,0.453,0.588,1.099,0.667,2.005h-5.887C188.475,70.479,188.78,69.743,189.347,69.188L189.347,69.188z M200.182,77.679v-5.763
		c0-1.358,0.283-2.275,0.838-2.751c0.555-0.487,1.2-0.725,1.959-0.725c0.486,0,0.895,0.102,1.233,0.316
		c0.374,0.204,0.611,0.51,0.759,0.86c0.147,0.362,0.204,0.917,0.204,1.653v6.408h1.788v-6.487c0-0.815-0.033-1.415-0.102-1.732
		c-0.102-0.51-0.283-0.962-0.543-1.325c-0.271-0.373-0.68-0.679-1.2-0.894c-0.532-0.227-1.121-0.352-1.755-0.352
		c-1.472,0-2.593,0.566-3.362,1.732v-1.506h-1.608v10.563H200.182z M215.828,75.914c-0.464,0.351-1.019,0.531-1.676,0.531
		c-0.894,0-1.63-0.306-2.219-0.917c-0.589-0.634-0.917-1.506-0.974-2.672h7.88c0-0.204,0-0.362,0-0.464
		c0-1.755-0.441-3.103-1.347-4.054c-0.895-0.962-2.027-1.449-3.442-1.449c-1.461,0-2.638,0.487-3.555,1.461
		c-0.917,0.984-1.37,2.366-1.37,4.144c0,1.71,0.453,3.034,1.37,3.985c0.895,0.962,2.117,1.427,3.656,1.427
		c1.224,0,2.23-0.306,3.023-0.895c0.77-0.589,1.324-1.427,1.607-2.502l-1.856-0.249C216.666,75.019,216.293,75.562,215.828,75.914
		L215.828,75.914z M212.002,69.188c0.543-0.544,1.233-0.838,2.049-0.838c0.917,0,1.653,0.351,2.23,1.041
		c0.362,0.453,0.589,1.099,0.668,2.005h-5.887C211.118,70.479,211.425,69.743,212.002,69.188L212.002,69.188z M222.814,77.679
		v-5.514c0-0.759,0.102-1.449,0.305-2.095c0.125-0.407,0.352-0.736,0.657-0.984c0.306-0.227,0.668-0.34,1.053-0.34
		c0.431,0,0.86,0.113,1.302,0.362l0.635-1.653c-0.635-0.385-1.246-0.566-1.834-0.566c-0.431,0-0.815,0.125-1.155,0.362
		c-0.351,0.227-0.736,0.736-1.144,1.473v-1.608h-1.607v10.563H222.814z M235.076,77.679h1.879c-0.227-0.396-0.374-0.826-0.453-1.279
		c-0.057-0.431-0.102-1.483-0.102-3.137v-2.377c0-0.804-0.022-1.348-0.08-1.653c-0.124-0.486-0.305-0.895-0.565-1.223
		c-0.271-0.328-0.679-0.589-1.245-0.793c-0.578-0.226-1.303-0.328-2.208-0.328s-1.71,0.125-2.4,0.362
		c-0.69,0.272-1.223,0.611-1.585,1.087c-0.373,0.442-0.634,1.053-0.792,1.812l1.743,0.238c0.192-0.747,0.498-1.279,0.905-1.563
		c0.408-0.306,1.02-0.453,1.868-0.453c0.895,0,1.585,0.204,2.038,0.611c0.351,0.283,0.51,0.793,0.51,1.528c0,0.068,0,0.227,0,0.476
		c-0.69,0.238-1.755,0.441-3.216,0.611c-0.69,0.08-1.223,0.182-1.596,0.261c-0.465,0.146-0.895,0.328-1.279,0.589
		c-0.386,0.26-0.691,0.611-0.94,1.041c-0.227,0.408-0.34,0.895-0.34,1.404c0,0.871,0.307,1.607,0.929,2.162
		c0.634,0.566,1.528,0.85,2.695,0.85c0.689,0,1.358-0.125,1.97-0.34c0.611-0.249,1.245-0.634,1.925-1.2
		C234.793,76.875,234.895,77.294,235.076,77.679L235.076,77.679z M234.589,73.038c0,0.792-0.103,1.393-0.306,1.777
		c-0.249,0.532-0.635,0.939-1.178,1.245c-0.532,0.306-1.144,0.441-1.834,0.441c-0.713,0-1.245-0.158-1.597-0.464
		c-0.362-0.328-0.543-0.714-0.543-1.2c0-0.306,0.079-0.6,0.237-0.838c0.17-0.271,0.408-0.453,0.714-0.589
		c0.305-0.124,0.838-0.249,1.573-0.351c1.303-0.182,2.275-0.408,2.933-0.668V73.038z M242.265,76.162
		c-0.26,0-0.464-0.045-0.611-0.124c-0.136-0.102-0.237-0.204-0.306-0.374c-0.057-0.136-0.102-0.464-0.102-0.974v-6.192h1.8v-1.382
		h-1.8v-3.69l-1.789,1.075v2.615h-1.324v1.382h1.324v6.091c0,1.075,0.079,1.777,0.227,2.117c0.136,0.328,0.385,0.611,0.747,0.815
		c0.351,0.203,0.86,0.306,1.506,0.306c0.396,0,0.838-0.057,1.348-0.159l-0.238-1.573C242.718,76.139,242.446,76.162,242.265,76.162
		L242.265,76.162z M246.602,65.134v-2.038h-1.789v2.038H246.602z M246.602,77.679V67.116h-1.789v10.563H246.602z M250.031,76.479
		c0.917,0.962,2.117,1.427,3.578,1.427c0.939,0,1.777-0.227,2.57-0.646c0.77-0.431,1.37-1.02,1.777-1.812
		c0.407-0.781,0.611-1.834,0.611-3.204c0-1.664-0.476-2.978-1.393-3.929c-0.917-0.963-2.095-1.427-3.566-1.427
		c-1.302,0-2.4,0.385-3.317,1.178c-1.075,0.939-1.63,2.389-1.63,4.325C248.662,74.181,249.114,75.55,250.031,76.479L250.031,76.479z
		 M251.391,69.369c0.589-0.668,1.324-0.996,2.219-0.996c0.905,0,1.63,0.328,2.23,0.996c0.589,0.68,0.895,1.676,0.895,2.978
		c0,1.382-0.306,2.4-0.895,3.08c-0.601,0.668-1.325,1.019-2.23,1.019c-0.895,0-1.63-0.328-2.219-0.996
		c-0.589-0.68-0.895-1.698-0.895-3.034C250.496,71.067,250.802,70.048,251.391,69.369L251.391,69.369z M262.451,77.679v-5.763
		c0-1.358,0.283-2.275,0.838-2.751c0.556-0.487,1.2-0.725,1.959-0.725c0.487,0,0.895,0.102,1.234,0.316
		c0.374,0.204,0.611,0.51,0.759,0.86c0.146,0.362,0.203,0.917,0.203,1.653v6.408h1.789v-6.487c0-0.815-0.034-1.415-0.102-1.732
		c-0.103-0.51-0.283-0.962-0.544-1.325c-0.271-0.373-0.679-0.679-1.2-0.894c-0.531-0.227-1.121-0.352-1.755-0.352
		c-1.472,0-2.592,0.566-3.362,1.732v-1.506h-1.607v10.563H262.451z M283.125,77.679v-1.71h-8.933V71h8.038v-1.71h-8.038v-4.483
		h8.593v-1.71h-10.528v14.583H283.125z M295.353,71.508c0,1.835-0.306,3.08-0.894,3.736c-0.611,0.623-1.608,0.951-3.034,0.951
		c-0.815,0-1.507-0.158-2.084-0.486c-0.565-0.329-0.974-0.793-1.223-1.382c-0.227-0.611-0.34-1.528-0.34-2.819v-8.412h-1.936v8.436
		c0,1.528,0.181,2.751,0.543,3.646c0.374,0.895,0.996,1.573,1.857,2.038c0.871,0.464,1.992,0.713,3.362,0.713
		c1.404,0,2.524-0.261,3.396-0.815c0.86-0.532,1.449-1.245,1.801-2.094c0.316-0.86,0.486-2.038,0.486-3.487v-8.436h-1.937V71.508z"
		/>
</g>
</svg>
