<svg xmlns="http://www.w3.org/2000/svg" width="36.731" height="29.768" viewBox="0 0 36.731 29.768"><defs><style>.a{fill:#17100d;}.b{fill:#039;}.c{fill:#ffce00;}</style></defs><g transform="translate(14232.189 9403.666)"><g transform="translate(-14226.721 -9377.054)"><path class="a" d="M752.478,822.122a1.122,1.122,0,0,1-.065.393.771.771,0,0,1-.19.293.825.825,0,0,1-.31.182,1.316,1.316,0,0,1-.424.063,1.339,1.339,0,0,1-.4-.056.783.783,0,0,1-.3-.17.743.743,0,0,1-.189-.285,1.109,1.109,0,0,1-.065-.4v-1.45a.055.055,0,0,1,.011-.033.077.077,0,0,1,.04-.024.413.413,0,0,1,.075-.015,1.032,1.032,0,0,1,.118-.005,1.012,1.012,0,0,1,.116.005.388.388,0,0,1,.074.015.083.083,0,0,1,.04.024.051.051,0,0,1,.012.033V822.1a.774.774,0,0,0,.035.246.453.453,0,0,0,.1.172.415.415,0,0,0,.156.1.577.577,0,0,0,.2.034.563.563,0,0,0,.2-.035.4.4,0,0,0,.153-.1.462.462,0,0,0,.1-.166.685.685,0,0,0,.034-.224v-1.436a.055.055,0,0,1,.011-.033.077.077,0,0,1,.039-.024.391.391,0,0,1,.075-.015,1.037,1.037,0,0,1,.117-.005.985.985,0,0,1,.115.005.385.385,0,0,1,.073.015.078.078,0,0,1,.039.024.055.055,0,0,1,.011.033Z" transform="translate(-750.53 -819.897)"/><path class="a" d="M780.028,822.879a.183.183,0,0,1-.015.076.159.159,0,0,1-.04.055.156.156,0,0,1-.059.032.243.243,0,0,1-.069.01h-.206a.427.427,0,0,1-.111-.013.223.223,0,0,1-.087-.047.409.409,0,0,1-.077-.092,1.707,1.707,0,0,1-.083-.15l-.594-1.115q-.051-.1-.1-.215t-.1-.224h0q.008.133.011.265t0,.272v1.248a.056.056,0,0,1-.01.033.076.076,0,0,1-.035.025.287.287,0,0,1-.067.016.851.851,0,0,1-.109.005.833.833,0,0,1-.107-.005.272.272,0,0,1-.066-.016.069.069,0,0,1-.033-.025.06.06,0,0,1-.009-.033v-2.143a.162.162,0,0,1,.051-.13.185.185,0,0,1,.125-.043h.26a.5.5,0,0,1,.118.012.247.247,0,0,1,.086.04.306.306,0,0,1,.071.077.982.982,0,0,1,.068.121l.464.872.08.156q.04.077.076.153l.072.15c.023.049.046.1.068.148h0q-.006-.129-.008-.269t0-.267v-1.119a.053.053,0,0,1,.011-.033.088.088,0,0,1,.037-.026.252.252,0,0,1,.068-.016c.028,0,.065,0,.109,0a1.044,1.044,0,0,1,.105,0,.211.211,0,0,1,.065.016.073.073,0,0,1,.032.026.06.06,0,0,1,.009.033Z" transform="translate(-775.631 -819.936)"/><path class="a" d="M806.31,822.944a.051.051,0,0,1-.012.033.083.083,0,0,1-.04.024.38.38,0,0,1-.074.015,1.259,1.259,0,0,1-.235,0,.379.379,0,0,1-.075-.015.084.084,0,0,1-.04-.024.052.052,0,0,1-.012-.033v-2.252a.052.052,0,0,1,.012-.033.084.084,0,0,1,.041-.024.406.406,0,0,1,.075-.015,1.009,1.009,0,0,1,.116-.005,1.03,1.03,0,0,1,.118.005.389.389,0,0,1,.074.015.083.083,0,0,1,.04.024.051.051,0,0,1,.012.033Z" transform="translate(-800.939 -819.897)"/><path class="a" d="M816.809,812.583a.277.277,0,0,1,.047-.044.174.174,0,0,1,.055-.026.37.37,0,0,1,.078-.012q.046,0,.114,0a.61.61,0,0,1,.132.011.141.141,0,0,1,.065.029.034.034,0,0,1,.008.04.137.137,0,0,1-.035.046l-.409.369a.27.27,0,0,1-.038.028.2.2,0,0,1-.047.02.36.36,0,0,1-.066.012c-.026,0-.058,0-.1,0a.729.729,0,0,1-.1-.005.123.123,0,0,1-.054-.017.029.029,0,0,1-.012-.031.108.108,0,0,1,.026-.044Zm.5,1.834a1.8,1.8,0,0,0-.03-.342.738.738,0,0,0-.1-.264.479.479,0,0,0-.189-.17.648.648,0,0,0-.295-.06.6.6,0,0,0-.3.067.547.547,0,0,0-.193.18.744.744,0,0,0-.1.263,1.611,1.611,0,0,0-.03.318,1.9,1.9,0,0,0,.03.351.757.757,0,0,0,.1.266.456.456,0,0,0,.188.169.669.669,0,0,0,.3.058.609.609,0,0,0,.3-.066.534.534,0,0,0,.193-.18.762.762,0,0,0,.1-.266A1.639,1.639,0,0,0,817.308,814.417Zm.509-.026a1.771,1.771,0,0,1-.074.531,1.071,1.071,0,0,1-.219.4.943.943,0,0,1-.36.249,1.334,1.334,0,0,1-.5.086,1.464,1.464,0,0,1-.486-.073.841.841,0,0,1-.346-.222.951.951,0,0,1-.207-.38,1.912,1.912,0,0,1-.069-.546,1.711,1.711,0,0,1,.074-.521,1.063,1.063,0,0,1,.219-.394.959.959,0,0,1,.36-.249,1.329,1.329,0,0,1,.5-.087,1.455,1.455,0,0,1,.478.072.841.841,0,0,1,.347.221.961.961,0,0,1,.21.377A1.815,1.815,0,0,1,817.817,814.391Z" transform="translate(-809.815 -812.498)"/><path class="a" d="M847.268,822.879a.183.183,0,0,1-.015.076.158.158,0,0,1-.04.055.156.156,0,0,1-.059.032.244.244,0,0,1-.069.01h-.206a.429.429,0,0,1-.112-.013.223.223,0,0,1-.087-.047.412.412,0,0,1-.076-.092q-.037-.058-.083-.15l-.593-1.115q-.052-.1-.1-.215t-.1-.224h0q.007.133.011.265t0,.272v1.248a.058.058,0,0,1-.01.033.076.076,0,0,1-.035.025.289.289,0,0,1-.067.016.853.853,0,0,1-.109.005.832.832,0,0,1-.107-.005.27.27,0,0,1-.066-.016.07.07,0,0,1-.033-.025.061.061,0,0,1-.009-.033v-2.143a.162.162,0,0,1,.051-.13.185.185,0,0,1,.124-.043h.26a.5.5,0,0,1,.118.012.247.247,0,0,1,.086.04.308.308,0,0,1,.071.077.982.982,0,0,1,.068.121l.464.872.08.156q.04.077.076.153l.072.15c.023.049.046.1.068.148h0q-.006-.129-.008-.269t0-.267v-1.119a.053.053,0,0,1,.011-.033.087.087,0,0,1,.037-.026.248.248,0,0,1,.068-.016,1.088,1.088,0,0,1,.109,0,1.04,1.04,0,0,1,.1,0,.211.211,0,0,1,.065.016.074.074,0,0,1,.032.026.062.062,0,0,1,.009.033Z" transform="translate(-836.932 -819.936)"/><path class="a" d="M883.71,822.934a.724.724,0,0,1,0,.09.23.23,0,0,1-.014.058.076.076,0,0,1-.023.032.05.05,0,0,1-.031.01h-1.2a.151.151,0,0,1-.1-.036.148.148,0,0,1-.042-.117v-2.079a.147.147,0,0,1,.042-.117.15.15,0,0,1,.1-.036h1.191a.05.05,0,0,1,.03.009.071.071,0,0,1,.022.032.243.243,0,0,1,.014.059.72.72,0,0,1,0,.091.681.681,0,0,1,0,.088.225.225,0,0,1-.014.058.079.079,0,0,1-.022.032.047.047,0,0,1-.03.01h-.852v.582h.721a.051.051,0,0,1,.03.01.075.075,0,0,1,.023.031.23.23,0,0,1,.014.057.736.736,0,0,1,0,.088.724.724,0,0,1,0,.088.229.229,0,0,1-.014.056.069.069,0,0,1-.023.031.054.054,0,0,1-.03.009h-.721v.672h.859a.051.051,0,0,1,.031.01.076.076,0,0,1,.023.032.226.226,0,0,1,.014.058A.725.725,0,0,1,883.71,822.934Z" transform="translate(-870.658 -820.011)"/><path class="a" d="M904.682,822.122a1.121,1.121,0,0,1-.064.393.772.772,0,0,1-.19.293.823.823,0,0,1-.31.182,1.317,1.317,0,0,1-.424.063,1.338,1.338,0,0,1-.4-.056.781.781,0,0,1-.3-.17.746.746,0,0,1-.189-.285,1.112,1.112,0,0,1-.065-.4v-1.45a.055.055,0,0,1,.011-.033.077.077,0,0,1,.04-.024.411.411,0,0,1,.075-.015,1.033,1.033,0,0,1,.118-.005,1.01,1.01,0,0,1,.116.005.391.391,0,0,1,.074.015.083.083,0,0,1,.04.024.052.052,0,0,1,.012.033V822.1a.774.774,0,0,0,.035.246.455.455,0,0,0,.1.172.416.416,0,0,0,.157.1.576.576,0,0,0,.2.034.564.564,0,0,0,.2-.035.405.405,0,0,0,.153-.1.463.463,0,0,0,.1-.166.683.683,0,0,0,.034-.224v-1.436a.054.054,0,0,1,.011-.033.077.077,0,0,1,.039-.024.388.388,0,0,1,.075-.015,1.038,1.038,0,0,1,.117-.005.988.988,0,0,1,.115.005.385.385,0,0,1,.073.015.077.077,0,0,1,.039.024.054.054,0,0,1,.011.033Z" transform="translate(-889.289 -819.897)"/><path class="a" d="M931.412,821.443a.355.355,0,0,0-.053-.2.291.291,0,0,0-.175-.114.672.672,0,0,0-.084-.015,1.185,1.185,0,0,0-.13-.005h-.217v.676H931a.591.591,0,0,0,.181-.025.364.364,0,0,0,.129-.07.285.285,0,0,0,.077-.108A.365.365,0,0,0,931.412,821.443Zm.625,1.618a.072.072,0,0,1-.007.034.058.058,0,0,1-.035.023.34.34,0,0,1-.081.013c-.036,0-.084,0-.146,0s-.093,0-.123,0a.272.272,0,0,1-.073-.014.08.08,0,0,1-.038-.026.15.15,0,0,1-.018-.038l-.214-.532q-.039-.09-.075-.16a.509.509,0,0,0-.082-.117.3.3,0,0,0-.1-.071.363.363,0,0,0-.136-.024h-.151v.909a.052.052,0,0,1-.012.033.082.082,0,0,1-.04.024.379.379,0,0,1-.074.015,1.259,1.259,0,0,1-.235,0,.377.377,0,0,1-.075-.015.075.075,0,0,1-.039-.024.053.053,0,0,1-.011-.033v-2.165a.147.147,0,0,1,.041-.117.15.15,0,0,1,.1-.036h.617q.094,0,.155,0l.111.009a1,1,0,0,1,.259.07.619.619,0,0,1,.2.13.544.544,0,0,1,.123.19.694.694,0,0,1,.043.252.74.74,0,0,1-.031.219.559.559,0,0,1-.089.176.583.583,0,0,1-.146.135.786.786,0,0,1-.2.092.543.543,0,0,1,.1.063.525.525,0,0,1,.089.089.857.857,0,0,1,.078.12,1.527,1.527,0,0,1,.072.152l.2.47c.018.047.031.081.037.1A.2.2,0,0,1,932.036,823.061Z" transform="translate(-914.392 -820.011)"/><path class="a" d="M954.415,821.493a1.823,1.823,0,0,0-.029-.342.739.739,0,0,0-.1-.264.481.481,0,0,0-.189-.17.648.648,0,0,0-.295-.06.6.6,0,0,0-.3.067.551.551,0,0,0-.193.18.739.739,0,0,0-.1.263,1.592,1.592,0,0,0-.031.318,1.908,1.908,0,0,0,.03.351.759.759,0,0,0,.1.266.457.457,0,0,0,.188.168.669.669,0,0,0,.3.058.609.609,0,0,0,.3-.066.534.534,0,0,0,.194-.181.764.764,0,0,0,.1-.266A1.658,1.658,0,0,0,954.415,821.493Zm.509-.026a1.763,1.763,0,0,1-.074.531,1.071,1.071,0,0,1-.219.4.944.944,0,0,1-.36.249,1.333,1.333,0,0,1-.5.086,1.466,1.466,0,0,1-.486-.073.841.841,0,0,1-.346-.222.954.954,0,0,1-.207-.38,1.912,1.912,0,0,1-.069-.546,1.711,1.711,0,0,1,.074-.521,1.065,1.065,0,0,1,.219-.393.955.955,0,0,1,.36-.249,1.326,1.326,0,0,1,.5-.087,1.462,1.462,0,0,1,.478.072.843.843,0,0,1,.346.221.968.968,0,0,1,.21.377A1.819,1.819,0,0,1,954.924,821.467Z" transform="translate(-934.811 -819.574)"/><path class="a" d="M983.535,821.5a.429.429,0,0,0-.044-.206.305.305,0,0,0-.109-.12.36.36,0,0,0-.136-.049,1.042,1.042,0,0,0-.146-.01h-.206v.809h.217a.526.526,0,0,0,.194-.031.332.332,0,0,0,.128-.088.384.384,0,0,0,.076-.135A.544.544,0,0,0,983.535,821.5Zm.507-.035a.945.945,0,0,1-.062.356.689.689,0,0,1-.183.261.8.8,0,0,1-.294.161,1.366,1.366,0,0,1-.41.055h-.2v.761a.051.051,0,0,1-.012.033.082.082,0,0,1-.04.024.377.377,0,0,1-.074.015,1.259,1.259,0,0,1-.235,0,.379.379,0,0,1-.075-.015.075.075,0,0,1-.039-.024.054.054,0,0,1-.011-.033v-2.145a.172.172,0,0,1,.045-.13.165.165,0,0,1,.119-.043h.562c.057,0,.11,0,.161.006a1.7,1.7,0,0,1,.183.028.8.8,0,0,1,.216.078.642.642,0,0,1,.187.145.6.6,0,0,1,.118.2A.8.8,0,0,1,984.042,821.463Z" transform="translate(-961.927 -820.011)"/><path class="a" d="M1006.139,822.934a.7.7,0,0,1,0,.09.236.236,0,0,1-.014.058.073.073,0,0,1-.023.032.049.049,0,0,1-.03.01h-1.2a.15.15,0,0,1-.1-.036.147.147,0,0,1-.041-.117v-2.079a.147.147,0,0,1,.041-.117.149.149,0,0,1,.1-.036h1.191a.049.049,0,0,1,.029.009.07.07,0,0,1,.022.032.249.249,0,0,1,.014.059.766.766,0,0,1,0,.091.726.726,0,0,1,0,.088.23.23,0,0,1-.014.058.078.078,0,0,1-.022.032.046.046,0,0,1-.029.01h-.852v.582h.721a.051.051,0,0,1,.031.01.074.074,0,0,1,.023.031.224.224,0,0,1,.014.057.766.766,0,0,1,0,.088.753.753,0,0,1,0,.088.223.223,0,0,1-.014.056.068.068,0,0,1-.023.031.055.055,0,0,1-.031.009h-.721v.672h.859a.049.049,0,0,1,.03.01.072.072,0,0,1,.023.032.232.232,0,0,1,.014.058A.7.7,0,0,1,1006.139,822.934Z" transform="translate(-982.273 -820.011)"/><path class="a" d="M1023.842,821.08h0l-.337,1.014h.676Zm1.095,1.749a.657.657,0,0,1,.028.105.063.063,0,0,1-.015.058.12.12,0,0,1-.072.024c-.034,0-.082,0-.142,0s-.112,0-.146,0a.353.353,0,0,1-.08-.011.072.072,0,0,1-.039-.023.127.127,0,0,1-.019-.039l-.16-.479h-.9l-.151.466a.157.157,0,0,1-.019.043.081.081,0,0,1-.039.027.275.275,0,0,1-.076.014c-.033,0-.075,0-.128,0a1.2,1.2,0,0,1-.133-.005.1.1,0,0,1-.066-.027.071.071,0,0,1-.013-.06.6.6,0,0,1,.027-.1l.735-2.116a.186.186,0,0,1,.026-.051.09.09,0,0,1,.047-.03.371.371,0,0,1,.089-.013c.038,0,.089,0,.151,0s.13,0,.173,0a.463.463,0,0,1,.1.013.1.1,0,0,1,.052.03.187.187,0,0,1,.027.055Z" transform="translate(-998.722 -819.897)"/></g><rect class="b" width="36.731" height="25.206" transform="translate(-14232.189 -9403.666)"/><g transform="translate(-14222.972 -9399.708)"><path class="c" d="M881.68,558.365l.753-.549.753.549-.287-.888.765-.55h-.943l-.289-.9-.288.9H881.2l.764.55Z" transform="translate(-873.409 -556.027)"/><path class="c" d="M837.563,570.206l.753-.549.753.549-.286-.888.764-.549H838.6l-.288-.9-.289.9h-.942l.764.549Z" transform="translate(-833.189 -566.822)"/><path class="c" d="M806.046,600.216l-.288.9h-.942l.764.549-.286.889.753-.549.753.549-.286-.889.764-.549h-.942Z" transform="translate(-803.769 -596.313)"/><path class="c" d="M794.2,646.058l.752.549-.286-.888.764-.55h-.942l-.289-.9-.288.9-.943,0,.765.55-.286.888Z" transform="translate(-792.97 -636.475)"/><path class="c" d="M806.335,689.361l-.289-.9-.288.9h-.942l.764.549-.286.889.753-.55.753.55-.286-.889.764-.549Z" transform="translate(-803.769 -676.763)"/><path class="c" d="M838.672,721.709l-.288-.9-.288.9h-.943l.764.55-.286.889.753-.55.752.55-.286-.889.764-.55Z" transform="translate(-833.25 -706.254)"/><path class="c" d="M882.727,733.416l-.288-.9-.288.9h-.943l.764.549-.286.889.753-.55.752.55-.287-.889.765-.549Z" transform="translate(-873.414 -716.926)"/><path class="c" d="M926.787,721.709l-.288-.9-.289.9h-.941l.764.55-.286.889.753-.55.753.55-.287-.889.765-.55Z" transform="translate(-913.583 -706.254)"/><path class="c" d="M959.126,689.361l-.289-.9-.289.9h-.941l.765.549-.287.889.753-.55.753.55-.287-.889.765-.549Z" transform="translate(-943.063 -676.763)"/><path class="c" d="M971.775,645.049h-.943l-.289-.9-.288.9h-.943l.765.549-.286.889.752-.55.753.55-.286-.889Z" transform="translate(-953.736 -636.364)"/><path class="c" d="M958.082,602.431l.753-.549.753.549-.287-.889.765-.549h-.942l-.289-.9-.289.9H957.6l.765.549Z" transform="translate(-943.061 -596.201)"/><path class="c" d="M926.621,567.878l-.288.9-.943,0,.764.55-.286.889.754-.55.752.55-.286-.889.765-.55h-.944Z" transform="translate(-913.694 -566.832)"/></g></g></svg>